<svg xmlns="http://www.w3.org/2000/svg" xmlns:xlink="http://www.w3.org/1999/xlink" width="68.43" height="78.27" viewBox="0 0 68.43 78.27">
  <defs>
    <linearGradient id="linear-gradient" x1="0.328" y1="0.21" x2="0.568" y2="0.71" gradientUnits="objectBoundingBox">
      <stop offset="0" stop-color="#1989ff"/>
      <stop offset="1" stop-color="#0064cc"/>
    </linearGradient>
  </defs>
  <g id="Group_2155" data-name="Group 2155" transform="translate(-22.022 -141.604)">
    <path id="Path_6994" data-name="Path 6994" d="M49.416,232.267,88.142,210.24c1.734-1,1.517-2.75-.485-3.905l-5.619-3.267a7.519,7.519,0,0,0-6.765-.28L36.547,224.814c-1.734,1-1.516,2.75.485,3.906l5.619,3.266A7.522,7.522,0,0,0,49.416,232.267Z" transform="translate(-2.884 -13.068)" fill="#ccc" style="mix-blend-mode: multiply;isolation: isolate"/>
    <g id="Group_2154" data-name="Group 2154" transform="translate(22.022 141.604)">
      <g id="Group_2149" data-name="Group 2149" transform="translate(12.233 18.527)">
        <g id="Group_2145" data-name="Group 2145">
          <path id="Path_6995" data-name="Path 6995" d="M100.437,177.339l-9.086-5.117,2.521,8.447Z" transform="translate(-49.227 -166.743)" fill="#0070e6"/>
          <path id="Path_6996" data-name="Path 6996" d="M81.771,175.568c0,.277-.017.554-.034.836v.034c-.375,4.787-3.725,10.3-7.807,12.663a.089.089,0,0,0-.035.017l-11.077,6.389a.266.266,0,0,1-.064.041c-.024.017-.046.023-.07.04l-11.008,6.355-8.257,4.763-.029.017a4.288,4.288,0,0,1-3.766.571,2.338,2.338,0,0,1-.583-.328l-.023-.012a2.879,2.879,0,0,1-.612-.629,4.9,4.9,0,0,1-.784-2.883,12.708,12.708,0,0,1,5.767-9.941,5.663,5.663,0,0,1,.559-.289h.005a17.209,17.209,0,0,1,6.932-9.5c1.614-6.683,6.314-13.562,11.867-16.769,3.177-1.839,6.077-2.144,8.28-1.171l.005.006a5.66,5.66,0,0,1,1.044.6,7.383,7.383,0,0,1,2.722,4.267,5.5,5.5,0,0,1,3.973-.415,3.582,3.582,0,0,1,1.338.772l.017.012a5.479,5.479,0,0,1,1.6,3.69l.005-.006v.075C81.753,175.032,81.771,175.3,81.771,175.568Z" transform="translate(-37.624 -165.234)" fill="#223bc9"/>
          <path id="Path_6997" data-name="Path 6997" d="M62.364,194.285l-6.931,9.5L45.7,198.3a17.209,17.209,0,0,1,6.932-9.5Z" transform="translate(-39.368 -170.325)" fill="#0070e6"/>
          <path id="Path_6998" data-name="Path 6998" d="M53.689,206.4l-2.013,3.252-4.318,6.977-3.938-2.214-5.8-3.264a12.708,12.708,0,0,1,5.767-9.941,5.67,5.67,0,0,1,.559-.289h.005Z" transform="translate(-37.624 -172.941)" fill="#006ad9"/>
          <path id="Path_6999" data-name="Path 6999" d="M76.135,172.9,64.273,189.666l-9.733-5.478c1.614-6.683,6.314-13.562,11.867-16.769Z" transform="translate(-41.277 -165.706)" fill="#0076f2"/>
          <path id="Path_7000" data-name="Path 7000" d="M88.216,171.525l-8.813.9-9.728-5.478c3.177-1.839,6.077-2.144,8.28-1.171l.005.006,1.044.6Z" transform="translate(-44.546 -165.234)" fill="#3397ff"/>
          <path id="Path_7001" data-name="Path 7001" d="M48.649,222.87l-9.024-5.052-.583-.329-.023-.012a2.879,2.879,0,0,1-.612-.629,4.9,4.9,0,0,1-.784-2.883l5.8,3.264,3.938,2.214Z" transform="translate(-37.624 -175.758)" fill="#0064cc"/>
          <path id="Path_7002" data-name="Path 7002" d="M94.181,182.555c0,.275-.016.557-.031.832v.038h-.008c-.368,4.791-3.716,10.3-7.8,12.663-.016.008-.024.008-.031.015l-8.381,4.837-2.7,1.561a.169.169,0,0,0-.063.038c-.024.008-.047.024-.071.031l-5.386,3.1L61.6,210.366l-5.8,3.347a5.3,5.3,0,0,1-2.36.776,2.847,2.847,0,0,1-2.619-1.175,4.867,4.867,0,0,1-.784-2.885,12.719,12.719,0,0,1,5.763-9.942c.2-.109.376-.2.565-.29a18.268,18.268,0,0,1,2.713-5.465A14.854,14.854,0,0,1,63.3,190.7c1.615-6.681,6.319-13.565,11.87-16.771a12.172,12.172,0,0,1,4.618-1.646,6.47,6.47,0,0,1,4.822,1.176,7.409,7.409,0,0,1,2.611,4.172c2.046-.917,3.857-.793,5.12.2a5.292,5.292,0,0,1,1.8,3.857h.008v.071C94.165,182.022,94.181,182.281,94.181,182.555Z" transform="translate(-40.305 -166.743)" fill="url(#linear-gradient)"/>
          <path id="Path_7003" data-name="Path 7003" d="M90.4,177.973,72.9,206.017l-8.107,4.689,23-36.905A7.409,7.409,0,0,1,90.4,177.973Z" transform="translate(-43.491 -167.084)" fill="#1a1a1a" style="mix-blend-mode: screen;isolation: isolate"/>
          <path id="Path_7004" data-name="Path 7004" d="M79.786,172.3l-26.344,42.2a2.848,2.848,0,0,1-2.619-1.175,4.867,4.867,0,0,1-.784-2.885A12.719,12.719,0,0,1,55.8,200.5c.2-.109.376-.2.565-.29a18.269,18.269,0,0,1,2.713-5.465,14.854,14.854,0,0,1,4.218-4.029c1.615-6.681,6.319-13.565,11.87-16.771A12.172,12.172,0,0,1,79.786,172.3Z" transform="translate(-40.305 -166.76)" fill="#1a1a1a" style="mix-blend-mode: screen;isolation: isolate"/>
          <path id="Path_7005" data-name="Path 7005" d="M101.863,184.1c0,.275-.016.557-.031.832v.038h-.008c-.368,4.791-3.716,10.3-7.8,12.663-.016.008-.024.008-.031.015l-8.381,4.837,14.411-23.1a5.292,5.292,0,0,1,1.8,3.857h.008v.071C101.847,183.568,101.863,183.827,101.863,184.1Z" transform="translate(-47.987 -168.289)" fill="#1a1a1a" style="mix-blend-mode: screen;isolation: isolate"/>
        </g>
        <g id="Group_2148" data-name="Group 2148" transform="translate(27.674 7.972)">
          <g id="Group_2146" data-name="Group 2146" transform="translate(0 4.369)">
            <path id="Path_7006" data-name="Path 7006" d="M76.422,185.785l-.968.558-2.532,1.465v19.033l11.833-6.829V180.974Zm7.365,13.674-9.9,5.718V188.356l1.564-.9.968-.558,7.365-4.253Z" transform="translate(-72.921 -180.974)" fill="#80beff"/>
          </g>
          <g id="Group_2147" data-name="Group 2147" transform="translate(2.532)">
            <path id="Path_7007" data-name="Path 7007" d="M76.151,182.237v4.014l.968-.558v-2.909l9.9-5.718v16.821l-1.565.9-.968.564v1.105l.968-.558,2.532-1.465V175.4Z" transform="translate(-76.151 -175.402)" fill="#80beff"/>
          </g>
          <path id="Path_7008" data-name="Path 7008" d="M74.871,191.11,83.726,186v-.739l-8.854,5.112Z" transform="translate(-73.342 -177.531)" fill="#80beff"/>
          <path id="Path_7009" data-name="Path 7009" d="M74.871,192.99l8.854-5.112v-.739l-8.854,5.112Z" transform="translate(-73.342 -177.937)" fill="#80beff"/>
          <path id="Path_7010" data-name="Path 7010" d="M74.871,194.871l8.854-5.112v-.739l-8.854,5.112Z" transform="translate(-73.342 -178.343)" fill="#80beff"/>
          <path id="Path_7011" data-name="Path 7011" d="M74.871,196.752l8.854-5.112V190.9l-8.854,5.112Z" transform="translate(-73.342 -178.749)" fill="#80beff"/>
          <path id="Path_7012" data-name="Path 7012" d="M74.871,198.633l8.854-5.112v-.739l-8.854,5.112Z" transform="translate(-73.342 -179.155)" fill="#80beff"/>
          <path id="Path_7013" data-name="Path 7013" d="M74.871,200.514l8.854-5.112v-.739l-8.854,5.112Z" transform="translate(-73.342 -179.562)" fill="#80beff"/>
          <path id="Path_7014" data-name="Path 7014" d="M74.871,202.395l8.854-5.112v-.739l-8.854,5.112Z" transform="translate(-73.342 -179.968)" fill="#80beff"/>
          <path id="Path_7015" data-name="Path 7015" d="M74.871,204.276l8.854-5.112v-.739l-8.854,5.112Z" transform="translate(-73.342 -180.374)" fill="#80beff"/>
          <path id="Path_7016" data-name="Path 7016" d="M74.871,206.157l8.854-5.112v-.739l-8.854,5.112Z" transform="translate(-73.342 -180.78)" fill="#80beff"/>
          <path id="Path_7017" data-name="Path 7017" d="M74.871,208.038l8.854-5.112v-.739L74.871,207.3Z" transform="translate(-73.342 -181.187)" fill="#80beff"/>
        </g>
      </g>
      <g id="Group_2151" data-name="Group 2151" transform="translate(0 5.132)">
        <path id="Path_7018" data-name="Path 7018" d="M48.47,149.193l-.1.89c-.023.186-.186,1.4-.558,3.313v0c-.053.268-.112.551-.176.848-.082.406-.171.838-.271,1.292-1.437,6.452-4.661,17.4-11.214,26.22l-.089.119-.808,1.087-.9-.171c-.008,0-.015,0-.023,0a9.445,9.445,0,0,1-1.4-.38h0a9.158,9.158,0,0,1-1.3-.558,10.276,10.276,0,0,1-1.392-.845c-6.325-4.512-8.019-15.242-8.1-15.781l-.112-.745,1.229-2.465,1.15-.093a6.207,6.207,0,0,0,2.67-.89,14.545,14.545,0,0,0,6.113-8.31l.4-1.4,3.332-1.925.4.942a3.363,3.363,0,0,0,2.086,2,3.515,3.515,0,0,0,1.425.133c.056,0,.112-.007.168-.015a6.357,6.357,0,0,0,2.438-.871,11.337,11.337,0,0,0,2.666-2.193l1.139-1.243Z" transform="translate(-22.022 -148.15)" fill="#52b529"/>
        <path id="Path_7019" data-name="Path 7019" d="M37.647,154.423l-1.068,5.1-3.165,3.957-4.1,2.186-2.006-.551-3.723-2.227,1.15-.093a6.207,6.207,0,0,0,2.67-.89,14.545,14.545,0,0,0,6.113-8.31l.4-1.4Z" transform="translate(-22.36 -149.024)" fill="#c1c1c1"/>
        <path id="Path_7020" data-name="Path 7020" d="M34.714,187.634v.6l-3.087-1.88-1.392-.845c-6.325-4.512-8.019-15.242-8.1-15.781l-.112-.745,3.723,2.227,3.124,8.931,3.537,5.4,1.928,1.754Z" transform="translate(-22.022 -152.649)" fill="#5b5b5b"/>
        <path id="Path_7021" data-name="Path 7021" d="M56.093,150.377,55,152.923l-2.238,1.325-.394.235-2.364,1.24-3.69-1.646-.358-1.6-.19-.848.358.833a6.357,6.357,0,0,0,2.438-.871,11.337,11.337,0,0,0,2.666-2.193l1.139-1.243Z" transform="translate(-27.151 -148.15)" fill="#c1c1c1"/>
        <path id="Path_7022" data-name="Path 7022" d="M53.218,152.033l-.1.889c-.1.753-2.479,18.571-12.218,31.679l-.9,1.207-.9-.172a10.679,10.679,0,0,1-5.149-2.61h0c-5.48-4.873-6.991-14.452-7.07-14.959l-.111-.744L28,164.858l1.15-.093a6.184,6.184,0,0,0,2.669-.89,14.533,14.533,0,0,0,6.113-8.309l.4-1.4,2.1-1.21,1.236-.715.358.833.045.108c1,2.327,3.4,2.815,6.117,1.247.22-.127.435-.264.652-.413v0a11.825,11.825,0,0,0,2.014-1.776l1.139-1.243Z" transform="translate(-23.048 -148.763)" fill="#828282"/>
        <path id="Path_7023" data-name="Path 7023" d="M52,154.252a68.979,68.979,0,0,1-1.359,6.869,82.606,82.606,0,0,1-3.224,10.257,55.8,55.8,0,0,1-6.943,12.908,9.468,9.468,0,0,1-1-.25A9.6,9.6,0,0,1,37,182.859a11.818,11.818,0,0,1-1.98-1.653,17.8,17.8,0,0,1-2.774-3.857A26,26,0,0,1,31.1,174.94a33.434,33.434,0,0,1-1.169-3.247,32.771,32.771,0,0,1-.982-4.132l.011-.027a7.721,7.721,0,0,0,3.332-1.109,12.543,12.543,0,0,0,1.675-1.165A19.105,19.105,0,0,0,39.9,156.08l.566-.328.566-.327a4.505,4.505,0,0,0,1.229,1.712,3.933,3.933,0,0,0,2.085.924,6.914,6.914,0,0,0,4.3-1.084,14.113,14.113,0,0,0,3.194-2.591c.049-.049.093-.1.138-.145Z" transform="translate(-23.517 -149.465)" fill="#7fb50a"/>
        <g id="Group_2150" data-name="Group 2150" transform="translate(9.006 4.775)">
          <path id="Path_7024" data-name="Path 7024" d="M44.55,156.144c-.067-.127-.133-.256-.192-.393l-.041.023C44.39,155.9,44.469,156.025,44.55,156.144Z" transform="translate(-35.843 -154.566)" fill="#e2e2e2"/>
          <path id="Path_7025" data-name="Path 7025" d="M52.97,154.24q-.207.226-.42.442c-.608,3.77-3.382,18.336-11.388,29.11-3.432-.655-5.9-3.118-7.652-5.959,1.765,3.045,4.318,5.759,7.947,6.452,9.27-12.474,11.526-30.033,11.526-30.033Z" transform="translate(-33.509 -154.24)" fill="#e2e2e2"/>
        </g>
        <path id="Path_7026" data-name="Path 7026" d="M43.826,151.968l-1.236.715-2.1,1.21-3.723-2.226,3.332-1.925Z" transform="translate(-25.207 -148.494)" fill="#e2e2e2"/>
        <path id="Path_7027" data-name="Path 7027" d="M25.744,170.53,22.022,168.3l1.229-2.465,3.724,2.226Z" transform="translate(-22.022 -151.97)" fill="#a3a0a0"/>
        <path id="Path_7028" data-name="Path 7028" d="M45.619,166.71l-.225.131V162.9a.642.642,0,0,0-.962-.557l-3.87,2.234a.952.952,0,0,0-.48.829v4.532l-.359.209a1.379,1.379,0,0,0-.685,1.192v5.607a.767.767,0,0,0,1.153.663l5.9-3.433a1.379,1.379,0,0,0,.685-1.192v-5.607A.766.766,0,0,0,45.619,166.71Zm-2.881,7.3.236-2.1-.047-.063a.946.946,0,0,1-.139-.535.53.53,0,0,1,.013-.076l0-.008a1.3,1.3,0,0,1,.177-.356l0,0,0,0a.66.66,0,0,1,.425-.251c.3-.019.478.318.394.754a1.386,1.386,0,0,1-.12.341l.368,1.545Zm1.966-6.769-3.93,2.288v-3.868a.719.719,0,0,1,.359-.623l3.185-1.837a.258.258,0,0,1,.386.224Z" transform="translate(-25.697 -151.196)" fill="#486900"/>
        <path id="Path_7029" data-name="Path 7029" d="M46.115,166.914l-.225.131V163.1a.642.642,0,0,0-.962-.557l-3.87,2.235a.954.954,0,0,0-.48.829v4.531l-.359.209a1.379,1.379,0,0,0-.685,1.192v5.607a.766.766,0,0,0,1.153.663l5.9-3.433a1.379,1.379,0,0,0,.685-1.192v-5.607A.767.767,0,0,0,46.115,166.914Zm-2.881,7.3.236-2.1-.046-.063a.944.944,0,0,1-.139-.535.416.416,0,0,1,.013-.076l0-.009a1.3,1.3,0,0,1,.176-.356l0,0,0,0a.659.659,0,0,1,.425-.25c.3-.02.478.318.394.753a1.325,1.325,0,0,1-.12.341l.368,1.546Zm1.966-6.769-3.93,2.288v-3.868a.722.722,0,0,1,.358-.624l3.185-1.836a.258.258,0,0,1,.387.223Z" transform="translate(-25.804 -151.24)" fill="#c5ff47"/>
        <path id="Path_7030" data-name="Path 7030" d="M42.535,157.463l-11.169,17.8A33.43,33.43,0,0,1,30.2,172.02l4.036-6.433a19.105,19.105,0,0,0,5.941-9.181l.566-.328.566-.327A4.5,4.5,0,0,0,42.535,157.463Z" transform="translate(-23.788 -149.792)" fill="#4d4d4d" style="mix-blend-mode: screen;isolation: isolate"/>
        <path id="Path_7031" data-name="Path 7031" d="M52.858,163.016a82.606,82.606,0,0,1-3.224,10.257L41.692,185.93a9.6,9.6,0,0,1-2.468-1.176Z" transform="translate(-25.737 -151.361)" fill="#4d4d4d" style="mix-blend-mode: screen;isolation: isolate"/>
        <path id="Path_7032" data-name="Path 7032" d="M52.758,154.426l-16.824,26.82a17.8,17.8,0,0,1-2.774-3.857L45.26,158.1a6.914,6.914,0,0,0,4.3-1.084A14.113,14.113,0,0,0,52.758,154.426Z" transform="translate(-24.427 -149.505)" fill="#4d4d4d" style="mix-blend-mode: screen;isolation: isolate"/>
      </g>
      <g id="Group_2153" data-name="Group 2153" transform="translate(49.167)">
        <path id="Path_7033" data-name="Path 7033" d="M101.618,142.269l-.064.568c-.014.118-.118.891-.356,2.115v0c-.034.171-.071.352-.112.542-.052.26-.109.535-.173.825-.917,4.119-2.976,11.11-7.159,16.741l-.057.076-.516.694-.573-.109-.014,0a6.119,6.119,0,0,1-.9-.242h0a5.952,5.952,0,0,1-.83-.357,6.616,6.616,0,0,1-.888-.539c-4.039-2.881-5.121-9.731-5.172-10.076l-.071-.476.784-1.574.735-.059a3.959,3.959,0,0,0,1.7-.568,9.285,9.285,0,0,0,3.9-5.306l.256-.9,2.127-1.229.257.6a2.144,2.144,0,0,0,1.331,1.276,2.24,2.24,0,0,0,.91.085c.036,0,.071,0,.107-.009A4.078,4.078,0,0,0,98.4,143.8a7.25,7.25,0,0,0,1.7-1.4l.728-.793Z" transform="translate(-84.733 -141.604)" fill="#52b529"/>
        <path id="Path_7034" data-name="Path 7034" d="M94.709,145.607l-.683,3.259-2.02,2.526-2.615,1.4-1.281-.352-2.377-1.421.735-.059a3.959,3.959,0,0,0,1.7-.568,9.285,9.285,0,0,0,3.9-5.306l.256-.9Z" transform="translate(-84.949 -142.162)" fill="#c1c1c1"/>
        <path id="Path_7035" data-name="Path 7035" d="M92.836,166.812v.383l-1.971-1.2-.888-.539c-4.039-2.881-5.121-9.731-5.172-10.076l-.071-.476,2.376,1.421,1.995,5.7,2.258,3.447,1.231,1.12Z" transform="translate(-84.733 -144.476)" fill="#5b5b5b"/>
        <path id="Path_7036" data-name="Path 7036" d="M106.485,143.025l-.7,1.625-1.429.846-.252.15-1.509.792-2.356-1.051-.228-1.025-.121-.542.228.532a4.078,4.078,0,0,0,1.557-.556,7.25,7.25,0,0,0,1.7-1.4l.728-.793Z" transform="translate(-88.007 -141.604)" fill="#c1c1c1"/>
        <path id="Path_7037" data-name="Path 7037" d="M104.65,144.082l-.064.568c-.062.48-1.583,11.856-7.8,20.225l-.572.77-.573-.109a6.815,6.815,0,0,1-3.287-1.666h0c-3.5-3.112-4.464-9.227-4.514-9.55l-.071-.476.785-1.574.735-.06a3.943,3.943,0,0,0,1.7-.568,9.281,9.281,0,0,0,3.9-5.306l.257-.9,1.338-.772.79-.456.228.532.028.069c.637,1.486,2.168,1.8,3.905.8.14-.081.278-.169.416-.264v0a7.557,7.557,0,0,0,1.286-1.134l.728-.793Z" transform="translate(-85.387 -141.996)" fill="#828282"/>
        <path id="Path_7038" data-name="Path 7038" d="M103.87,145.5a44.013,44.013,0,0,1-.868,4.385,52.681,52.681,0,0,1-2.058,6.548,35.644,35.644,0,0,1-4.433,8.241,5.962,5.962,0,0,1-.637-.159,6.142,6.142,0,0,1-1.576-.751,7.556,7.556,0,0,1-1.265-1.055,11.351,11.351,0,0,1-1.77-2.463,16.531,16.531,0,0,1-.737-1.537,21.327,21.327,0,0,1-.746-2.073A20.888,20.888,0,0,1,89.152,154l.007-.016a4.94,4.94,0,0,0,2.127-.709,7.9,7.9,0,0,0,1.069-.744,12.2,12.2,0,0,0,3.794-5.861l.361-.209.361-.209a2.875,2.875,0,0,0,.785,1.093,2.508,2.508,0,0,0,1.331.59,4.405,4.405,0,0,0,2.747-.692,8.993,8.993,0,0,0,2.039-1.654c.031-.031.06-.062.088-.093Z" transform="translate(-85.687 -142.444)" fill="#fe0000"/>
        <path id="Path_7039" data-name="Path 7039" d="M101.469,149.2l-2.489,1.437a.613.613,0,0,0-.308.533V153.9l-3.187,1.856a.887.887,0,0,0-.441.767v3.6a.493.493,0,0,0,.741.427l3.791-2.207a.887.887,0,0,0,.441-.767v-3.6a.493.493,0,0,0-.741-.426l-.159.093v-2.308a.464.464,0,0,1,.231-.4l2.048-1.182a.166.166,0,0,1,.249.144v2.76l.009-.005.435-.25v-2.845A.413.413,0,0,0,101.469,149.2Zm-4.046,8.948.152-1.352-.03-.041a.6.6,0,0,1-.089-.344.261.261,0,0,1,.008-.049l0-.005a.823.823,0,0,1,.114-.229v0l0,0a.424.424,0,0,1,.274-.161c.194-.013.307.2.253.485a.879.879,0,0,1-.077.22l.237.993Z" transform="translate(-86.96 -143.232)" fill="#960000"/>
        <path id="Path_7040" data-name="Path 7040" d="M101.794,149.33l-2.489,1.436A.614.614,0,0,0,99,151.3v2.735l-3.187,1.856a.885.885,0,0,0-.441.766v3.605a.493.493,0,0,0,.741.426l3.791-2.207a.886.886,0,0,0,.441-.766v-3.6a.493.493,0,0,0-.741-.427l-.158.093v-2.307a.463.463,0,0,1,.231-.4l2.047-1.181a.166.166,0,0,1,.249.144v2.76l.009-.006.435-.249v-2.845A.413.413,0,0,0,101.794,149.33Zm-4.046,8.947.152-1.352-.03-.041a.6.6,0,0,1-.089-.343.33.33,0,0,1,.008-.049l0-.006a.851.851,0,0,1,.114-.228l0,0h0a.422.422,0,0,1,.273-.162c.194-.013.307.2.253.485a.828.828,0,0,1-.077.22l.237.994Z" transform="translate(-87.03 -143.26)" fill="#ff7373"/>
        <g id="Group_2152" data-name="Group 2152" transform="translate(5.75 3.048)">
          <path id="Path_7041" data-name="Path 7041" d="M99.116,146.707c-.043-.082-.085-.163-.123-.251l-.026.015C99.013,146.553,99.063,146.631,99.116,146.707Z" transform="translate(-93.556 -145.699)" fill="#e2e2e2"/>
          <path id="Path_7042" data-name="Path 7042" d="M104.491,145.491q-.132.145-.268.282c-.387,2.408-2.159,11.707-7.27,18.586a7.591,7.591,0,0,1-4.886-3.8,7.792,7.792,0,0,0,5.074,4.119c5.918-7.964,7.359-19.175,7.359-19.175Z" transform="translate(-92.066 -145.491)" fill="#e2e2e2"/>
        </g>
        <path id="Path_7043" data-name="Path 7043" d="M98.653,144.04l-.789.456-1.338.773-2.377-1.421,2.127-1.229Z" transform="translate(-86.766 -141.823)" fill="#e2e2e2"/>
        <path id="Path_7044" data-name="Path 7044" d="M87.109,155.892l-2.376-1.422.784-1.573,2.377,1.421Z" transform="translate(-84.733 -144.043)" fill="#a3a0a0"/>
        <path id="Path_7045" data-name="Path 7045" d="M97.829,147.549,90.7,158.916a21.323,21.323,0,0,1-.746-2.073l2.576-4.108a12.2,12.2,0,0,0,3.794-5.861l.361-.209.361-.209A2.875,2.875,0,0,0,97.829,147.549Z" transform="translate(-85.86 -142.652)" fill="#4d4d4d" style="mix-blend-mode: screen;isolation: isolate"/>
        <path id="Path_7046" data-name="Path 7046" d="M104.419,151.094a52.683,52.683,0,0,1-2.058,6.548l-5.07,8.082a6.141,6.141,0,0,1-1.576-.751Z" transform="translate(-87.104 -143.654)" fill="#4d4d4d" style="mix-blend-mode: screen;isolation: isolate"/>
        <path id="Path_7047" data-name="Path 7047" d="M104.356,145.61,93.614,162.733a11.351,11.351,0,0,1-1.77-2.463l7.725-12.315a4.405,4.405,0,0,0,2.747-.692A8.991,8.991,0,0,0,104.356,145.61Z" transform="translate(-86.268 -142.469)" fill="#4d4d4d" style="mix-blend-mode: screen;isolation: isolate"/>
      </g>
    </g>
  </g>
</svg>
