<svg id="Component_1_1" data-name="Component 1 – 1" xmlns="http://www.w3.org/2000/svg" xmlns:xlink="http://www.w3.org/1999/xlink" width="81.061" height="95.96" viewBox="0 0 81.061 95.96">
  <defs>
    <linearGradient id="linear-gradient" x1="75.892" y1="0.5" x2="76.892" y2="0.5" gradientUnits="objectBoundingBox">
      <stop offset="0.13" stop-color="#13161a"/>
      <stop offset="0.137" stop-color="#232d39"/>
      <stop offset="0.469" stop-color="#232d39"/>
      <stop offset="0.476" stop-color="#2d3c48"/>
      <stop offset="0.876" stop-color="#2d3c48"/>
      <stop offset="0.879" stop-color="#232d39"/>
    </linearGradient>
    <linearGradient id="linear-gradient-2" x1="83.855" y1="0.5" x2="84.855" y2="0.5" gradientUnits="objectBoundingBox">
      <stop offset="0.13" stop-color="#13161a"/>
      <stop offset="0.137" stop-color="#181e27"/>
      <stop offset="0.469" stop-color="#181e27"/>
      <stop offset="0.476" stop-color="#212d36"/>
      <stop offset="0.876" stop-color="#212d36"/>
      <stop offset="0.879" stop-color="#181e27"/>
    </linearGradient>
    <linearGradient id="linear-gradient-4" x1="83.855" y1="0.5" x2="84.855" y2="0.5" xlink:href="#linear-gradient-2"/>
    <linearGradient id="linear-gradient-5" x1="75.864" y1="0.5" x2="76.863" y2="0.5" xlink:href="#linear-gradient"/>
    <linearGradient id="linear-gradient-6" x1="83.856" y1="0.5" x2="84.856" y2="0.5" xlink:href="#linear-gradient-2"/>
    <linearGradient id="linear-gradient-8" x1="83.856" y1="0.5" x2="84.856" y2="0.5" xlink:href="#linear-gradient-2"/>
    <linearGradient id="linear-gradient-9" x1="110.827" y1="0.5" x2="111.828" y2="0.5" xlink:href="#linear-gradient"/>
    <linearGradient id="linear-gradient-10" x1="110.767" y1="0.5" x2="111.767" y2="0.5" xlink:href="#linear-gradient"/>
    <linearGradient id="linear-gradient-11" x1="38.828" y1="0.5" x2="39.828" y2="0.5" xlink:href="#linear-gradient"/>
    <linearGradient id="linear-gradient-12" x1="38.828" y1="0.5" x2="39.828" y2="0.5" xlink:href="#linear-gradient"/>
    <linearGradient id="linear-gradient-13" x1="38.836" y1="0.5" x2="39.836" y2="0.5" xlink:href="#linear-gradient"/>
    <radialGradient id="radial-gradient" cx="0.571" cy="0.228" r="0.492" gradientTransform="matrix(-1.378, 0, 0, 1, -33.484, 0)" gradientUnits="objectBoundingBox">
      <stop offset="0" stop-color="#fff70e"/>
      <stop offset="1" stop-color="#b5af0a"/>
    </radialGradient>
    <radialGradient id="radial-gradient-2" cx="0.571" cy="0.228" r="0.492" gradientTransform="matrix(-1.377, 0, 0, 1, -42.3, 0)" xlink:href="#radial-gradient"/>
    <radialGradient id="radial-gradient-3" cx="0.571" cy="0.228" r="0.492" gradientTransform="matrix(-1.379, 0, 0, 1, -51.193, 0)" xlink:href="#radial-gradient"/>
    <radialGradient id="radial-gradient-4" cx="0.571" cy="0.228" r="0.492" gradientTransform="matrix(-1.379, 0, 0, 1, -59.182, 0)" xlink:href="#radial-gradient"/>
    <radialGradient id="radial-gradient-5" cx="0.571" cy="0.228" r="0.492" gradientTransform="matrix(-1.378, 0, 0, 1, -67.998, 0)" xlink:href="#radial-gradient"/>
    <radialGradient id="radial-gradient-6" cx="0.571" cy="0.228" r="0.492" gradientTransform="matrix(-1.378, 0, 0, 1, -76.839, 0)" xlink:href="#radial-gradient"/>
    <radialGradient id="radial-gradient-7" cx="0.571" cy="0.228" r="0.492" gradientTransform="matrix(-1.377, 0, 0, 1, -84.602, 0)" xlink:href="#radial-gradient"/>
    <radialGradient id="radial-gradient-8" cx="0.571" cy="0.228" r="0.492" gradientTransform="matrix(-1.378, 0, 0, 1, -93.501, 0)" xlink:href="#radial-gradient"/>
    <radialGradient id="radial-gradient-9" cx="0.571" cy="0.228" r="0.492" gradientTransform="matrix(-1.379, 0, 0, 1, -102.388, 0)" xlink:href="#radial-gradient"/>
    <radialGradient id="radial-gradient-10" cx="0.571" cy="0.228" r="0.492" gradientTransform="matrix(-1.379, 0, 0, 1, -110.667, 0)" xlink:href="#radial-gradient"/>
    <radialGradient id="radial-gradient-11" cx="0.571" cy="0.228" r="0.492" gradientTransform="matrix(-1.379, 0, 0, 1, -119.513, 0)" xlink:href="#radial-gradient"/>
    <radialGradient id="radial-gradient-12" cx="0.571" cy="0.228" r="0.492" gradientTransform="matrix(-1.377, 0, 0, 1, -128.224, 0)" xlink:href="#radial-gradient"/>
    <radialGradient id="radial-gradient-13" cx="0.571" cy="0.228" r="0.492" gradientTransform="matrix(-1.379, 0, 0, 1, -136.643, 0)" xlink:href="#radial-gradient"/>
    <radialGradient id="radial-gradient-14" cx="0.571" cy="0.228" r="0.492" gradientTransform="matrix(-1.378, 0, 0, 1, -145.399, 0)" xlink:href="#radial-gradient"/>
    <radialGradient id="radial-gradient-15" cx="0.571" cy="0.228" r="0.492" gradientTransform="matrix(-1.378, 0, 0, 1, -154.265, 0)" xlink:href="#radial-gradient"/>
  </defs>
  <g id="Group_2190" data-name="Group 2190" transform="translate(-139.159 -331.774)">
    <path id="Path_7048" data-name="Path 7048" d="M219.508,404.156a3.635,3.635,0,0,1-.573.411L179.9,426.991a8.291,8.291,0,0,1-7.45-.307l-31.473-18.273c-1.836-1.058-2.308-2.571-1.308-3.685a3.156,3.156,0,0,1,.775-.613l39.031-22.428a8.271,8.271,0,0,1,7.446.311L218.4,400.265C220.347,401.395,220.759,403.03,219.508,404.156Z" fill="#ccc" style="mix-blend-mode: multiply;isolation: isolate"/>
    <g id="Group_2158" data-name="Group 2158">
      <g id="Group_2157" data-name="Group 2157">
        <path id="Path_7049" data-name="Path 7049" d="M189.631,373.042v7.591a.351.351,0,0,1-.009.085c-.072.383-.648.68-1.343.68a2.271,2.271,0,0,1-.421-.038c-.493-.091-.861-.336-.922-.638a.5.5,0,0,1-.009-.087l0-7.35v-.239h.332l.6,0,1.439,0Z" fill="url(#linear-gradient)"/>
      </g>
      <path id="Path_7050" data-name="Path 7050" d="M189.631,373.042a.423.423,0,0,1-.047.2.953.953,0,0,1-.563.444,2.155,2.155,0,0,1-.742.127,2.361,2.361,0,0,1-.421-.038,1.77,1.77,0,0,1-.321-.089.97.97,0,0,1-.565-.442.44.44,0,0,1-.047-.194c0-.34.391-.627.933-.729a2.268,2.268,0,0,1,.419-.038C189.025,372.279,189.631,372.621,189.631,373.042Z" fill="#43566c"/>
    </g>
    <g id="Group_2160" data-name="Group 2160">
      <g id="Group_2159" data-name="Group 2159">
        <path id="Path_7051" data-name="Path 7051" d="M189.5,372.277v.694a.289.289,0,0,1-.009.077c-.065.347-.586.615-1.215.615a2.117,2.117,0,0,1-.381-.034c-.446-.082-.779-.3-.834-.578a.4.4,0,0,1-.009-.078v-.692h.3l.544,0,1.3,0Z" fill="url(#linear-gradient-2)"/>
      </g>
      <path id="Path_7052" data-name="Path 7052" d="M189.5,372.277a.383.383,0,0,1-.043.178.868.868,0,0,1-.509.4,1.966,1.966,0,0,1-.672.114,2.117,2.117,0,0,1-.381-.034,1.651,1.651,0,0,1-.291-.08.884.884,0,0,1-.511-.4.406.406,0,0,1-.042-.176c0-.308.353-.568.844-.66a2.112,2.112,0,0,1,.379-.034C188.954,371.587,189.5,371.9,189.5,372.277Z" fill="#38475a"/>
    </g>
    <g id="Group_2162" data-name="Group 2162">
      <g id="Group_2161" data-name="Group 2161">
        <path id="Path_7053" data-name="Path 7053" d="M189.631,355.285v17a.351.351,0,0,1-.009.085c-.072.383-.648.68-1.343.68a2.274,2.274,0,0,1-.421-.038c-.493-.09-.861-.336-.922-.638a.493.493,0,0,1-.009-.087l0-16.754v-.24h.332l.6,0,1.439,0Z" fill="url(#linear-gradient)"/>
      </g>
      <path id="Path_7054" data-name="Path 7054" d="M189.631,355.285a.429.429,0,0,1-.047.2.952.952,0,0,1-.563.443,2.131,2.131,0,0,1-.742.127,2.274,2.274,0,0,1-.421-.038,1.768,1.768,0,0,1-.321-.089.968.968,0,0,1-.565-.441.448.448,0,0,1-.047-.2c0-.34.391-.627.933-.729a2.268,2.268,0,0,1,.419-.038C189.025,354.522,189.631,354.864,189.631,355.285Z" fill="#43566c"/>
    </g>
    <g id="Group_2164" data-name="Group 2164">
      <g id="Group_2163" data-name="Group 2163">
        <path id="Path_7055" data-name="Path 7055" d="M189.5,354.474v.693a.285.285,0,0,1-.009.077c-.065.347-.586.616-1.215.616a2.031,2.031,0,0,1-.381-.035c-.446-.082-.779-.3-.834-.577a.407.407,0,0,1-.009-.079v-.692h.3l.544,0H189.5Z" fill="url(#linear-gradient-4)"/>
      </g>
      <path id="Path_7056" data-name="Path 7056" d="M189.5,354.474a.382.382,0,0,1-.043.177.86.86,0,0,1-.509.4,1.943,1.943,0,0,1-.672.114,2.03,2.03,0,0,1-.381-.034,1.648,1.648,0,0,1-.291-.08.877.877,0,0,1-.511-.4.4.4,0,0,1-.042-.176c0-.308.353-.567.844-.66a2.114,2.114,0,0,1,.379-.034C188.954,353.783,189.5,354.093,189.5,354.474Z" fill="#38475a"/>
    </g>
    <g id="Group_2166" data-name="Group 2166">
      <g id="Group_2165" data-name="Group 2165">
        <path id="Path_7057" data-name="Path 7057" d="M152.893,394.242v7.591a.308.308,0,0,1-.01.085c-.071.383-.648.68-1.343.68a2.281,2.281,0,0,1-.421-.038c-.493-.091-.861-.336-.921-.638a.414.414,0,0,1-.01-.087l0-7.349v-.24h.333l.6,0,1.439,0Z" fill="url(#linear-gradient-5)"/>
      </g>
      <path id="Path_7058" data-name="Path 7058" d="M152.893,394.242a.418.418,0,0,1-.048.2.956.956,0,0,1-.562.443,2.141,2.141,0,0,1-.743.127,2.281,2.281,0,0,1-.421-.038,1.791,1.791,0,0,1-.321-.089.97.97,0,0,1-.564-.442.428.428,0,0,1-.048-.194c0-.34.391-.627.933-.729a2.279,2.279,0,0,1,.42-.038C152.286,393.479,152.893,393.821,152.893,394.242Z" fill="#43566c"/>
    </g>
    <g id="Group_2168" data-name="Group 2168">
      <g id="Group_2167" data-name="Group 2167">
        <path id="Path_7059" data-name="Path 7059" d="M152.764,393.477v.694a.336.336,0,0,1-.008.077c-.065.347-.587.615-1.216.615a2.032,2.032,0,0,1-.381-.034c-.446-.082-.779-.3-.834-.577a.416.416,0,0,1-.008-.079l0-.475v-.217h.3l.543,0,1.3,0Z" fill="url(#linear-gradient-6)"/>
      </g>
      <path id="Path_7060" data-name="Path 7060" d="M152.764,393.477a.383.383,0,0,1-.043.178.857.857,0,0,1-.509.4,1.943,1.943,0,0,1-.672.114,2.117,2.117,0,0,1-.381-.034,1.636,1.636,0,0,1-.29-.08.874.874,0,0,1-.511-.4.394.394,0,0,1-.043-.176c0-.308.354-.568.844-.66a2.114,2.114,0,0,1,.38-.034C152.215,392.787,152.764,393.1,152.764,393.477Z" fill="#38475a"/>
    </g>
    <g id="Group_2170" data-name="Group 2170">
      <g id="Group_2169" data-name="Group 2169">
        <path id="Path_7061" data-name="Path 7061" d="M152.893,376.485v17a.3.3,0,0,1-.01.085c-.071.384-.648.68-1.343.68a2.281,2.281,0,0,1-.421-.038c-.493-.09-.861-.336-.921-.638a.415.415,0,0,1-.01-.087l0-16.754v-.24h.333l.6,0,1.439,0Z" fill="url(#linear-gradient-5)"/>
      </g>
      <path id="Path_7062" data-name="Path 7062" d="M152.893,376.485a.418.418,0,0,1-.048.2.954.954,0,0,1-.562.444,2.166,2.166,0,0,1-.743.126,2.279,2.279,0,0,1-.421-.038,1.793,1.793,0,0,1-.321-.088.97.97,0,0,1-.564-.442.435.435,0,0,1-.048-.195c0-.34.391-.627.933-.729a2.366,2.366,0,0,1,.42-.038C152.286,375.722,152.893,376.064,152.893,376.485Z" fill="#43566c"/>
    </g>
    <g id="Group_2172" data-name="Group 2172">
      <g id="Group_2171" data-name="Group 2171">
        <path id="Path_7063" data-name="Path 7063" d="M152.764,375.674v.694a.327.327,0,0,1-.008.076c-.065.347-.587.616-1.216.616a2.117,2.117,0,0,1-.381-.034c-.446-.083-.779-.3-.834-.578a.408.408,0,0,1-.008-.079l0-.475v-.217h.3l.543,0h1.605Z" fill="url(#linear-gradient-8)"/>
      </g>
      <path id="Path_7064" data-name="Path 7064" d="M152.764,375.674a.389.389,0,0,1-.043.178.86.86,0,0,1-.509.4,1.941,1.941,0,0,1-.672.115,2.031,2.031,0,0,1-.381-.035,1.557,1.557,0,0,1-.29-.08.873.873,0,0,1-.511-.4.388.388,0,0,1-.043-.176c0-.307.354-.567.844-.66a2.114,2.114,0,0,1,.38-.034C152.215,374.983,152.764,375.293,152.764,375.674Z" fill="#38475a"/>
    </g>
    <g id="Group_2174" data-name="Group 2174">
      <g id="Group_2173" data-name="Group 2173">
        <path id="Path_7065" data-name="Path 7065" d="M152.466,360.281v15.246a.234.234,0,0,1-.006.058c-.049.262-.444.465-.92.465a1.652,1.652,0,0,1-.288-.025c-.338-.063-.59-.231-.631-.438a.281.281,0,0,1-.007-.059V360.284h.227l.412,0h1.214Z" fill="url(#linear-gradient-9)"/>
      </g>
      <path id="Path_7066" data-name="Path 7066" d="M152.466,360.281a.292.292,0,0,1-.032.135.658.658,0,0,1-.385.3,1.487,1.487,0,0,1-.509.086,1.652,1.652,0,0,1-.288-.025,1.261,1.261,0,0,1-.22-.061.666.666,0,0,1-.387-.3.3.3,0,0,1-.032-.133c0-.233.268-.43.639-.5a1.649,1.649,0,0,1,.287-.025C152.051,359.759,152.466,359.993,152.466,360.281Z" fill="#43566c"/>
    </g>
    <g id="Group_2176" data-name="Group 2176">
      <g id="Group_2175" data-name="Group 2175">
        <path id="Path_7067" data-name="Path 7067" d="M189.205,339.141v15.245a.189.189,0,0,1-.007.058c-.049.263-.443.466-.919.466a1.577,1.577,0,0,1-.289-.026c-.337-.062-.589-.23-.631-.437a.3.3,0,0,1-.006-.06l0-15.079v-.165h1.854Z" fill="url(#linear-gradient-10)"/>
      </g>
      <path id="Path_7068" data-name="Path 7068" d="M189.205,339.141a.287.287,0,0,1-.032.134.654.654,0,0,1-.386.3,1.481,1.481,0,0,1-.508.087,1.577,1.577,0,0,1-.289-.026,1.2,1.2,0,0,1-.22-.061.663.663,0,0,1-.386-.3.294.294,0,0,1-.033-.133c0-.233.268-.429.639-.5a1.574,1.574,0,0,1,.288-.026C188.79,338.618,189.205,338.852,189.205,339.141Z" fill="#43566c"/>
    </g>
    <g id="Group_2178" data-name="Group 2178">
      <g id="Group_2177" data-name="Group 2177">
        <path id="Path_7069" data-name="Path 7069" d="M179.162,424.967v1a.635.635,0,0,1-.019.167c-.14.749-1.266,1.328-2.624,1.328a4.616,4.616,0,0,1-.823-.073c-.963-.178-1.683-.657-1.8-1.248a.859.859,0,0,1-.018-.17l0-.524v-.468h.65l1.173,0,2.812,0Z" fill="url(#linear-gradient-11)"/>
      </g>
      <path id="Path_7070" data-name="Path 7070" d="M179.162,424.967a.827.827,0,0,1-.093.384,1.859,1.859,0,0,1-1.1.867,4.207,4.207,0,0,1-1.451.248,4.522,4.522,0,0,1-.823-.074,3.478,3.478,0,0,1-.627-.174,1.891,1.891,0,0,1-1.1-.863.865.865,0,0,1-.092-.38c0-.665.764-1.226,1.823-1.425a4.516,4.516,0,0,1,.82-.074C177.977,423.476,179.162,424.144,179.162,424.967Z" fill="#43566c"/>
    </g>
    <g id="Group_2180" data-name="Group 2180">
      <g id="Group_2179" data-name="Group 2179">
        <path id="Path_7071" data-name="Path 7071" d="M220.035,401.907v1a.67.67,0,0,1-.018.166c-.141.749-1.266,1.329-2.624,1.329a4.517,4.517,0,0,1-.823-.074c-.964-.177-1.683-.657-1.8-1.248a.849.849,0,0,1-.019-.169l0-.524v-.469h.65l1.174,0,2.812,0Z" fill="url(#linear-gradient-12)"/>
      </g>
      <path id="Path_7072" data-name="Path 7072" d="M220.035,401.907a.823.823,0,0,1-.092.384,1.867,1.867,0,0,1-1.1.868,4.2,4.2,0,0,1-1.45.247,4.514,4.514,0,0,1-.823-.074,3.577,3.577,0,0,1-.628-.173,1.894,1.894,0,0,1-1.1-.864.863.863,0,0,1-.093-.38c0-.664.764-1.225,1.824-1.425a4.5,4.5,0,0,1,.819-.074C218.85,400.416,220.035,401.085,220.035,401.907Z" fill="#43566c"/>
    </g>
    <g id="Group_2182" data-name="Group 2182">
      <g id="Group_2181" data-name="Group 2181">
        <path id="Path_7073" data-name="Path 7073" d="M154.116,411.063v1a.631.631,0,0,1-.018.166c-.14.749-1.266,1.328-2.624,1.328a4.429,4.429,0,0,1-.823-.074c-.963-.177-1.683-.656-1.8-1.247a.859.859,0,0,1-.019-.17l0-.524v-.468h.649l1.174,0,2.812,0Z" fill="url(#linear-gradient-13)"/>
      </g>
      <path id="Path_7074" data-name="Path 7074" d="M154.116,411.063a.826.826,0,0,1-.092.384,1.859,1.859,0,0,1-1.1.867,4.2,4.2,0,0,1-1.45.248,4.514,4.514,0,0,1-.823-.074,3.457,3.457,0,0,1-.627-.174,1.892,1.892,0,0,1-1.1-.863.864.864,0,0,1-.092-.38c0-.665.764-1.226,1.823-1.425a4.5,4.5,0,0,1,.819-.074C152.932,409.572,154.116,410.24,154.116,411.063Z" fill="#43566c"/>
    </g>
    <path id="Path_7075" data-name="Path 7075" d="M220.21,392.728v8.862a2.3,2.3,0,0,1-1.275,1.667v-8.439Z" fill="#ccc"/>
    <path id="Path_7076" data-name="Path 7076" d="M179.9,417.238v8.435a8.278,8.278,0,0,1-7.447-.307v-8.439Z" fill="#ccc"/>
    <path id="Path_7077" data-name="Path 7077" d="M150.124,404.037v8.435c-1.328-.767-1.945-1.772-1.8-2.692l0-.024-.024-8.173Z" fill="#999"/>
    <path id="Path_7078" data-name="Path 7078" d="M219.508,394.4a3.7,3.7,0,0,1-.573.412l-5.1,2.93-15.1,8.677-5.952,3.418-9.121,5.243-3.754,2.155a8.291,8.291,0,0,1-7.45-.307l-11.8-6.817-10.529-6.078c-1.836-1.057-2.309-2.57-1.308-3.684a3.163,3.163,0,0,1,.775-.614l4.964-2.853,15.1-8.673,5.78-3.321,9.121-5.243,4.068-2.337a8.268,8.268,0,0,1,7.446.311l12.483,7.2,9.847,5.686C220.347,391.64,220.759,393.275,219.508,394.4Z" fill="#ebebeb"/>
    <path id="Path_7079" data-name="Path 7079" d="M218.933,394.811v8.437L179.9,425.675v-8.437Z" fill="#d9d9d9"/>
    <path id="Path_7080" data-name="Path 7080" d="M172.455,416.929v8.438l-22.33-12.895v-8.436Z" fill="#bfbfbf"/>
    <g id="Group_2183" data-name="Group 2183">
      <path id="Path_7081" data-name="Path 7081" d="M171.594,417.352V424.9l-21.558-12.461v-7.542Z" fill="#161c24"/>
      <path id="Path_7082" data-name="Path 7082" d="M150.423,404.649l-.387.244,21.558,12.459.387-.244Z" fill="#364557"/>
      <path id="Path_7083" data-name="Path 7083" d="M171.98,424.652l-.387.244v-7.544l.387-.244Z" fill="#2a3842"/>
    </g>
    <g id="Group_2184" data-name="Group 2184">
      <path id="Path_7084" data-name="Path 7084" d="M182.794,416.633v7.544l34.691-20v-7.542Z" fill="#2a3842"/>
      <path id="Path_7085" data-name="Path 7085" d="M217.1,396.388l.387.244-34.691,20-.387-.244Z" fill="#364557"/>
      <path id="Path_7086" data-name="Path 7086" d="M182.408,423.933l.387.244v-7.544l-.387-.244Z" fill="#161c24"/>
    </g>
    <g id="Group_2185" data-name="Group 2185">
      <path id="Path_7087" data-name="Path 7087" d="M171.25,417.747v.969l-20.923-12.086v-.967Z" fill="#080a0d"/>
      <path id="Path_7088" data-name="Path 7088" d="M150.687,406.425v-.555l-.361-.208v.967l20.923,12.086V418.3Z" fill="#364557"/>
      <path id="Path_7089" data-name="Path 7089" d="M150.687,406.425l-.361.2v-.967l.361.208Z" fill="#2a3842"/>
    </g>
    <g id="Group_2186" data-name="Group 2186">
      <path id="Path_7090" data-name="Path 7090" d="M171.25,419.112v.969l-20.923-12.087v-.967Z" fill="#080a0d"/>
      <path id="Path_7091" data-name="Path 7091" d="M150.687,407.79v-.555l-.361-.208v.967l20.923,12.087v-.412Z" fill="#364557"/>
      <path id="Path_7092" data-name="Path 7092" d="M150.687,407.79l-.361.2v-.967l.361.208Z" fill="#2a3842"/>
    </g>
    <g id="Group_2187" data-name="Group 2187">
      <path id="Path_7093" data-name="Path 7093" d="M171.25,420.477v.969L150.326,409.36v-.967Z" fill="#080a0d"/>
      <path id="Path_7094" data-name="Path 7094" d="M150.687,409.156V408.6l-.361-.208v.967l20.923,12.086v-.412Z" fill="#364557"/>
      <path id="Path_7095" data-name="Path 7095" d="M150.687,409.156l-.361.2v-.967l.361.208Z" fill="#2a3842"/>
    </g>
    <g id="Group_2188" data-name="Group 2188">
      <path id="Path_7096" data-name="Path 7096" d="M171.25,421.843v.969l-20.923-12.087v-.967Z" fill="#080a0d"/>
      <path id="Path_7097" data-name="Path 7097" d="M150.687,410.521v-.555l-.361-.208v.967l20.923,12.087V422.4Z" fill="#364557"/>
      <path id="Path_7098" data-name="Path 7098" d="M150.687,410.521l-.361.2v-.967l.361.208Z" fill="#2a3842"/>
    </g>
    <g id="Group_2189" data-name="Group 2189">
      <path id="Path_7099" data-name="Path 7099" d="M171.25,423.208v.969l-20.923-12.086v-.967Z" fill="#080a0d"/>
      <path id="Path_7100" data-name="Path 7100" d="M150.687,411.886v-.555l-.361-.208v.967l20.923,12.086v-.412Z" fill="#364557"/>
      <path id="Path_7101" data-name="Path 7101" d="M150.687,411.886l-.361.2v-.967l.361.208Z" fill="#2a3842"/>
    </g>
    <path id="Path_7102" data-name="Path 7102" d="M187.452,419.168l26.528-15.256a1.463,1.463,0,0,0,.538-1.3l-.043-.549c-.041-.521-.348-.785-.686-.59L187.26,416.731a1.466,1.466,0,0,0-.537,1.3l.043.549C186.807,419.1,187.114,419.363,187.452,419.168Z" fill="#7fb50a"/>
    <path id="Path_7103" data-name="Path 7103" d="M214.518,402.615l-.043-.549c-.041-.521-.348-.785-.686-.59l-.223.128v.008l.043.549a1.463,1.463,0,0,1-.538,1.3l-26.305,15.127c.044.516.349.777.685.583l26.528-15.256A1.463,1.463,0,0,0,214.518,402.615Z" fill="#495d75"/>
    <path id="Path_7104" data-name="Path 7104" d="M188,417.6a.832.832,0,0,0,.591-.477c.216-.376.2-.733.052-.819a.181.181,0,0,0-.091-.022.832.832,0,0,0-.591.477c-.216.376-.2.733-.052.819A.178.178,0,0,0,188,417.6Z" fill="url(#radial-gradient)"/>
    <path id="Path_7105" data-name="Path 7105" d="M189.78,416.549a.831.831,0,0,0,.591-.477c.217-.376.2-.733.053-.819a.184.184,0,0,0-.092-.022.831.831,0,0,0-.59.477c-.217.376-.2.733-.053.819A.181.181,0,0,0,189.78,416.549Z" fill="url(#radial-gradient-2)"/>
    <path id="Path_7106" data-name="Path 7106" d="M191.558,415.5a.834.834,0,0,0,.592-.478c.216-.375.2-.733.052-.818a.171.171,0,0,0-.091-.023.832.832,0,0,0-.591.478c-.216.375-.2.732-.052.818A.177.177,0,0,0,191.558,415.5Z" fill="url(#radial-gradient-3)"/>
    <path id="Path_7107" data-name="Path 7107" d="M193.164,414.6a.831.831,0,0,0,.592-.478c.216-.375.2-.732.052-.818a.181.181,0,0,0-.091-.023.834.834,0,0,0-.591.478c-.216.375-.2.733-.052.819A.174.174,0,0,0,193.164,414.6Z" fill="url(#radial-gradient-4)"/>
    <path id="Path_7108" data-name="Path 7108" d="M194.943,413.556a.832.832,0,0,0,.591-.477c.216-.376.2-.733.052-.819a.18.18,0,0,0-.091-.022.832.832,0,0,0-.591.477c-.216.376-.2.733-.052.819A.178.178,0,0,0,194.943,413.556Z" fill="url(#radial-gradient-5)"/>
    <path id="Path_7109" data-name="Path 7109" d="M196.721,412.509a.832.832,0,0,0,.591-.477c.216-.376.2-.733.052-.819a.178.178,0,0,0-.091-.022.832.832,0,0,0-.591.477c-.216.376-.2.733-.052.819A.18.18,0,0,0,196.721,412.509Z" fill="url(#radial-gradient-6)"/>
    <path id="Path_7110" data-name="Path 7110" d="M198.293,411.66a.831.831,0,0,0,.591-.477c.217-.376.2-.733.053-.819a.184.184,0,0,0-.092-.022.831.831,0,0,0-.59.477c-.217.376-.2.733-.053.819A.18.18,0,0,0,198.293,411.66Z" fill="url(#radial-gradient-7)"/>
    <path id="Path_7111" data-name="Path 7111" d="M200.072,410.613a.832.832,0,0,0,.591-.477c.216-.376.2-.733.052-.819a.181.181,0,0,0-.091-.022.832.832,0,0,0-.591.477c-.216.376-.2.733-.052.819A.178.178,0,0,0,200.072,410.613Z" fill="url(#radial-gradient-8)"/>
    <path id="Path_7112" data-name="Path 7112" d="M201.85,409.567a.834.834,0,0,0,.591-.478c.216-.376.2-.733.052-.819a.181.181,0,0,0-.091-.022.832.832,0,0,0-.591.478c-.216.375-.2.732-.052.818A.178.178,0,0,0,201.85,409.567Z" fill="url(#radial-gradient-9)"/>
    <path id="Path_7113" data-name="Path 7113" d="M203.515,408.684a.834.834,0,0,0,.591-.478c.216-.375.2-.733.052-.818a.171.171,0,0,0-.091-.023.832.832,0,0,0-.591.478c-.216.375-.2.732-.052.818A.178.178,0,0,0,203.515,408.684Z" fill="url(#radial-gradient-10)"/>
    <path id="Path_7114" data-name="Path 7114" d="M205.293,407.637a.832.832,0,0,0,.591-.478c.216-.375.2-.732.052-.818a.181.181,0,0,0-.091-.023.834.834,0,0,0-.591.478c-.216.375-.2.733-.052.818A.178.178,0,0,0,205.293,407.637Z" fill="url(#radial-gradient-11)"/>
    <path id="Path_7115" data-name="Path 7115" d="M207.071,406.59a.831.831,0,0,0,.591-.477c.217-.376.2-.733.053-.819a.184.184,0,0,0-.092-.022.831.831,0,0,0-.59.477c-.217.376-.2.733-.053.819A.18.18,0,0,0,207.071,406.59Z" fill="url(#radial-gradient-12)"/>
    <path id="Path_7116" data-name="Path 7116" d="M208.736,405.657a.832.832,0,0,0,.591-.478c.216-.375.2-.732.052-.818a.178.178,0,0,0-.091-.023.832.832,0,0,0-.591.478c-.216.375-.2.733-.052.818A.181.181,0,0,0,208.736,405.657Z" fill="url(#radial-gradient-13)"/>
    <path id="Path_7117" data-name="Path 7117" d="M210.514,404.61a.83.83,0,0,0,.591-.478c.217-.375.2-.732.053-.818a.185.185,0,0,0-.092-.023.833.833,0,0,0-.59.478c-.217.376-.2.733-.053.819A.181.181,0,0,0,210.514,404.61Z" fill="url(#radial-gradient-14)"/>
    <path id="Path_7118" data-name="Path 7118" d="M212.293,403.563a.832.832,0,0,0,.591-.477c.216-.376.2-.733.052-.819a.181.181,0,0,0-.091-.022.832.832,0,0,0-.591.477c-.216.376-.2.733-.052.819A.178.178,0,0,0,212.293,403.563Z" fill="url(#radial-gradient-15)"/>
    <path id="Path_7119" data-name="Path 7119" d="M182.19,402.349l15.9-9.019c1.425-.823,1.246-2.26-.4-3.209l-2.07-1.2a6.18,6.18,0,0,0-5.559-.231l-15.9,9.019c-1.425.823-1.247,2.259.4,3.209l2.069,1.2A6.181,6.181,0,0,0,182.19,402.349Z" fill="#e6e6e6"/>
    <path id="Path_7120" data-name="Path 7120" d="M174.163,398.269l15.9-9.019a6.177,6.177,0,0,1,5.559.231l2.07,1.194a2.52,2.52,0,0,1,1.328,1.543c.161-.709-.293-1.5-1.328-2.1l-2.07-1.2a6.18,6.18,0,0,0-5.559-.231l-15.9,9.019a1.559,1.559,0,0,0-.93,1.666A1.792,1.792,0,0,1,174.163,398.269Z" fill="#d9d9d9"/>
    <path id="Path_7121" data-name="Path 7121" d="M192.779,409.838l-9.121,5.243-23.005-4.969-10.529-6.078c-1.836-1.057-2.309-2.57-1.308-3.684Z" fill="#4d4d4d" style="mix-blend-mode: screen;isolation: isolate"/>
    <path id="Path_7122" data-name="Path 7122" d="M219.508,394.4l-44.075-9.512,9.121-5.243,24,5.178,9.847,5.686C220.347,391.64,220.759,393.275,219.508,394.4Z" fill="#4d4d4d" style="mix-blend-mode: screen;isolation: isolate"/>
    <path id="Path_7123" data-name="Path 7123" d="M213.833,397.743l-15.1,8.677-44.176-9.537,15.1-8.673Z" fill="#4d4d4d" style="mix-blend-mode: screen;isolation: isolate"/>
  </g>
  <g id="Group_2195" data-name="Group 2195" transform="translate(-139.159 -331.774)">
    <g id="Group_2194" data-name="Group 2194">
      <path id="Path_7124" data-name="Path 7124" d="M170.3,345.729l1.526.878a2.878,2.878,0,0,1-.759.711,1.706,1.706,0,0,1-.238.73c-.066.111-.132.221-.193.331a2.645,2.645,0,0,1-2.253,1.287,5.158,5.158,0,0,0-2.529.806,10.607,10.607,0,0,0-3.178,2.961,1.373,1.373,0,0,1-.293.287v1.01l-1.544-.9-.024-.013a1.3,1.3,0,0,1-.452-1.89c2.325-3.393,5.7-5.981,8.682-6.474a1.72,1.72,0,0,1,1,.128h0l.01.005A1.784,1.784,0,0,1,170.3,345.729Zm-2.35,6.745c-.039-.022-.081-.045-.124-.064l0,0a2.086,2.086,0,0,0-1.9.269,6.13,6.13,0,0,0-2.8,4.771,2.013,2.013,0,0,0,.6,1.6,1.278,1.278,0,0,0,.167.116h0l.013.008.051.029,1.651.948-.1-.971a3.47,3.47,0,0,0,.423-.2,6.128,6.128,0,0,0,2.8-4.771c0-.083-.005-.161-.011-.239l.8-.578Zm6.4-13.549a1.651,1.651,0,0,0-.719-.271c-2.749-.352-5.839.625-9.275,3a29.645,29.645,0,0,0-7.84,8.272,1.306,1.306,0,0,0,.478,1.867l.025.013,1.568.909v-.975a1.566,1.566,0,0,0,.468-.447,21.287,21.287,0,0,1,6.8-6.623,9.261,9.261,0,0,1,5.9-1.527,2.65,2.65,0,0,0,2.689-1.237l.418-.711a1.676,1.676,0,0,0,.206-1.162l.975-.1ZM179.4,333.1l-1.44-.833a1.937,1.937,0,0,0-.7-.284c-3.753-.717-8,.426-12.761,3.535a40.663,40.663,0,0,0-11.7,12.145,1.531,1.531,0,0,0,.561,2.187l1.593.922.1-1.349a32.621,32.621,0,0,1,10.767-10.753c3.625-2.11,6.849-2.8,9.678-2.133a2.573,2.573,0,0,0,2.8-1.19q.131-.222.263-.444a1.943,1.943,0,0,0,.145-1.691Z" fill="#fad020"/>
      <g id="Group_2191" data-name="Group 2191">
        <path id="Path_7125" data-name="Path 7125" d="M177.965,332.265a1.937,1.937,0,0,0-.7-.284c-3.753-.717-8,.426-12.761,3.535a39.683,39.683,0,0,0-10.743,10.734,1.522,1.522,0,0,0,.8,1.5l1.167.676c.164-.237.328-.474.494-.705l.029-.4a32.613,32.613,0,0,1,10.768-10.753c3.625-2.111,6.848-2.8,9.678-2.134a2.566,2.566,0,0,0,2.146-.465,1.987,1.987,0,0,0-.125-.763l.689-.112Z" fill="#ffe438"/>
        <path id="Path_7126" data-name="Path 7126" d="M174.35,338.925a1.651,1.651,0,0,0-.719-.271c-2.749-.352-5.839.625-9.275,3a28.659,28.659,0,0,0-6.859,6.856,1.3,1.3,0,0,0,.685,1.186l.025.014,1.4.81c.057-.079.112-.162.17-.239v-.637a1.578,1.578,0,0,0,.467-.448,21.29,21.29,0,0,1,6.8-6.623,9.26,9.26,0,0,1,5.9-1.526,2.725,2.725,0,0,0,2.143-.6,1.716,1.716,0,0,0-.018-.418l.439-.045c.042-.06.087-.115.125-.179l.052-.089Z" fill="#ffe438"/>
        <path id="Path_7127" data-name="Path 7127" d="M169.519,353.383l-1.568-.909c-.039-.022-.081-.045-.124-.064l0,0a2.086,2.086,0,0,0-1.9.269,5.64,5.64,0,0,0-1.806,1.786,6.576,6.576,0,0,0-.746,1.538,1.379,1.379,0,0,0,.239.264,1.338,1.338,0,0,0,.166.116h0l.014.008.05.029,1.651.948-.1-.971a3.265,3.265,0,0,0,.423-.2C166.986,355.514,169.1,354.771,169.519,353.383Z" fill="#ffe438"/>
        <path id="Path_7128" data-name="Path 7128" d="M171.666,346.514l-1.365-.785a1.784,1.784,0,0,0-.24-.139l-.01-.005h0a1.72,1.72,0,0,0-1-.128c-2.6.428-5.484,2.443-7.723,5.194a1.277,1.277,0,0,0,.681,1.074l.024.012,1.37.8c.057-.065.116-.125.174-.188v-.722a1.345,1.345,0,0,0,.292-.287,10.626,10.626,0,0,1,3.178-2.96,5.161,5.161,0,0,1,2.53-.807A2.653,2.653,0,0,0,171.666,346.514Z" fill="#ffe438"/>
        <path id="Path_7129" data-name="Path 7129" d="M167.867,349.709l-.025-.015c-.04-.022-.081-.045-.125-.064l0,0a2.087,2.087,0,0,0-1.9.269,5.65,5.65,0,0,0-1.806,1.786c-.109.166-.208.339-.3.514a9.752,9.752,0,0,1,2.147-1.725A5.715,5.715,0,0,1,167.867,349.709Z" fill="#8cd9ff"/>
      </g>
      <g id="Group_2192" data-name="Group 2192">
        <path id="Path_7130" data-name="Path 7130" d="M167.091,356.719a5.27,5.27,0,0,1-1.451,1.3,3.534,3.534,0,0,1-.422.2l.1.971-1.651-.948-.051-.029-.013-.008h0a1.279,1.279,0,0,1-.167-.116,1.459,1.459,0,0,1-.292-.355,1.88,1.88,0,0,0,.577,1.308,1.278,1.278,0,0,0,.167.116h0l.013.008.051.029,1.651.948-.1-.971a3.47,3.47,0,0,0,.423-.2,5.489,5.489,0,0,0,1.652-1.566A3.508,3.508,0,0,1,167.091,356.719Z" fill="#ee9b0f"/>
        <path id="Path_7131" data-name="Path 7131" d="M167.171,348.838a6.284,6.284,0,0,0-1.6.681,10.6,10.6,0,0,0-3.177,2.961,1.4,1.4,0,0,1-.293.287v1.01l-1.544-.9-.024-.013a1.266,1.266,0,0,1-.387-.32,1.281,1.281,0,0,0,.672,1.273l.024.013,1.544.9v-1.01a1.373,1.373,0,0,0,.293-.287,10.607,10.607,0,0,1,3.178-2.961,7.182,7.182,0,0,1,.916-.453C166.887,349.62,167.024,349.227,167.171,348.838Z" fill="#ee9b0f"/>
        <path id="Path_7132" data-name="Path 7132" d="M169.425,342.224a11.409,11.409,0,0,0-3.855,1.489,21.3,21.3,0,0,0-6.8,6.624,1.563,1.563,0,0,1-.467.447v.975l-1.568-.909-.025-.013a1.293,1.293,0,0,1-.4-.328,1.3,1.3,0,0,0,.68,1.281l.025.013,1.568.909v-.975a1.566,1.566,0,0,0,.468-.447,21.287,21.287,0,0,1,6.8-6.623,11.985,11.985,0,0,1,3.332-1.38C169.277,342.937,169.359,342.584,169.425,342.224Z" fill="#ee9b0f"/>
        <path id="Path_7133" data-name="Path 7133" d="M171.359,335.482a17.08,17.08,0,0,0-5.815,2.233,32.623,32.623,0,0,0-10.768,10.753l-.1,1.349-1.593-.922a1.525,1.525,0,0,1-.516-.454,1.522,1.522,0,0,0,.8,1.407l1.593.922.1-1.349a32.621,32.621,0,0,1,10.767-10.753,18.053,18.053,0,0,1,5.021-2.078C171.009,336.216,171.177,335.845,171.359,335.482Z" fill="#ee9b0f"/>
      </g>
      <g id="Group_2193" data-name="Group 2193">
        <path id="Path_7134" data-name="Path 7134" d="M170.3,355.109a6.128,6.128,0,0,1-2.8,4.771,1.872,1.872,0,0,1-2.2.074,2.01,2.01,0,0,1-.6-1.6,6.123,6.123,0,0,1,2.8-4.771,2.086,2.086,0,0,1,1.9-.269l0,0c.043.019.085.042.124.064A1.891,1.891,0,0,1,170.3,355.109Z" fill="#ffb901"/>
        <path id="Path_7135" data-name="Path 7135" d="M172.4,348.957c-.066.111-.132.221-.194.331a2.642,2.642,0,0,1-2.252,1.287,5.164,5.164,0,0,0-2.53.806,10.616,10.616,0,0,0-3.177,2.961,1.444,1.444,0,0,1-1.837.4l-.024-.013a1.3,1.3,0,0,1-.452-1.89c2.325-3.393,5.7-5.981,8.681-6.474A1.736,1.736,0,0,1,172.4,348.957Z" fill="#ffb901"/>
        <path id="Path_7136" data-name="Path 7136" d="M158.587,352.712l-.025-.013a1.305,1.305,0,0,1-.478-1.867,29.632,29.632,0,0,1,7.84-8.272c3.436-2.372,6.526-3.349,9.274-3a1.692,1.692,0,0,1,1.236,2.538l-.418.711a2.651,2.651,0,0,1-2.689,1.237,9.261,9.261,0,0,0-5.9,1.527,21.29,21.29,0,0,0-6.8,6.623A1.568,1.568,0,0,1,158.587,352.712Z" fill="#ffb901"/>
        <path id="Path_7137" data-name="Path 7137" d="M180.139,335.81l-.264.444a2.572,2.572,0,0,1-2.8,1.19c-2.829-.663-6.053.023-9.678,2.133a32.635,32.635,0,0,0-10.782,10.776,1.262,1.262,0,0,1-1.651.417l-.025-.013a1.532,1.532,0,0,1-.562-2.187,40.679,40.679,0,0,1,11.7-12.145c4.76-3.109,9.007-4.252,12.76-3.535A1.956,1.956,0,0,1,180.139,335.81Z" fill="#ffb901"/>
      </g>
    </g>
  </g>
</svg>
