<svg xmlns="http://www.w3.org/2000/svg" width="22.331" height="44.644" viewBox="0 0 22.331 44.644">
  <path id="Path_7141" data-name="Path 7141" d="M-113.674,206.97v.264a8.292,8.292,0,0,0,2.1,5.38,7.673,7.673,0,0,1,1.8,5.905,7.718,7.718,0,0,1-6.772,6.737,7.689,7.689,0,0,1-8.557-7.639,7.665,7.665,0,0,1,1.987-5.16,7.939,7.939,0,0,0,1.959-5.343v-.173a7.867,7.867,0,0,0-3.049-6.25,11.149,11.149,0,0,1-4.343-9.735,11.208,11.208,0,0,1,9.845-10.222,11.169,11.169,0,0,1,12.454,11.093,11.146,11.146,0,0,1-4.439,8.913A7.778,7.778,0,0,0-113.674,206.97Z" transform="translate(128.58 -180.66)" fill="#ff7e79"/>
</svg>
