<svg xmlns="http://www.w3.org/2000/svg" xmlns:xlink="http://www.w3.org/1999/xlink" width="130.693" height="149.488" viewBox="0 0 130.693 149.488">
  <defs>
    <linearGradient id="linear-gradient" x1="0.328" y1="0.21" x2="0.568" y2="0.71" gradientUnits="objectBoundingBox">
      <stop offset="0" stop-color="#1989ff"/>
      <stop offset="1" stop-color="#0064cc"/>
    </linearGradient>
  </defs>
  <g id="Group_839" data-name="Group 839" transform="translate(-22.022 -141.604)">
    <path id="Path_1742" data-name="Path 1742" d="M62.19,259.7l73.963-42.068c3.312-1.912,2.9-5.251-.927-7.459l-10.732-6.24c-3.824-2.207-9.607-2.447-12.92-.535L37.612,245.47c-3.312,1.912-2.9,5.251.927,7.46l10.732,6.238C53.095,261.375,58.88,261.615,62.19,259.7Z" transform="translate(6.642 30.097)" fill="#ccc" style="mix-blend-mode: multiply;isolation: isolate"/>
    <g id="Group_838" data-name="Group 838" transform="translate(22.022 141.604)">
      <g id="Group_833" data-name="Group 833" transform="translate(23.363 35.383)">
        <g id="Group_829" data-name="Group 829">
          <path id="Path_1743" data-name="Path 1743" d="M108.7,181.995l-17.354-9.772,4.814,16.133Z" transform="translate(-10.9 -161.757)" fill="#0070e6"/>
          <path id="Path_1744" data-name="Path 1744" d="M121.939,184.972c0,.529-.033,1.057-.066,1.6v.066c-.716,9.142-7.114,19.681-14.911,24.185a.171.171,0,0,0-.066.033l-21.155,12.2a.509.509,0,0,1-.121.078c-.045.033-.088.043-.133.076L64.462,235.345l-15.769,9.1-.055.033c-2.742,1.586-5.265,1.894-7.192,1.09a4.466,4.466,0,0,1-1.113-.627l-.043-.022a5.5,5.5,0,0,1-1.168-1.2,9.367,9.367,0,0,1-1.5-5.506c0-6.972,4.934-15.473,11.013-18.986a10.832,10.832,0,0,1,1.068-.551h.01c2.137-7.28,7.247-14.516,13.239-18.138,3.083-12.764,12.059-25.9,22.665-32.027,6.068-3.513,11.606-4.1,15.814-2.236l.01.012a10.808,10.808,0,0,1,1.993,1.146,14.1,14.1,0,0,1,5.2,8.149,10.506,10.506,0,0,1,7.587-.792,6.841,6.841,0,0,1,2.555,1.475l.033.022a10.464,10.464,0,0,1,3.052,7.048l.01-.012v.144C121.906,183.947,121.939,184.453,121.939,184.972Z" transform="translate(-37.624 -165.234)" fill="#223bc9"/>
          <path id="Path_1745" data-name="Path 1745" d="M77.527,199.269,64.289,217.408,45.7,206.945c2.137-7.28,7.247-14.516,13.239-18.138Z" transform="translate(-33.607 -153.508)" fill="#0070e6"/>
          <path id="Path_1746" data-name="Path 1746" d="M68.306,211.382l-3.844,6.211-8.248,13.326-7.522-4.229-11.069-6.234c0-6.972,4.934-15.473,11.013-18.986a10.832,10.832,0,0,1,1.068-.551h.01Z" transform="translate(-37.624 -147.483)" fill="#006ad9"/>
          <path id="Path_1747" data-name="Path 1747" d="M95.783,177.881,73.129,209.908,54.54,199.446c3.083-12.764,12.059-25.9,22.665-32.027Z" transform="translate(-29.21 -164.147)" fill="#0076f2"/>
          <path id="Path_1748" data-name="Path 1748" d="M105.085,177.249l-16.831,1.719L69.676,168.506c6.068-3.513,11.606-4.1,15.814-2.236l.01.012,1.993,1.146Z" transform="translate(-21.681 -165.234)" fill="#3397ff"/>
          <path id="Path_1749" data-name="Path 1749" d="M58.681,230.972l-17.235-9.648-1.113-.627-.043-.022a5.5,5.5,0,0,1-1.168-1.2,9.367,9.367,0,0,1-1.5-5.506L48.693,220.2l7.522,4.229Z" transform="translate(-37.624 -140.993)" fill="#0064cc"/>
          <path id="Path_1750" data-name="Path 1750" d="M134.344,191.956c0,.526-.03,1.063-.06,1.589v.073h-.015c-.7,9.151-7.1,19.676-14.9,24.185-.03.015-.045.015-.06.028L103.3,227.07l-5.151,2.981a.323.323,0,0,0-.12.073c-.045.015-.09.046-.135.06l-10.287,5.93L72.127,245.07l-11.081,6.392a10.122,10.122,0,0,1-4.507,1.482,5.438,5.438,0,0,1-5-2.245,9.3,9.3,0,0,1-1.5-5.51c0-6.964,4.926-15.468,11.006-18.989.374-.208.719-.389,1.078-.554a34.89,34.89,0,0,1,5.181-10.437,28.369,28.369,0,0,1,8.056-7.7c3.085-12.759,12.069-25.907,22.671-32.031a23.247,23.247,0,0,1,8.82-3.145,12.357,12.357,0,0,1,9.209,2.246,14.151,14.151,0,0,1,4.986,7.968c3.908-1.752,7.367-1.514,9.778.389,1.9,1.482,3.145,3.983,3.444,7.366h.015v.135C134.314,190.937,134.344,191.431,134.344,191.956Z" transform="translate(-31.448 -161.757)" fill="url(#linear-gradient)"/>
          <path id="Path_1751" data-name="Path 1751" d="M113.711,181.769,80.273,235.33,64.79,244.286,108.724,173.8A14.151,14.151,0,0,1,113.711,181.769Z" transform="translate(-24.111 -160.972)" fill="#1a1a1a" style="mix-blend-mode: screen;isolation: isolate"/>
          <path id="Path_1752" data-name="Path 1752" d="M106.852,172.3,56.539,252.907a5.438,5.438,0,0,1-5-2.245,9.3,9.3,0,0,1-1.5-5.51c0-6.964,4.926-15.468,11.006-18.989.374-.208.719-.389,1.078-.554a34.89,34.89,0,0,1,5.181-10.437,28.369,28.369,0,0,1,8.056-7.7c3.085-12.759,12.069-25.907,22.671-32.031A23.247,23.247,0,0,1,106.852,172.3Z" transform="translate(-31.448 -161.718)" fill="#1a1a1a" style="mix-blend-mode: screen;isolation: isolate"/>
          <path id="Path_1753" data-name="Path 1753" d="M116.651,188.395c0,.526-.03,1.063-.06,1.589v.073h-.015c-.7,9.151-7.1,19.676-14.9,24.185-.03.015-.045.015-.06.028L85.61,223.509l27.522-44.127c1.9,1.482,3.145,3.983,3.444,7.366h.015v.135C116.621,187.377,116.651,187.871,116.651,188.395Z" transform="translate(-13.755 -158.196)" fill="#1a1a1a" style="mix-blend-mode: screen;isolation: isolate"/>
        </g>
        <g id="Group_832" data-name="Group 832" transform="translate(52.854 15.226)">
          <g id="Group_830" data-name="Group 830" transform="translate(0 8.344)">
            <path id="Path_1754" data-name="Path 1754" d="M79.607,190.162l-1.849,1.066-4.837,2.8v36.351l22.6-13.042V180.974Zm14.067,26.116L74.77,227.2V195.074l2.987-1.722,1.849-1.066,14.067-8.122Z" transform="translate(-72.921 -180.974)" fill="#80beff"/>
          </g>
          <g id="Group_831" data-name="Group 831" transform="translate(4.837)">
            <path id="Path_1755" data-name="Path 1755" d="M76.151,188.456v7.667L78,195.057V189.5l18.9-10.921v32.127l-2.989,1.721-1.848,1.078v2.111l1.848-1.066,4.837-2.8V175.4Z" transform="translate(-76.151 -175.402)" fill="#80beff"/>
          </g>
          <path id="Path_1756" data-name="Path 1756" d="M74.871,196.433l16.911-9.764v-1.411l-16.911,9.764Z" transform="translate(-71.951 -170.499)" fill="#80beff"/>
          <path id="Path_1757" data-name="Path 1757" d="M74.871,198.314l16.911-9.764v-1.411L74.871,196.9Z" transform="translate(-71.951 -169.564)" fill="#80beff"/>
          <path id="Path_1758" data-name="Path 1758" d="M74.871,200.2l16.911-9.764V189.02l-16.911,9.764Z" transform="translate(-71.951 -168.628)" fill="#80beff"/>
          <path id="Path_1759" data-name="Path 1759" d="M74.871,202.076l16.911-9.764V190.9l-16.911,9.764Z" transform="translate(-71.951 -167.692)" fill="#80beff"/>
          <path id="Path_1760" data-name="Path 1760" d="M74.871,203.957l16.911-9.764v-1.411l-16.911,9.764Z" transform="translate(-71.951 -166.757)" fill="#80beff"/>
          <path id="Path_1761" data-name="Path 1761" d="M74.871,205.838l16.911-9.764v-1.411l-16.911,9.764Z" transform="translate(-71.951 -165.821)" fill="#80beff"/>
          <path id="Path_1762" data-name="Path 1762" d="M74.871,207.719l16.911-9.764v-1.411l-16.911,9.764Z" transform="translate(-71.951 -164.886)" fill="#80beff"/>
          <path id="Path_1763" data-name="Path 1763" d="M74.871,209.6l16.911-9.764v-1.411l-16.911,9.764Z" transform="translate(-71.951 -163.95)" fill="#80beff"/>
          <path id="Path_1764" data-name="Path 1764" d="M74.871,211.481l16.911-9.764v-1.411l-16.911,9.764Z" transform="translate(-71.951 -163.015)" fill="#80beff"/>
          <path id="Path_1765" data-name="Path 1765" d="M74.871,213.362,91.782,203.6v-1.411L74.871,211.95Z" transform="translate(-71.951 -162.079)" fill="#80beff"/>
        </g>
      </g>
      <g id="Group_835" data-name="Group 835" transform="translate(0 9.802)">
        <path id="Path_1766" data-name="Path 1766" d="M72.534,150.142l-.192,1.7c-.043.355-.355,2.667-1.066,6.328v.007c-.1.512-.214,1.053-.335,1.62-.156.776-.326,1.6-.518,2.468-2.745,12.322-8.9,33.234-21.418,50.078l-.169.228-1.544,2.077-1.713-.326c-.015,0-.028-.007-.043-.007a18.038,18.038,0,0,1-2.68-.726h-.007a17.489,17.489,0,0,1-2.481-1.066,19.623,19.623,0,0,1-2.659-1.614c-12.08-8.618-15.316-29.11-15.471-30.14l-.214-1.423,2.346-4.708,2.2-.177a11.855,11.855,0,0,0,5.1-1.7c5.19-3,9.777-9.23,11.675-15.871l.768-2.68,6.364-3.676.767,1.8a6.423,6.423,0,0,0,3.983,3.818,6.713,6.713,0,0,0,2.722.255c.108-.006.214-.013.32-.028a12.142,12.142,0,0,0,4.657-1.664,21.652,21.652,0,0,0,5.091-4.188l2.176-2.375Z" transform="translate(-22.022 -148.15)" fill="#52b529"/>
        <path id="Path_1767" data-name="Path 1767" d="M50.438,156.449,48.4,166.2l-6.045,7.557-7.821,4.175L30.7,176.876l-7.111-4.253,2.2-.177a11.855,11.855,0,0,0,5.1-1.7c5.19-3,9.777-9.23,11.675-15.871l.768-2.68Z" transform="translate(-21.243 -146.137)" fill="#c1c1c1"/>
        <path id="Path_1768" data-name="Path 1768" d="M46.262,204.605v1.144l-5.9-3.591-2.659-1.614c-12.08-8.618-15.316-29.11-15.471-30.14l-.214-1.423,7.111,4.253L35.1,190.292l6.755,10.31,3.682,3.35Z" transform="translate(-22.022 -137.788)" fill="#5b5b5b"/>
        <path id="Path_1769" data-name="Path 1769" d="M65.487,152.4,63.4,157.266,59.129,159.8l-.753.449-4.515,2.367-7.047-3.143-.683-3.065-.362-1.62.683,1.592a12.142,12.142,0,0,0,4.657-1.664,21.652,21.652,0,0,0,5.091-4.188l2.176-2.375Z" transform="translate(-10.21 -148.15)" fill="#c1c1c1"/>
        <path id="Path_1770" data-name="Path 1770" d="M77.282,152.982l-.192,1.7c-.184,1.438-4.735,35.468-23.336,60.5l-1.713,2.3-1.715-.328a20.4,20.4,0,0,1-9.834-4.985h-.007c-10.465-9.306-13.352-27.6-13.5-28.569l-.213-1.421,2.346-4.708,2.2-.178a11.809,11.809,0,0,0,5.1-1.7c5.192-3,9.778-9.229,11.675-15.87l.768-2.68,4-2.31,2.36-1.366.683,1.592.085.207c1.906,4.444,6.485,5.376,11.683,2.382.419-.243.831-.5,1.244-.789v-.007a22.581,22.581,0,0,0,3.847-3.392l2.176-2.375Z" transform="translate(-19.66 -146.737)" fill="#828282"/>
        <path id="Path_1771" data-name="Path 1771" d="M72.971,154.262a131.744,131.744,0,0,1-2.6,13.119,157.767,157.767,0,0,1-6.157,19.589,106.576,106.576,0,0,1-13.261,24.652,18.093,18.093,0,0,1-1.906-.478,18.343,18.343,0,0,1-4.714-2.246,22.574,22.574,0,0,1-3.782-3.157,33.994,33.994,0,0,1-5.3-7.367,49.664,49.664,0,0,1-2.2-4.6,63.85,63.85,0,0,1-2.233-6.2,62.588,62.588,0,0,1-1.876-7.891l.021-.051a14.746,14.746,0,0,0,6.364-2.119,23.957,23.957,0,0,0,3.2-2.225,36.489,36.489,0,0,0,11.347-17.535l1.081-.626,1.081-.624a8.6,8.6,0,0,0,2.346,3.27,7.512,7.512,0,0,0,3.982,1.764,13.2,13.2,0,0,0,8.219-2.069,26.953,26.953,0,0,0,6.1-4.949c.093-.093.178-.186.264-.277Z" transform="translate(-18.579 -145.12)" fill="#7fb50a"/>
        <g id="Group_834" data-name="Group 834" transform="translate(17.201 9.119)">
          <path id="Path_1772" data-name="Path 1772" d="M44.762,156.5c-.127-.243-.255-.488-.367-.75l-.078.043C44.456,156.043,44.608,156.275,44.762,156.5Z" transform="translate(-28.133 -153.488)" fill="#e2e2e2"/>
          <path id="Path_1773" data-name="Path 1773" d="M70.676,154.24q-.4.431-.8.845c-1.16,7.2-6.458,35.02-21.75,55.6-6.554-1.25-11.271-5.955-14.615-11.382,3.371,5.816,8.248,11,15.178,12.322,17.7-23.824,22.013-57.36,22.013-57.36Z" transform="translate(-33.509 -154.24)" fill="#e2e2e2"/>
        </g>
        <path id="Path_1774" data-name="Path 1774" d="M50.245,153.993l-2.361,1.365-4,2.311-7.11-4.252,6.364-3.676Z" transform="translate(-14.686 -147.359)" fill="#e2e2e2"/>
        <path id="Path_1775" data-name="Path 1775" d="M29.131,174.8l-7.109-4.253,2.346-4.707,7.112,4.252Z" transform="translate(-22.022 -139.352)" fill="#a3a0a0"/>
        <path id="Path_1776" data-name="Path 1776" d="M51.607,170.766l-.43.25v-7.533a1.226,1.226,0,0,0-1.837-1.065l-7.391,4.268a1.819,1.819,0,0,0-.916,1.583v8.655l-.686.4a2.634,2.634,0,0,0-1.309,2.276v10.71a1.465,1.465,0,0,0,2.2,1.265L52.5,185.015a2.634,2.634,0,0,0,1.309-2.276V172.031A1.464,1.464,0,0,0,51.607,170.766Zm-5.5,13.945.451-4.018-.09-.121a1.807,1.807,0,0,1-.265-1.021,1.014,1.014,0,0,1,.024-.145l0-.015a2.489,2.489,0,0,1,.338-.68l0-.009,0,0a1.261,1.261,0,0,1,.812-.479c.577-.036.913.608.753,1.441a2.647,2.647,0,0,1-.229.651l.7,2.951Zm3.754-12.929-7.505,4.369v-7.387a1.373,1.373,0,0,1,.686-1.19l6.083-3.508a.492.492,0,0,1,.737.428Z" transform="translate(-13.558 -141.135)" fill="#486900"/>
        <path id="Path_1777" data-name="Path 1777" d="M52.1,170.97l-.43.25v-7.533a1.227,1.227,0,0,0-1.837-1.065l-7.391,4.268a1.823,1.823,0,0,0-.916,1.584v8.654l-.686.4a2.634,2.634,0,0,0-1.309,2.276v10.708a1.464,1.464,0,0,0,2.2,1.265L53,185.221a2.634,2.634,0,0,0,1.309-2.276v-10.71A1.465,1.465,0,0,0,52.1,170.97Zm-5.5,13.947.451-4.019-.088-.12a1.8,1.8,0,0,1-.265-1.021.8.8,0,0,1,.024-.145l0-.016a2.486,2.486,0,0,1,.337-.68l0-.008,0,0a1.258,1.258,0,0,1,.812-.478c.575-.037.913.606.752,1.439a2.53,2.53,0,0,1-.229.651l.7,2.953Zm3.756-12.929-7.505,4.369v-7.387a1.379,1.379,0,0,1,.684-1.192l6.082-3.507a.493.493,0,0,1,.738.427Z" transform="translate(-13.311 -141.034)" fill="#c5ff47"/>
        <path id="Path_1778" data-name="Path 1778" d="M53.762,159.021l-21.332,34a63.85,63.85,0,0,1-2.233-6.2l7.709-12.286A36.489,36.489,0,0,0,49.253,157l1.081-.626,1.081-.624A8.6,8.6,0,0,0,53.762,159.021Z" transform="translate(-17.956 -144.369)" fill="#4d4d4d" style="mix-blend-mode: screen;isolation: isolate"/>
        <path id="Path_1779" data-name="Path 1779" d="M65.263,163.016a157.767,157.767,0,0,1-6.157,19.589L43.938,206.779a18.343,18.343,0,0,1-4.714-2.246Z" transform="translate(-13.465 -140.755)" fill="#4d4d4d" style="mix-blend-mode: screen;isolation: isolate"/>
        <path id="Path_1780" data-name="Path 1780" d="M70.589,154.426,38.458,205.65a33.994,33.994,0,0,1-5.3-7.367l23.11-36.838a13.2,13.2,0,0,0,8.219-2.069A26.953,26.953,0,0,0,70.589,154.426Z" transform="translate(-16.482 -145.028)" fill="#4d4d4d" style="mix-blend-mode: screen;isolation: isolate"/>
      </g>
      <g id="Group_837" data-name="Group 837" transform="translate(93.904)">
        <path id="Path_1781" data-name="Path 1781" d="M116.981,142.874l-.123,1.086c-.027.226-.226,1.7-.68,4.04v0c-.064.326-.136.672-.214,1.035-.1.5-.208,1.023-.331,1.575-1.752,7.867-5.684,21.218-13.673,31.973l-.109.145-.985,1.325-1.095-.208-.027,0a11.686,11.686,0,0,1-1.712-.463h0a11.364,11.364,0,0,1-1.584-.681,12.64,12.64,0,0,1-1.7-1.03c-7.713-5.5-9.78-18.586-9.878-19.243l-.136-.909,1.5-3.005,1.4-.112a7.561,7.561,0,0,0,3.255-1.086,17.733,17.733,0,0,0,7.454-10.133l.49-1.712,4.062-2.346.491,1.149a4.094,4.094,0,0,0,2.541,2.438,4.278,4.278,0,0,0,1.738.163c.069,0,.136-.009.205-.018a7.788,7.788,0,0,0,2.974-1.062,13.846,13.846,0,0,0,3.249-2.674l1.39-1.515Z" transform="translate(-84.733 -141.604)" fill="#52b529"/>
        <path id="Path_1782" data-name="Path 1782" d="M102.875,146.9l-1.3,6.225-3.857,4.825-4.994,2.665-2.447-.672-4.54-2.715,1.4-.112a7.561,7.561,0,0,0,3.255-1.086A17.733,17.733,0,0,0,97.846,145.9l.49-1.712Z" transform="translate(-84.235 -140.32)" fill="#c1c1c1"/>
        <path id="Path_1783" data-name="Path 1783" d="M100.209,177.647v.731l-3.764-2.293-1.7-1.03c-7.713-5.5-9.78-18.586-9.878-19.243l-.136-.909,4.539,2.715,3.809,10.891,4.313,6.583,2.351,2.138Z" transform="translate(-84.733 -134.989)" fill="#5b5b5b"/>
        <path id="Path_1784" data-name="Path 1784" d="M112.483,144.319l-1.331,3.1-2.728,1.616-.481.286-2.883,1.512-4.5-2.007-.436-1.957-.231-1.035.436,1.017a7.788,7.788,0,0,0,2.974-1.062,13.846,13.846,0,0,0,3.249-2.674l1.39-1.515Z" transform="translate(-77.191 -141.604)" fill="#c1c1c1"/>
        <path id="Path_1785" data-name="Path 1785" d="M120.014,144.687l-.123,1.086c-.118.916-3.023,22.644-14.9,38.627l-1.093,1.47-1.095-.208a13.016,13.016,0,0,1-6.279-3.182h0C89.839,176.537,88,164.857,87.9,164.24l-.136-.909,1.5-3.005,1.4-.114a7.531,7.531,0,0,0,3.254-1.084,17.726,17.726,0,0,0,7.454-10.133l.491-1.712,2.555-1.475,1.508-.871.436,1.017.054.132c1.217,2.838,4.14,3.432,7.459,1.521.268-.154.532-.323.8-.5v0a14.434,14.434,0,0,0,2.456-2.165l1.39-1.515Z" transform="translate(-83.225 -140.702)" fill="#828282"/>
        <path id="Path_1786" data-name="Path 1786" d="M117.261,145.505a84.064,84.064,0,0,1-1.658,8.375,100.621,100.621,0,0,1-3.931,12.506,68.077,68.077,0,0,1-8.466,15.739,11.387,11.387,0,0,1-1.217-.3,11.729,11.729,0,0,1-3.01-1.435,14.429,14.429,0,0,1-2.415-2.016,21.679,21.679,0,0,1-3.381-4.7,31.568,31.568,0,0,1-1.408-2.936,40.732,40.732,0,0,1-1.426-3.959,39.891,39.891,0,0,1-1.2-5.039l.013-.031a9.435,9.435,0,0,0,4.062-1.354,15.084,15.084,0,0,0,2.042-1.421,23.3,23.3,0,0,0,7.246-11.195l.69-.4.689-.4a5.492,5.492,0,0,0,1.5,2.087,4.79,4.79,0,0,0,2.543,1.126,8.414,8.414,0,0,0,5.247-1.321,17.174,17.174,0,0,0,3.895-3.16c.06-.058.114-.118.168-.177Z" transform="translate(-82.534 -139.67)" fill="#fe0000"/>
        <path id="Path_1787" data-name="Path 1787" d="M107.315,149.249l-4.753,2.745a1.171,1.171,0,0,0-.588,1.018v5.221l-6.087,3.544a1.7,1.7,0,0,0-.842,1.464v6.884a.942.942,0,0,0,1.415.815l7.24-4.215a1.7,1.7,0,0,0,.842-1.464v-6.885a.941.941,0,0,0-1.415-.813l-.3.177v-4.408a.886.886,0,0,1,.44-.765l3.911-2.257a.318.318,0,0,1,.475.276v5.271l.016-.01.831-.478v-5.434A.789.789,0,0,0,107.315,149.249Zm-7.727,17.09.29-2.583-.057-.078a1.154,1.154,0,0,1-.171-.657.5.5,0,0,1,.015-.093l0-.01a1.57,1.57,0,0,1,.217-.437v0l0,0a.809.809,0,0,1,.523-.307c.37-.024.587.389.484.925a1.679,1.679,0,0,1-.147.419l.452,1.9Z" transform="translate(-79.603 -137.854)" fill="#960000"/>
        <path id="Path_1788" data-name="Path 1788" d="M107.64,149.38l-4.753,2.743a1.173,1.173,0,0,0-.588,1.018v5.223l-6.087,3.544a1.691,1.691,0,0,0-.842,1.463v6.885a.941.941,0,0,0,1.415.813l7.24-4.215a1.693,1.693,0,0,0,.842-1.463v-6.885a.942.942,0,0,0-1.415-.815l-.3.177v-4.407a.883.883,0,0,1,.44-.767l3.91-2.255a.317.317,0,0,1,.475.276v5.271l.016-.012.831-.476v-5.434A.788.788,0,0,0,107.64,149.38Zm-7.727,17.089.29-2.583-.057-.078a1.148,1.148,0,0,1-.171-.656.631.631,0,0,1,.015-.093l0-.012a1.625,1.625,0,0,1,.217-.436l0-.006h0a.805.805,0,0,1,.521-.308c.37-.024.587.391.484.925a1.582,1.582,0,0,1-.147.419l.452,1.9Z" transform="translate(-79.442 -137.789)" fill="#ff7373"/>
        <g id="Group_836" data-name="Group 836" transform="translate(10.981 5.82)">
          <path id="Path_1789" data-name="Path 1789" d="M99.252,146.935c-.082-.156-.163-.311-.235-.479l-.049.028C99.055,146.642,99.151,146.79,99.252,146.935Z" transform="translate(-88.633 -145.011)" fill="#e2e2e2"/>
          <path id="Path_1790" data-name="Path 1790" d="M115.8,145.491q-.252.276-.512.539c-.74,4.6-4.124,22.359-13.886,35.5-4.185-.8-7.2-3.8-9.332-7.267,2.152,3.714,5.266,7.021,9.691,7.867,11.3-15.211,14.055-36.622,14.055-36.622Z" transform="translate(-92.066 -145.491)" fill="#e2e2e2"/>
        </g>
        <path id="Path_1791" data-name="Path 1791" d="M102.752,145.334l-1.507.872-2.556,1.475-4.54-2.715,4.063-2.347Z" transform="translate(-80.049 -141.099)" fill="#e2e2e2"/>
        <path id="Path_1792" data-name="Path 1792" d="M89.272,158.617,84.733,155.9l1.5-3.005,4.54,2.714Z" transform="translate(-84.733 -135.987)" fill="#a3a0a0"/>
        <path id="Path_1793" data-name="Path 1793" d="M105,148.543l-13.619,21.71a40.73,40.73,0,0,1-1.426-3.959l4.921-7.845a23.3,23.3,0,0,0,7.246-11.195l.69-.4.689-.4A5.492,5.492,0,0,0,105,148.543Z" transform="translate(-82.137 -139.191)" fill="#4d4d4d" style="mix-blend-mode: screen;isolation: isolate"/>
        <path id="Path_1794" data-name="Path 1794" d="M112.339,151.094a100.621,100.621,0,0,1-3.931,12.506l-9.684,15.435a11.729,11.729,0,0,1-3.01-1.435Z" transform="translate(-79.27 -136.884)" fill="#4d4d4d" style="mix-blend-mode: screen;isolation: isolate"/>
        <path id="Path_1795" data-name="Path 1795" d="M115.74,145.61l-20.515,32.7a21.679,21.679,0,0,1-3.381-4.7L106.6,150.09a8.414,8.414,0,0,0,5.247-1.321A17.174,17.174,0,0,0,115.74,145.61Z" transform="translate(-81.195 -139.611)" fill="#4d4d4d" style="mix-blend-mode: screen;isolation: isolate"/>
      </g>
    </g>
  </g>
</svg>
