<svg xmlns="http://www.w3.org/2000/svg" width="133.231" height="132.981" viewBox="0 0 133.231 132.981">
  <g id="Group_828" data-name="Group 828" transform="translate(-14.127 -18.072)">
    <path id="Path_1317" data-name="Path 1317" d="M146.576,129.132l-31.013-17.875,2.605-1.5-38.2-22.1L51.413,103.725l4.256-43.618L14.127,85.274l37,21.351,0-.037,36.26,20.935,26.9-15.536,30.953,17.883Z" transform="translate(0 21.182)" fill="#ccc" style="mix-blend-mode: multiply;isolation: isolate"/>
    <g id="Group_827" data-name="Group 827" transform="translate(47.176 18.072)">
      <g id="Group_685" data-name="Group 685" transform="translate(34.714 117.985)">
        <path id="Path_1318" data-name="Path 1318" d="M59.185,99.114l3.953,2.311L67.677,98.8l-3.89-2.281Z" transform="translate(-59.185 -96.524)" fill="#2e3b4a"/>
        <path id="Path_1319" data-name="Path 1319" d="M66.352,98.04v6.837L61.814,107.5v-6.837Z" transform="translate(-57.86 -95.76)" fill="#161c24"/>
        <path id="Path_1320" data-name="Path 1320" d="M59.185,98.246v6.837l3.953,2.311v-6.837Z" transform="translate(-59.185 -95.656)" fill="#10161a"/>
      </g>
      <g id="Group_686" data-name="Group 686" transform="translate(0 97.998)">
        <path id="Path_1321" data-name="Path 1321" d="M36.1,85.824l3.954,2.311,4.538-2.621L40.7,83.234Z" transform="translate(-36.103 -83.234)" fill="#2e3b4a"/>
        <path id="Path_1322" data-name="Path 1322" d="M43.27,84.75v6.837l-4.538,2.621V87.371Z" transform="translate(-34.778 -82.47)" fill="#161c24"/>
        <path id="Path_1323" data-name="Path 1323" d="M36.1,84.956v6.837L40.056,94.1V87.267Z" transform="translate(-36.103 -82.366)" fill="#10161a"/>
      </g>
      <g id="Group_687" data-name="Group 687" transform="translate(60.916 102.861)">
        <path id="Path_1324" data-name="Path 1324" d="M76.607,89.058l3.953,2.311L85.1,88.748l-3.89-2.281Z" transform="translate(-76.607 -86.467)" fill="#2e3b4a"/>
        <path id="Path_1325" data-name="Path 1325" d="M83.775,87.984V94.82l-4.538,2.621V90.6Z" transform="translate(-75.283 -85.703)" fill="#161c24"/>
        <path id="Path_1326" data-name="Path 1326" d="M76.607,88.19v6.837l3.953,2.311V90.5Z" transform="translate(-76.607 -85.599)" fill="#10161a"/>
      </g>
      <g id="Group_688" data-name="Group 688" transform="translate(0)">
        <path id="Path_1327" data-name="Path 1327" d="M36.1,35.638,74.736,57.944,105.51,40.173l-38.2-22.1Z" transform="translate(-36.103 -18.072)" fill="#364557"/>
        <path id="Path_1328" data-name="Path 1328" d="M92.565,32.767v88.181l-30.774,17.77V50.538Z" transform="translate(-23.158 -10.666)" fill="#202b33"/>
        <path id="Path_1329" data-name="Path 1329" d="M62.831,50.534,90.478,34.568v84.57L62.831,135.1Z" transform="translate(-22.634 -9.759)" fill="#1d272e"/>
        <path id="Path_1330" data-name="Path 1330" d="M88.817,35.528v82.878L62.831,133.411V135.1l27.647-15.965V34.568Z" transform="translate(-22.634 -9.759)" fill="#364557"/>
        <path id="Path_1331" data-name="Path 1331" d="M36.1,29.752v88.181l38.633,22.305V52.058Z" transform="translate(-36.103 -12.186)" fill="#161c24"/>
        <path id="Path_1332" data-name="Path 1332" d="M37.662,114.755v-78.6L71.6,55.754v78.6Z" transform="translate(-35.317 -8.958)" fill="#10161a"/>
        <path id="Path_1333" data-name="Path 1333" d="M38.163,114.474V36.446l-.5-.289v78.6l33.942,19.6v-.57Z" transform="translate(-35.317 -8.958)" fill="#364557"/>
      </g>
      <path id="Path_1334" data-name="Path 1334" d="M38.163,114.474l-.5.281v-78.6l.5.289Z" transform="translate(-35.317 -8.958)" fill="#202b33"/>
      <path id="Path_1335" data-name="Path 1335" d="M80.11,35.528l1.661-.959v84.57l-1.661-.733Z" transform="translate(-13.927 -9.759)" fill="#161c24"/>
      <g id="Group_689" data-name="Group 689" transform="translate(67.844 22.101)">
        <path id="Path_1336" data-name="Path 1336" d="M82.254,32.767v88.181l30.774,17.77V50.538Z" transform="translate(-80.69 -32.767)" fill="#202b33"/>
        <path id="Path_1337" data-name="Path 1337" d="M81.214,33.367v88.181l30.774,17.77V51.138Z" transform="translate(-81.214 -32.465)" fill="#161c24"/>
        <path id="Path_1338" data-name="Path 1338" d="M108.856,51.128v82.765l-4.472-2.58-13.008-7.52-8.6-4.964V36.071l5.754,3.322,7.5,4.331Z" transform="translate(-80.427 -31.102)" fill="#86acd9"/>
        <path id="Path_1339" data-name="Path 1339" d="M106.928,64.6v8.537L86.6,38.28l7.5,4.331Z" transform="translate(-78.499 -29.989)" fill="#545454" style="mix-blend-mode: screen;isolation: isolate"/>
        <path id="Path_1340" data-name="Path 1340" d="M108.856,105.8v8.537L82.776,69.606V61.069Z" transform="translate(-80.427 -18.506)" fill="#545454" style="mix-blend-mode: screen;isolation: isolate"/>
        <path id="Path_1341" data-name="Path 1341" d="M108.856,86.171v14.885L82.776,56.144V41.259Z" transform="translate(-80.427 -28.488)" fill="#545454" style="mix-blend-mode: screen;isolation: isolate"/>
        <path id="Path_1342" data-name="Path 1342" d="M104.384,111.869l-13.008-7.52-8.6-14.807V74.657Z" transform="translate(-80.427 -11.659)" fill="#545454" style="mix-blend-mode: screen;isolation: isolate"/>
        <path id="Path_1343" data-name="Path 1343" d="M84.288,118.247v-81.3l-1.515-.875v82.765l26.084,15.062v-1.461Z" transform="translate(-80.429 -31.104)" fill="#202b33"/>
        <path id="Path_1344" data-name="Path 1344" d="M113.552,50.538l-1.564.9L81.214,33.67l1.564-.9Z" transform="translate(-81.214 -32.767)" fill="#364557"/>
        <path id="Path_1345" data-name="Path 1345" d="M101.677,133.667l1.564-.9V44.584l-1.564.9Z" transform="translate(-70.903 -26.813)" fill="#202b33"/>
        <path id="Path_1346" data-name="Path 1346" d="M84.288,90.712l-1.515.586,26.084,15.062V104.9Z" transform="translate(-80.429 -3.569)" fill="#364557"/>
      </g>
      <g id="Group_694" data-name="Group 694" transform="translate(70.189 40.774)">
        <g id="Group_690" data-name="Group 690" transform="translate(0 54.263)">
          <path id="Path_1347" data-name="Path 1347" d="M84.288,81.265l-1.515.586,26.084,15.062V95.452Z" transform="translate(-82.774 -81.265)" fill="#364557"/>
          <path id="Path_1348" data-name="Path 1348" d="M82.774,81.655v1.466l26.084,15.062V96.721Z" transform="translate(-82.774 -81.068)" fill="#161c24"/>
        </g>
        <g id="Group_691" data-name="Group 691" transform="translate(0 36.175)">
          <path id="Path_1349" data-name="Path 1349" d="M84.288,69.238l-1.515.586,26.084,15.062V83.425Z" transform="translate(-82.774 -69.238)" fill="#364557"/>
          <path id="Path_1350" data-name="Path 1350" d="M82.774,69.628v1.466l26.084,15.061V84.694Z" transform="translate(-82.774 -69.041)" fill="#161c24"/>
        </g>
        <g id="Group_692" data-name="Group 692" transform="translate(0 18.088)">
          <path id="Path_1351" data-name="Path 1351" d="M84.288,57.211l-1.515.586,26.084,15.061V71.4Z" transform="translate(-82.774 -57.211)" fill="#364557"/>
          <path id="Path_1352" data-name="Path 1352" d="M82.774,57.6v1.466l26.084,15.061V72.667Z" transform="translate(-82.774 -57.014)" fill="#161c24"/>
        </g>
        <g id="Group_693" data-name="Group 693">
          <path id="Path_1353" data-name="Path 1353" d="M84.288,45.184l-1.515.586,26.084,15.061V59.371Z" transform="translate(-82.774 -45.184)" fill="#364557"/>
          <path id="Path_1354" data-name="Path 1354" d="M82.774,45.574v1.466L108.857,62.1V60.64Z" transform="translate(-82.774 -44.987)" fill="#161c24"/>
        </g>
      </g>
      <g id="Group_695" data-name="Group 695" transform="translate(3.571 0.125)">
        <path id="Path_1355" data-name="Path 1355" d="M38.477,33.913l34.658,20.01,27.607-15.942L66.472,18.155Z" transform="translate(-38.477 -18.155)" fill="#4f6580"/>
        <path id="Path_1356" data-name="Path 1356" d="M89.13,31.338v1.591L61.522,48.871V47.28Z" transform="translate(-26.864 -11.511)" fill="#202b33"/>
        <path id="Path_1357" data-name="Path 1357" d="M38.477,28.633v1.591l34.658,20.01V48.643Z" transform="translate(-38.477 -12.874)" fill="#161c24"/>
      </g>
      <g id="Group_702" data-name="Group 702" transform="translate(7.745 11.201)">
        <g id="Group_696" data-name="Group 696">
          <path id="Path_1358" data-name="Path 1358" d="M50.274,25.52l.81.46-9.021,5.084-.811-.468Z" transform="translate(-41.252 -25.52)" fill="#080a0d"/>
          <path id="Path_1359" data-name="Path 1359" d="M50.274,25.915l.466.265.344-.2-.81-.46L41.252,30.6l.345.195Z" transform="translate(-41.252 -25.52)" fill="#4f6580"/>
          <path id="Path_1360" data-name="Path 1360" d="M47.251,25.52v.4l.466.265.344-.2Z" transform="translate(-38.23 -25.52)" fill="#161c24"/>
        </g>
        <g id="Group_697" data-name="Group 697" transform="translate(1.306 0.752)">
          <path id="Path_1361" data-name="Path 1361" d="M51.143,26.02l.81.46-9.021,5.084-.811-.468Z" transform="translate(-42.121 -26.02)" fill="#080a0d"/>
          <path id="Path_1362" data-name="Path 1362" d="M51.143,26.415l.466.265.344-.2-.81-.46L42.121,31.1l.345.195Z" transform="translate(-42.121 -26.02)" fill="#4f6580"/>
          <path id="Path_1363" data-name="Path 1363" d="M48.12,26.02v.4l.466.265.344-.2Z" transform="translate(-39.098 -26.02)" fill="#161c24"/>
        </g>
        <g id="Group_698" data-name="Group 698" transform="translate(2.612 1.505)">
          <path id="Path_1364" data-name="Path 1364" d="M52.011,26.52l.81.46L43.8,32.065l-.811-.468Z" transform="translate(-42.989 -26.52)" fill="#080a0d"/>
          <path id="Path_1365" data-name="Path 1365" d="M52.011,26.915l.466.265.344-.2-.81-.46L42.989,31.6l.345.195Z" transform="translate(-42.989 -26.52)" fill="#4f6580"/>
          <path id="Path_1366" data-name="Path 1366" d="M48.988,26.52v.4l.466.265.344-.2Z" transform="translate(-39.966 -26.52)" fill="#161c24"/>
        </g>
        <g id="Group_699" data-name="Group 699" transform="translate(3.918 2.257)">
          <path id="Path_1367" data-name="Path 1367" d="M52.88,27.02l.81.46-9.021,5.084-.811-.468Z" transform="translate(-43.858 -27.02)" fill="#080a0d"/>
          <path id="Path_1368" data-name="Path 1368" d="M52.88,27.416l.466.265.344-.2-.81-.46L43.858,32.1l.345.2Z" transform="translate(-43.858 -27.02)" fill="#4f6580"/>
          <path id="Path_1369" data-name="Path 1369" d="M49.857,27.02v.4l.466.265.344-.2Z" transform="translate(-40.835 -27.02)" fill="#161c24"/>
        </g>
        <g id="Group_700" data-name="Group 700" transform="translate(5.224 3.009)">
          <path id="Path_1370" data-name="Path 1370" d="M53.748,27.521l.81.46-9.021,5.084-.811-.468Z" transform="translate(-44.726 -27.521)" fill="#080a0d"/>
          <path id="Path_1371" data-name="Path 1371" d="M53.748,27.916l.466.265.344-.2-.81-.46L44.726,32.6l.345.2Z" transform="translate(-44.726 -27.521)" fill="#4f6580"/>
          <path id="Path_1372" data-name="Path 1372" d="M50.725,27.521v.4l.466.265.344-.2Z" transform="translate(-41.703 -27.521)" fill="#161c24"/>
        </g>
        <g id="Group_701" data-name="Group 701" transform="translate(6.53 3.762)">
          <path id="Path_1373" data-name="Path 1373" d="M54.617,28.021l.81.46-9.021,5.084-.811-.468Z" transform="translate(-45.595 -28.021)" fill="#080a0d"/>
          <path id="Path_1374" data-name="Path 1374" d="M54.616,28.416l.466.265.344-.2-.81-.46L45.595,33.1l.345.195Z" transform="translate(-45.595 -28.021)" fill="#4f6580"/>
          <path id="Path_1375" data-name="Path 1375" d="M51.593,28.021v.4l.466.265.344-.2Z" transform="translate(-42.572 -28.021)" fill="#161c24"/>
        </g>
      </g>
      <g id="Group_709" data-name="Group 709" transform="translate(23.325 2.43)">
        <g id="Group_703" data-name="Group 703">
          <path id="Path_1376" data-name="Path 1376" d="M60.634,19.687l.81.46-9.022,5.084-.811-.468Z" transform="translate(-51.612 -19.687)" fill="#080a0d"/>
          <path id="Path_1377" data-name="Path 1377" d="M60.634,20.083l.466.265.344-.2-.81-.46-9.022,5.077.345.2Z" transform="translate(-51.612 -19.687)" fill="#4f6580"/>
          <path id="Path_1378" data-name="Path 1378" d="M57.611,19.687v.4l.466.265.344-.2Z" transform="translate(-48.589 -19.687)" fill="#161c24"/>
        </g>
        <g id="Group_704" data-name="Group 704" transform="translate(1.306 0.752)">
          <path id="Path_1379" data-name="Path 1379" d="M61.5,20.188l.81.46-9.022,5.084-.811-.468Z" transform="translate(-52.481 -20.188)" fill="#080a0d"/>
          <path id="Path_1380" data-name="Path 1380" d="M61.5,20.583l.466.265.344-.2-.81-.46-9.022,5.077.345.2Z" transform="translate(-52.481 -20.188)" fill="#4f6580"/>
          <path id="Path_1381" data-name="Path 1381" d="M58.48,20.188v.4l.466.265.344-.2Z" transform="translate(-49.458 -20.188)" fill="#161c24"/>
        </g>
        <g id="Group_705" data-name="Group 705" transform="translate(2.612 1.505)">
          <path id="Path_1382" data-name="Path 1382" d="M62.371,20.688l.81.46L54.16,26.232l-.811-.468Z" transform="translate(-53.349 -20.688)" fill="#080a0d"/>
          <path id="Path_1383" data-name="Path 1383" d="M62.371,21.083l.466.265.344-.2-.81-.46-9.022,5.077.345.195Z" transform="translate(-53.349 -20.688)" fill="#4f6580"/>
          <path id="Path_1384" data-name="Path 1384" d="M59.348,20.688v.4l.466.265.344-.2Z" transform="translate(-50.326 -20.688)" fill="#161c24"/>
        </g>
        <g id="Group_706" data-name="Group 706" transform="translate(3.918 2.257)">
          <path id="Path_1385" data-name="Path 1385" d="M63.239,21.188l.81.46-9.022,5.084-.811-.468Z" transform="translate(-54.217 -21.188)" fill="#080a0d"/>
          <path id="Path_1386" data-name="Path 1386" d="M63.239,21.583l.466.265.344-.2-.81-.46-9.022,5.077.345.195Z" transform="translate(-54.217 -21.188)" fill="#4f6580"/>
          <path id="Path_1387" data-name="Path 1387" d="M60.216,21.188v.4l.466.265.344-.2Z" transform="translate(-51.194 -21.188)" fill="#161c24"/>
        </g>
        <g id="Group_707" data-name="Group 707" transform="translate(5.224 3.01)">
          <path id="Path_1388" data-name="Path 1388" d="M64.108,21.688l.81.46L55.9,27.233l-.811-.468Z" transform="translate(-55.086 -21.688)" fill="#080a0d"/>
          <path id="Path_1389" data-name="Path 1389" d="M64.108,22.084l.466.265.344-.2-.81-.46-9.022,5.077.345.195Z" transform="translate(-55.086 -21.688)" fill="#4f6580"/>
          <path id="Path_1390" data-name="Path 1390" d="M61.085,21.688v.4l.466.265.344-.2Z" transform="translate(-52.063 -21.688)" fill="#161c24"/>
        </g>
        <g id="Group_708" data-name="Group 708" transform="translate(6.53 3.762)">
          <path id="Path_1391" data-name="Path 1391" d="M64.976,22.189l.81.46-9.022,5.084-.811-.468Z" transform="translate(-55.954 -22.189)" fill="#080a0d"/>
          <path id="Path_1392" data-name="Path 1392" d="M64.976,22.584l.466.265.344-.2-.81-.46-9.022,5.077.345.2Z" transform="translate(-55.954 -22.189)" fill="#4f6580"/>
          <path id="Path_1393" data-name="Path 1393" d="M61.953,22.189v.4l.466.265.344-.2Z" transform="translate(-52.931 -22.189)" fill="#161c24"/>
        </g>
      </g>
      <g id="Group_721" data-name="Group 721" transform="translate(40.529 67.452)">
        <g id="Group_710" data-name="Group 710">
          <path id="Path_1394" data-name="Path 1394" d="M63.425,77.242,87.887,63.107v5.368L63.425,82.606Z" transform="translate(-62.863 -62.829)" fill="#293542"/>
          <path id="Path_1395" data-name="Path 1395" d="M87.365,63.557v4.466L63.685,81.7V77.241Z" transform="translate(-62.732 -62.603)" fill="#10161a"/>
          <path id="Path_1396" data-name="Path 1396" d="M86.814,63.876V67.7L63.685,81.06V81.7L87.365,68.023V63.557Z" transform="translate(-62.732 -62.603)" fill="#3f5166"/>
          <path id="Path_1397" data-name="Path 1397" d="M79.064,63.876V67.7l.552.322V63.557Z" transform="translate(-54.983 -62.603)" fill="#161c24"/>
          <path id="Path_1398" data-name="Path 1398" d="M87.514,62.922l.561.277L63.613,77.335l-.561-.277Z" transform="translate(-63.051 -62.922)" fill="#3f5166"/>
          <path id="Path_1399" data-name="Path 1399" d="M63.613,77.963l-.561-.277V72.321l.561.277Z" transform="translate(-63.051 -58.186)" fill="#161c24"/>
        </g>
        <g id="Group_711" data-name="Group 711" transform="translate(11.202 8.081)">
          <path id="Path_1400" data-name="Path 1400" d="M70.5,68.827v3.824l.552.323V68.508Z" transform="translate(-70.5 -68.189)" fill="#161c24"/>
          <path id="Path_1401" data-name="Path 1401" d="M71.418,68.3v4.462l-.552.323V68.615Z" transform="translate(-70.315 -68.296)" fill="#293542"/>
        </g>
        <g id="Group_712" data-name="Group 712" transform="translate(14.341 6.261)">
          <path id="Path_1402" data-name="Path 1402" d="M72.587,67.617v3.824l.552.323V67.3Z" transform="translate(-72.587 -66.979)" fill="#161c24"/>
          <path id="Path_1403" data-name="Path 1403" d="M73.506,67.086v4.462l-.552.323V67.4Z" transform="translate(-72.402 -67.086)" fill="#293542"/>
        </g>
        <g id="Group_713" data-name="Group 713" transform="translate(7.811 10.033)">
          <path id="Path_1404" data-name="Path 1404" d="M68.245,70.125v3.824l.552.322V69.806Z" transform="translate(-68.245 -69.487)" fill="#161c24"/>
          <path id="Path_1405" data-name="Path 1405" d="M69.164,69.594v4.462l-.552.322V69.913Z" transform="translate(-68.06 -69.594)" fill="#293542"/>
        </g>
        <path id="Path_1406" data-name="Path 1406" d="M71.234,68.692v3.819l2.036-1.177V67.51Z" transform="translate(-58.928 -60.611)" fill="#c92222"/>
        <path id="Path_1407" data-name="Path 1407" d="M71.234,68.692V70.7l2.036-1.177V67.51Z" transform="translate(-58.928 -60.611)" fill="#5fe134"/>
        <g id="Group_714" data-name="Group 714" transform="translate(8.915 10.486)">
          <path id="Path_1408" data-name="Path 1408" d="M71.266,69.895l.53.218-2.817,1.636V71.2Z" transform="translate(-68.979 -69.895)" fill="#364557"/>
          <path id="Path_1409" data-name="Path 1409" d="M71.8,70.04v.348l-2.817,1.636v-.347Z" transform="translate(-68.979 -69.822)" fill="#293542"/>
        </g>
        <g id="Group_715" data-name="Group 715" transform="translate(5.976 13.089)">
          <path id="Path_1410" data-name="Path 1410" d="M67.025,72.257l.44.258,1.106-.638-.425-.251Z" transform="translate(-67.025 -71.626)" fill="#5fe134"/>
          <path id="Path_1411" data-name="Path 1411" d="M68.423,71.793v1.094l-1.106.638V72.431Z" transform="translate(-66.877 -71.542)" fill="#46c91a"/>
          <path id="Path_1412" data-name="Path 1412" d="M67.025,72.045v1.094l.44.258V72.3Z" transform="translate(-67.025 -71.414)" fill="#3aa615"/>
        </g>
        <g id="Group_716" data-name="Group 716" transform="translate(5.976 11.434)">
          <path id="Path_1413" data-name="Path 1413" d="M67.025,71.156l.44.258,1.106-.638-.425-.251Z" transform="translate(-67.025 -70.525)" fill="#c93b3b"/>
          <path id="Path_1414" data-name="Path 1414" d="M68.423,70.692v1.094l-1.106.638V71.33Z" transform="translate(-66.877 -70.441)" fill="#c92222"/>
          <path id="Path_1415" data-name="Path 1415" d="M67.025,70.945v1.094l.44.258V71.2Z" transform="translate(-67.025 -70.314)" fill="#ad1010"/>
        </g>
        <g id="Group_717" data-name="Group 717" transform="translate(1.131 15.952)">
          <path id="Path_1416" data-name="Path 1416" d="M63.8,74.16l.44.258,1.106-.638-.425-.251Z" transform="translate(-63.804 -73.529)" fill="#eef539"/>
          <path id="Path_1417" data-name="Path 1417" d="M65.2,73.7V74.79l-1.106.638V74.334Z" transform="translate(-63.656 -73.445)" fill="#d6dd1d"/>
          <path id="Path_1418" data-name="Path 1418" d="M63.8,73.949v1.094l.44.258V74.207Z" transform="translate(-63.804 -73.318)" fill="#b5ba18"/>
        </g>
        <g id="Group_718" data-name="Group 718" transform="translate(1.131 14.296)">
          <path id="Path_1419" data-name="Path 1419" d="M63.8,73.059l.44.258,1.106-.638-.425-.251Z" transform="translate(-63.804 -72.428)" fill="#3b50c9"/>
          <path id="Path_1420" data-name="Path 1420" d="M65.2,72.6v1.094l-1.106.638V73.234Z" transform="translate(-63.656 -72.344)" fill="#223bc9"/>
          <path id="Path_1421" data-name="Path 1421" d="M63.8,72.848v1.094l.44.258V73.106Z" transform="translate(-63.804 -72.217)" fill="#1028ad"/>
        </g>
        <g id="Group_719" data-name="Group 719" transform="translate(3.513 14.521)">
          <path id="Path_1422" data-name="Path 1422" d="M65.388,73.209l.44.258,1.106-.638-.425-.251Z" transform="translate(-65.388 -72.578)" fill="#22c2ff"/>
          <path id="Path_1423" data-name="Path 1423" d="M66.786,72.745v1.094l-1.106.638V73.383Z" transform="translate(-65.24 -72.494)" fill="#08b2f2"/>
          <path id="Path_1424" data-name="Path 1424" d="M65.388,73v1.094l.44.258V73.256Z" transform="translate(-65.388 -72.367)" fill="#07a4de"/>
        </g>
        <g id="Group_720" data-name="Group 720" transform="translate(3.513 12.866)">
          <path id="Path_1425" data-name="Path 1425" d="M65.388,72.108l.44.258,1.106-.638-.425-.251Z" transform="translate(-65.388 -71.477)" fill="#f2ab47"/>
          <path id="Path_1426" data-name="Path 1426" d="M66.786,71.644v1.094l-1.106.638V72.283Z" transform="translate(-65.24 -71.393)" fill="#f29e29"/>
          <path id="Path_1427" data-name="Path 1427" d="M65.388,71.9v1.094l.44.258V72.155Z" transform="translate(-65.388 -71.266)" fill="#d68514"/>
        </g>
        <path id="Path_1428" data-name="Path 1428" d="M74.1,71.013V68.195l6.3-3.637v2.788Z" transform="translate(-57.485 -62.098)" fill="#637487"/>
      </g>
      <g id="Group_730" data-name="Group 730" transform="translate(40.529 94.084)">
        <g id="Group_722" data-name="Group 722">
          <path id="Path_1429" data-name="Path 1429" d="M63.425,94.95,87.887,80.816V94.363L63.425,108.493Z" transform="translate(-62.863 -80.538)" fill="#293542"/>
          <path id="Path_1430" data-name="Path 1430" d="M87.365,81.266V93.91L63.685,107.589V94.949Z" transform="translate(-62.732 -80.311)" fill="#10161a"/>
          <path id="Path_1431" data-name="Path 1431" d="M86.814,81.584v12l-23.129,13.36v.641L87.365,93.91V81.266Z" transform="translate(-62.732 -80.311)" fill="#3f5166"/>
          <path id="Path_1432" data-name="Path 1432" d="M79.064,81.584v12l.552.322V81.266Z" transform="translate(-54.983 -80.311)" fill="#161c24"/>
          <path id="Path_1433" data-name="Path 1433" d="M87.514,80.631l.561.277L63.613,95.043l-.561-.277Z" transform="translate(-63.051 -80.631)" fill="#3f5166"/>
          <path id="Path_1434" data-name="Path 1434" d="M63.613,103.85l-.561-.277V90.03l.561.277Z" transform="translate(-63.051 -75.895)" fill="#161c24"/>
        </g>
        <g id="Group_723" data-name="Group 723" transform="translate(1.131 24.13)">
          <path id="Path_1435" data-name="Path 1435" d="M63.8,97.307l.44.258,1.106-.638-.425-.251Z" transform="translate(-63.804 -96.676)" fill="#96afcc"/>
          <path id="Path_1436" data-name="Path 1436" d="M65.2,96.843v1.094l-1.106.638V97.481Z" transform="translate(-63.656 -96.592)" fill="#718399"/>
          <path id="Path_1437" data-name="Path 1437" d="M63.8,97.1V98.19l.44.258V97.354Z" transform="translate(-63.804 -96.465)" fill="#3f5166"/>
        </g>
        <g id="Group_724" data-name="Group 724" transform="translate(1.131 22.475)">
          <path id="Path_1438" data-name="Path 1438" d="M63.8,96.206l.44.258,1.106-.638-.425-.251Z" transform="translate(-63.804 -95.575)" fill="#96afcc"/>
          <path id="Path_1439" data-name="Path 1439" d="M65.2,95.742v1.094l-1.106.638V96.381Z" transform="translate(-63.656 -95.491)" fill="#718399"/>
          <path id="Path_1440" data-name="Path 1440" d="M63.8,95.995v1.094l.44.258V96.253Z" transform="translate(-63.804 -95.364)" fill="#3f5166"/>
        </g>
        <g id="Group_725" data-name="Group 725" transform="translate(1.131 20.756)">
          <path id="Path_1441" data-name="Path 1441" d="M63.8,95.063l.44.258,1.106-.638-.425-.251Z" transform="translate(-63.804 -94.432)" fill="#96afcc"/>
          <path id="Path_1442" data-name="Path 1442" d="M65.2,94.6v1.094l-1.106.638V95.237Z" transform="translate(-63.656 -94.348)" fill="#718399"/>
          <path id="Path_1443" data-name="Path 1443" d="M63.8,94.852v1.094l.44.258V95.11Z" transform="translate(-63.804 -94.221)" fill="#3f5166"/>
        </g>
        <g id="Group_726" data-name="Group 726" transform="translate(1.131 19.1)">
          <path id="Path_1444" data-name="Path 1444" d="M63.8,93.962l.44.258,1.106-.638-.425-.251Z" transform="translate(-63.804 -93.331)" fill="#96afcc"/>
          <path id="Path_1445" data-name="Path 1445" d="M65.2,93.5v1.094L64.1,95.23V94.137Z" transform="translate(-63.656 -93.247)" fill="#718399"/>
          <path id="Path_1446" data-name="Path 1446" d="M63.8,93.751v1.094l.44.258V94.009Z" transform="translate(-63.804 -93.12)" fill="#3f5166"/>
        </g>
        <g id="Group_727" data-name="Group 727" transform="translate(1.131 17.381)">
          <path id="Path_1447" data-name="Path 1447" d="M63.8,92.819l.44.258,1.106-.638-.425-.251Z" transform="translate(-63.804 -92.188)" fill="#96afcc"/>
          <path id="Path_1448" data-name="Path 1448" d="M65.2,92.355v1.094l-1.106.638V92.993Z" transform="translate(-63.656 -92.104)" fill="#718399"/>
          <path id="Path_1449" data-name="Path 1449" d="M63.8,92.608V93.7l.44.258V92.866Z" transform="translate(-63.804 -91.977)" fill="#3f5166"/>
        </g>
        <g id="Group_728" data-name="Group 728" transform="translate(1.131 15.725)">
          <path id="Path_1450" data-name="Path 1450" d="M63.8,91.718l.44.258,1.106-.638-.425-.251Z" transform="translate(-63.804 -91.087)" fill="#96afcc"/>
          <path id="Path_1451" data-name="Path 1451" d="M65.2,91.254v1.094l-1.106.638V91.892Z" transform="translate(-63.656 -91.003)" fill="#718399"/>
          <path id="Path_1452" data-name="Path 1452" d="M63.8,91.507V92.6l.44.258V91.765Z" transform="translate(-63.804 -90.876)" fill="#3f5166"/>
        </g>
        <g id="Group_729" data-name="Group 729" transform="translate(1.131 14.135)">
          <path id="Path_1453" data-name="Path 1453" d="M63.8,90.661l.44.258,1.106-.638-.425-.251Z" transform="translate(-63.804 -90.03)" fill="#96afcc"/>
          <path id="Path_1454" data-name="Path 1454" d="M65.2,90.2v1.094l-1.106.638V90.835Z" transform="translate(-63.656 -89.946)" fill="#718399"/>
          <path id="Path_1455" data-name="Path 1455" d="M63.8,90.45v1.094l.44.258V90.708Z" transform="translate(-63.804 -89.818)" fill="#3f5166"/>
        </g>
        <path id="Path_1456" data-name="Path 1456" d="M65.289,104.429V94.022L84.835,82.659V93.036Z" transform="translate(-61.924 -79.609)" fill="#637487"/>
      </g>
      <g id="Group_738" data-name="Group 738" transform="translate(40.529 87.682)">
        <g id="Group_731" data-name="Group 731">
          <path id="Path_1457" data-name="Path 1457" d="M63.425,90.694,87.887,76.559v5.369L63.425,96.058Z" transform="translate(-62.863 -76.282)" fill="#293542"/>
          <path id="Path_1458" data-name="Path 1458" d="M87.365,77.009v4.466L63.685,95.154V90.693Z" transform="translate(-62.732 -76.055)" fill="#10161a"/>
          <path id="Path_1459" data-name="Path 1459" d="M86.814,77.328v3.824L63.685,94.513v.641L87.365,81.475V77.009Z" transform="translate(-62.732 -76.055)" fill="#3f5166"/>
          <path id="Path_1460" data-name="Path 1460" d="M79.064,77.328v3.824l.552.323V77.009Z" transform="translate(-54.983 -76.055)" fill="#161c24"/>
          <path id="Path_1461" data-name="Path 1461" d="M87.514,76.375l.561.277L63.613,90.787l-.561-.277Z" transform="translate(-63.051 -76.375)" fill="#3f5166"/>
          <path id="Path_1462" data-name="Path 1462" d="M63.613,91.415l-.561-.277V85.773l.561.277Z" transform="translate(-63.051 -71.638)" fill="#161c24"/>
        </g>
        <g id="Group_732" data-name="Group 732" transform="translate(5.976 13.089)">
          <path id="Path_1463" data-name="Path 1463" d="M67.025,85.709l.44.258,1.106-.638-.425-.251Z" transform="translate(-67.025 -85.078)" fill="#96afcc"/>
          <path id="Path_1464" data-name="Path 1464" d="M68.423,85.245v1.094l-1.106.638V85.883Z" transform="translate(-66.877 -84.994)" fill="#718399"/>
          <path id="Path_1465" data-name="Path 1465" d="M67.025,85.5v1.094l.44.258V85.756Z" transform="translate(-67.025 -84.867)" fill="#3f5166"/>
        </g>
        <g id="Group_733" data-name="Group 733" transform="translate(5.976 11.434)">
          <path id="Path_1466" data-name="Path 1466" d="M67.025,84.608l.44.258,1.106-.638-.425-.251Z" transform="translate(-67.025 -83.977)" fill="#96afcc"/>
          <path id="Path_1467" data-name="Path 1467" d="M68.423,84.144v1.094l-1.106.638V84.783Z" transform="translate(-66.877 -83.893)" fill="#718399"/>
          <path id="Path_1468" data-name="Path 1468" d="M67.025,84.4v1.094l.44.258V84.655Z" transform="translate(-67.025 -83.766)" fill="#3f5166"/>
        </g>
        <g id="Group_734" data-name="Group 734" transform="translate(1.131 15.952)">
          <path id="Path_1469" data-name="Path 1469" d="M63.8,87.613l.44.258,1.106-.638-.425-.251Z" transform="translate(-63.804 -86.982)" fill="#96afcc"/>
          <path id="Path_1470" data-name="Path 1470" d="M65.2,87.148v1.094l-1.106.638V87.787Z" transform="translate(-63.656 -86.897)" fill="#718399"/>
          <path id="Path_1471" data-name="Path 1471" d="M63.8,87.4V88.5l.44.258V87.659Z" transform="translate(-63.804 -86.77)" fill="#3f5166"/>
        </g>
        <g id="Group_735" data-name="Group 735" transform="translate(1.131 14.296)">
          <path id="Path_1472" data-name="Path 1472" d="M63.8,86.512l.44.258,1.106-.638-.425-.251Z" transform="translate(-63.804 -85.881)" fill="#96afcc"/>
          <path id="Path_1473" data-name="Path 1473" d="M65.2,86.048v1.094L64.1,87.78V86.686Z" transform="translate(-63.656 -85.797)" fill="#718399"/>
          <path id="Path_1474" data-name="Path 1474" d="M63.8,86.3v1.094l.44.258V86.559Z" transform="translate(-63.804 -85.669)" fill="#3f5166"/>
        </g>
        <g id="Group_736" data-name="Group 736" transform="translate(3.513 14.521)">
          <path id="Path_1475" data-name="Path 1475" d="M65.388,86.661l.44.258,1.106-.638-.425-.251Z" transform="translate(-65.388 -86.03)" fill="#96afcc"/>
          <path id="Path_1476" data-name="Path 1476" d="M66.786,86.2v1.094l-1.106.638V86.836Z" transform="translate(-65.24 -85.946)" fill="#718399"/>
          <path id="Path_1477" data-name="Path 1477" d="M65.388,86.45v1.094l.44.258V86.708Z" transform="translate(-65.388 -85.819)" fill="#3f5166"/>
        </g>
        <g id="Group_737" data-name="Group 737" transform="translate(3.513 12.866)">
          <path id="Path_1478" data-name="Path 1478" d="M65.388,85.561l.44.258,1.106-.638-.425-.251Z" transform="translate(-65.388 -84.93)" fill="#96afcc"/>
          <path id="Path_1479" data-name="Path 1479" d="M66.786,85.1V86.19l-1.106.638V85.735Z" transform="translate(-65.24 -84.846)" fill="#718399"/>
          <path id="Path_1480" data-name="Path 1480" d="M65.388,85.349v1.094l.44.258V85.607Z" transform="translate(-65.388 -84.718)" fill="#3f5166"/>
        </g>
        <path id="Path_1481" data-name="Path 1481" d="M68.679,89.282V86.464L83.127,78.01V80.8Z" transform="translate(-60.216 -75.55)" fill="#637487"/>
      </g>
      <g id="Group_746" data-name="Group 746" transform="translate(40.529 80.983)">
        <g id="Group_739" data-name="Group 739">
          <path id="Path_1482" data-name="Path 1482" d="M63.425,86.24,87.887,72.1v5.368L63.425,91.6Z" transform="translate(-62.863 -71.827)" fill="#293542"/>
          <path id="Path_1483" data-name="Path 1483" d="M87.365,72.555v4.466L63.685,90.7V86.239Z" transform="translate(-62.732 -71.6)" fill="#10161a"/>
          <path id="Path_1484" data-name="Path 1484" d="M86.814,72.874V76.7L63.685,90.058V90.7L87.365,77.021V72.555Z" transform="translate(-62.732 -71.6)" fill="#3f5166"/>
          <path id="Path_1485" data-name="Path 1485" d="M79.064,72.874V76.7l.552.323V72.555Z" transform="translate(-54.983 -71.6)" fill="#161c24"/>
          <path id="Path_1486" data-name="Path 1486" d="M87.514,71.92l.561.277L63.613,86.333l-.561-.277Z" transform="translate(-63.051 -71.92)" fill="#3f5166"/>
          <path id="Path_1487" data-name="Path 1487" d="M63.613,86.96l-.561-.277V81.319l.561.277Z" transform="translate(-63.051 -67.184)" fill="#161c24"/>
        </g>
        <g id="Group_740" data-name="Group 740" transform="translate(5.976 13.089)">
          <path id="Path_1488" data-name="Path 1488" d="M67.025,81.255l.44.258,1.106-.638-.425-.251Z" transform="translate(-67.025 -80.624)" fill="#96afcc"/>
          <path id="Path_1489" data-name="Path 1489" d="M68.423,80.79v1.094l-1.106.638V81.429Z" transform="translate(-66.877 -80.54)" fill="#718399"/>
          <path id="Path_1490" data-name="Path 1490" d="M67.025,81.043v1.094l.44.258V81.3Z" transform="translate(-67.025 -80.412)" fill="#3f5166"/>
        </g>
        <g id="Group_741" data-name="Group 741" transform="translate(5.976 11.434)">
          <path id="Path_1491" data-name="Path 1491" d="M67.025,80.154l.44.258,1.106-.638-.425-.251Z" transform="translate(-67.025 -79.523)" fill="#96afcc"/>
          <path id="Path_1492" data-name="Path 1492" d="M68.423,79.69v1.094l-1.106.638V80.328Z" transform="translate(-66.877 -79.439)" fill="#718399"/>
          <path id="Path_1493" data-name="Path 1493" d="M67.025,79.942v1.094l.44.258V80.2Z" transform="translate(-67.025 -79.311)" fill="#3f5166"/>
        </g>
        <g id="Group_742" data-name="Group 742" transform="translate(1.131 15.952)">
          <path id="Path_1494" data-name="Path 1494" d="M63.8,83.158l.44.258,1.106-.638-.425-.251Z" transform="translate(-63.804 -82.527)" fill="#96afcc"/>
          <path id="Path_1495" data-name="Path 1495" d="M65.2,82.694v1.094l-1.106.638V83.332Z" transform="translate(-63.656 -82.443)" fill="#718399"/>
          <path id="Path_1496" data-name="Path 1496" d="M63.8,82.947V84.04l.44.258V83.2Z" transform="translate(-63.804 -82.316)" fill="#3f5166"/>
        </g>
        <g id="Group_743" data-name="Group 743" transform="translate(1.131 14.296)">
          <path id="Path_1497" data-name="Path 1497" d="M63.8,82.057l.44.258,1.106-.638-.425-.251Z" transform="translate(-63.804 -81.426)" fill="#96afcc"/>
          <path id="Path_1498" data-name="Path 1498" d="M65.2,81.593v1.094l-1.106.638V82.231Z" transform="translate(-63.656 -81.342)" fill="#718399"/>
          <path id="Path_1499" data-name="Path 1499" d="M63.8,81.846V82.94l.44.258V82.1Z" transform="translate(-63.804 -81.215)" fill="#3f5166"/>
        </g>
        <g id="Group_744" data-name="Group 744" transform="translate(3.513 14.521)">
          <path id="Path_1500" data-name="Path 1500" d="M65.388,82.207l.44.258,1.106-.638-.425-.251Z" transform="translate(-65.388 -81.576)" fill="#96afcc"/>
          <path id="Path_1501" data-name="Path 1501" d="M66.786,81.743v1.094l-1.106.638V82.381Z" transform="translate(-65.24 -81.492)" fill="#718399"/>
          <path id="Path_1502" data-name="Path 1502" d="M65.388,82v1.094l.44.258V82.254Z" transform="translate(-65.388 -81.364)" fill="#3f5166"/>
        </g>
        <g id="Group_745" data-name="Group 745" transform="translate(3.513 12.866)">
          <path id="Path_1503" data-name="Path 1503" d="M65.388,81.106l.44.258,1.106-.638-.425-.251Z" transform="translate(-65.388 -80.475)" fill="#96afcc"/>
          <path id="Path_1504" data-name="Path 1504" d="M66.786,80.642v1.094l-1.106.638V81.28Z" transform="translate(-65.24 -80.391)" fill="#718399"/>
          <path id="Path_1505" data-name="Path 1505" d="M65.388,80.895v1.094l.44.258V81.153Z" transform="translate(-65.388 -80.264)" fill="#3f5166"/>
        </g>
        <path id="Path_1506" data-name="Path 1506" d="M68.679,84.828V82.01l14.449-8.454v2.788Z" transform="translate(-60.216 -71.096)" fill="#637487"/>
      </g>
      <g id="Group_754" data-name="Group 754" transform="translate(40.529 74.284)">
        <g id="Group_747" data-name="Group 747">
          <path id="Path_1507" data-name="Path 1507" d="M63.425,81.785,87.887,67.65v5.368L63.425,87.149Z" transform="translate(-62.863 -67.373)" fill="#293542"/>
          <path id="Path_1508" data-name="Path 1508" d="M87.365,68.1v4.466L63.685,86.245V81.784Z" transform="translate(-62.732 -67.146)" fill="#10161a"/>
          <path id="Path_1509" data-name="Path 1509" d="M86.814,68.419v3.824L63.685,85.6v.641L87.365,72.566V68.1Z" transform="translate(-62.732 -67.146)" fill="#3f5166"/>
          <path id="Path_1510" data-name="Path 1510" d="M79.064,68.419v3.824l.552.322V68.1Z" transform="translate(-54.983 -67.146)" fill="#161c24"/>
          <path id="Path_1511" data-name="Path 1511" d="M87.514,67.466l.561.277L63.613,81.878l-.561-.277Z" transform="translate(-63.051 -67.466)" fill="#3f5166"/>
          <path id="Path_1512" data-name="Path 1512" d="M63.613,82.506l-.561-.277V76.865l.561.277Z" transform="translate(-63.051 -62.73)" fill="#161c24"/>
        </g>
        <g id="Group_748" data-name="Group 748" transform="translate(5.976 13.089)">
          <path id="Path_1513" data-name="Path 1513" d="M67.025,76.8l.44.258,1.106-.638-.425-.251Z" transform="translate(-67.025 -76.169)" fill="#96afcc"/>
          <path id="Path_1514" data-name="Path 1514" d="M68.423,76.336V77.43l-1.106.638V76.974Z" transform="translate(-66.877 -76.085)" fill="#718399"/>
          <path id="Path_1515" data-name="Path 1515" d="M67.025,76.589v1.094l.44.258V76.847Z" transform="translate(-67.025 -75.958)" fill="#3f5166"/>
        </g>
        <g id="Group_749" data-name="Group 749" transform="translate(5.976 11.434)">
          <path id="Path_1516" data-name="Path 1516" d="M67.025,75.7l.44.258,1.106-.638-.425-.251Z" transform="translate(-67.025 -75.068)" fill="#96afcc"/>
          <path id="Path_1517" data-name="Path 1517" d="M68.423,75.235v1.094l-1.106.638V75.874Z" transform="translate(-66.877 -74.984)" fill="#718399"/>
          <path id="Path_1518" data-name="Path 1518" d="M67.025,75.488v1.094l.44.258V75.746Z" transform="translate(-67.025 -74.857)" fill="#3f5166"/>
        </g>
        <g id="Group_750" data-name="Group 750" transform="translate(1.131 15.952)">
          <path id="Path_1519" data-name="Path 1519" d="M63.8,78.7l.44.258,1.106-.638-.425-.251Z" transform="translate(-63.804 -78.073)" fill="#96afcc"/>
          <path id="Path_1520" data-name="Path 1520" d="M65.2,78.239v1.094l-1.106.638V78.878Z" transform="translate(-63.656 -77.989)" fill="#718399"/>
          <path id="Path_1521" data-name="Path 1521" d="M63.8,78.492v1.094l.44.258V78.75Z" transform="translate(-63.804 -77.861)" fill="#3f5166"/>
        </g>
        <g id="Group_751" data-name="Group 751" transform="translate(1.131 14.296)">
          <path id="Path_1522" data-name="Path 1522" d="M63.8,77.6l.44.258,1.106-.638-.425-.251Z" transform="translate(-63.804 -76.972)" fill="#96afcc"/>
          <path id="Path_1523" data-name="Path 1523" d="M65.2,77.139v1.094l-1.106.638V77.777Z" transform="translate(-63.656 -76.888)" fill="#718399"/>
          <path id="Path_1524" data-name="Path 1524" d="M63.8,77.391v1.094l.44.258V77.65Z" transform="translate(-63.804 -76.76)" fill="#3f5166"/>
        </g>
        <g id="Group_752" data-name="Group 752" transform="translate(3.513 14.521)">
          <path id="Path_1525" data-name="Path 1525" d="M65.388,77.753l.44.258,1.106-.638-.425-.251Z" transform="translate(-65.388 -77.121)" fill="#96afcc"/>
          <path id="Path_1526" data-name="Path 1526" d="M66.786,77.288v1.094l-1.106.638V77.927Z" transform="translate(-65.24 -77.037)" fill="#718399"/>
          <path id="Path_1527" data-name="Path 1527" d="M65.388,77.541v1.094l.44.258V77.8Z" transform="translate(-65.388 -76.91)" fill="#3f5166"/>
        </g>
        <g id="Group_753" data-name="Group 753" transform="translate(3.513 12.866)">
          <path id="Path_1528" data-name="Path 1528" d="M65.388,76.652l.44.258,1.106-.638-.425-.251Z" transform="translate(-65.388 -76.021)" fill="#96afcc"/>
          <path id="Path_1529" data-name="Path 1529" d="M66.786,76.188v1.094l-1.106.638V76.826Z" transform="translate(-65.24 -75.937)" fill="#718399"/>
          <path id="Path_1530" data-name="Path 1530" d="M65.388,76.44v1.094l.44.258V76.7Z" transform="translate(-65.388 -75.809)" fill="#3f5166"/>
        </g>
        <path id="Path_1531" data-name="Path 1531" d="M68.679,80.374V77.556L83.127,69.1V71.89Z" transform="translate(-60.216 -66.642)" fill="#637487"/>
      </g>
      <g id="Group_766" data-name="Group 766" transform="translate(40.529 54.327)">
        <g id="Group_755" data-name="Group 755">
          <path id="Path_1532" data-name="Path 1532" d="M63.425,68.515,87.887,54.38v5.368L63.425,73.879Z" transform="translate(-62.863 -54.103)" fill="#293542"/>
          <path id="Path_1533" data-name="Path 1533" d="M87.365,54.83V59.3L63.685,72.975V68.514Z" transform="translate(-62.732 -53.876)" fill="#10161a"/>
          <path id="Path_1534" data-name="Path 1534" d="M86.814,55.149v3.824L63.685,72.333v.641L87.365,59.3V54.83Z" transform="translate(-62.732 -53.876)" fill="#3f5166"/>
          <path id="Path_1535" data-name="Path 1535" d="M79.064,55.149v3.824l.552.323V54.83Z" transform="translate(-54.983 -53.876)" fill="#161c24"/>
          <path id="Path_1536" data-name="Path 1536" d="M87.514,54.2l.561.277L63.613,68.608l-.561-.277Z" transform="translate(-63.051 -54.196)" fill="#3f5166"/>
          <path id="Path_1537" data-name="Path 1537" d="M63.613,69.236l-.561-.277V63.594l.561.277Z" transform="translate(-63.051 -49.459)" fill="#161c24"/>
        </g>
        <g id="Group_756" data-name="Group 756" transform="translate(11.202 8.081)">
          <path id="Path_1538" data-name="Path 1538" d="M70.5,60.1v3.824l.552.322V59.781Z" transform="translate(-70.5 -59.462)" fill="#161c24"/>
          <path id="Path_1539" data-name="Path 1539" d="M71.418,59.569v4.462l-.552.322V59.888Z" transform="translate(-70.315 -59.569)" fill="#293542"/>
        </g>
        <g id="Group_757" data-name="Group 757" transform="translate(14.341 6.261)">
          <path id="Path_1540" data-name="Path 1540" d="M72.587,58.89v3.824l.552.322V58.571Z" transform="translate(-72.587 -58.252)" fill="#161c24"/>
          <path id="Path_1541" data-name="Path 1541" d="M73.506,58.359v4.462l-.552.322V58.678Z" transform="translate(-72.402 -58.359)" fill="#293542"/>
        </g>
        <g id="Group_758" data-name="Group 758" transform="translate(7.811 10.033)">
          <path id="Path_1542" data-name="Path 1542" d="M68.245,61.4v3.824l.552.323V61.079Z" transform="translate(-68.245 -60.76)" fill="#161c24"/>
          <path id="Path_1543" data-name="Path 1543" d="M69.164,60.867v4.462l-.552.323V61.186Z" transform="translate(-68.06 -60.867)" fill="#293542"/>
        </g>
        <path id="Path_1544" data-name="Path 1544" d="M71.234,59.965v3.819l2.036-1.177V58.783Z" transform="translate(-58.928 -51.884)" fill="#c92222"/>
        <path id="Path_1545" data-name="Path 1545" d="M71.234,59.965v2.01L73.269,60.8V58.783Z" transform="translate(-58.928 -51.884)" fill="#5fe134"/>
        <g id="Group_759" data-name="Group 759" transform="translate(8.915 10.486)">
          <path id="Path_1546" data-name="Path 1546" d="M71.266,61.168l.53.218-2.817,1.636v-.55Z" transform="translate(-68.979 -61.168)" fill="#364557"/>
          <path id="Path_1547" data-name="Path 1547" d="M71.8,61.313v.348L68.979,63.3v-.346Z" transform="translate(-68.979 -61.095)" fill="#293542"/>
        </g>
        <g id="Group_760" data-name="Group 760" transform="translate(5.976 13.089)">
          <path id="Path_1548" data-name="Path 1548" d="M67.025,63.53l.44.258,1.106-.638-.425-.251Z" transform="translate(-67.025 -62.899)" fill="#5fe134"/>
          <path id="Path_1549" data-name="Path 1549" d="M68.423,63.066V64.16l-1.106.638V63.7Z" transform="translate(-66.877 -62.815)" fill="#46c91a"/>
          <path id="Path_1550" data-name="Path 1550" d="M67.025,63.319v1.094l.44.258V63.577Z" transform="translate(-67.025 -62.688)" fill="#3aa615"/>
        </g>
        <g id="Group_761" data-name="Group 761" transform="translate(5.976 11.434)">
          <path id="Path_1551" data-name="Path 1551" d="M67.025,62.429l.44.258,1.106-.638-.425-.251Z" transform="translate(-67.025 -61.798)" fill="#c93b3b"/>
          <path id="Path_1552" data-name="Path 1552" d="M68.423,61.965v1.094l-1.106.638V62.6Z" transform="translate(-66.877 -61.714)" fill="#c92222"/>
          <path id="Path_1553" data-name="Path 1553" d="M67.025,62.218v1.094l.44.258V62.476Z" transform="translate(-67.025 -61.587)" fill="#ad1010"/>
        </g>
        <g id="Group_762" data-name="Group 762" transform="translate(1.131 15.952)">
          <path id="Path_1554" data-name="Path 1554" d="M63.8,65.433l.44.258,1.106-.638-.425-.251Z" transform="translate(-63.804 -64.802)" fill="#eef539"/>
          <path id="Path_1555" data-name="Path 1555" d="M65.2,64.969v1.094L64.1,66.7V65.608Z" transform="translate(-63.656 -64.718)" fill="#d6dd1d"/>
          <path id="Path_1556" data-name="Path 1556" d="M63.8,65.222v1.094l.44.258V65.48Z" transform="translate(-63.804 -64.591)" fill="#b5ba18"/>
        </g>
        <g id="Group_763" data-name="Group 763" transform="translate(1.131 14.296)">
          <path id="Path_1557" data-name="Path 1557" d="M63.8,64.333l.44.258,1.106-.638-.425-.251Z" transform="translate(-63.804 -63.702)" fill="#3b50c9"/>
          <path id="Path_1558" data-name="Path 1558" d="M65.2,63.868v1.094L64.1,65.6V64.507Z" transform="translate(-63.656 -63.618)" fill="#223bc9"/>
          <path id="Path_1559" data-name="Path 1559" d="M63.8,64.121v1.094l.44.258V64.379Z" transform="translate(-63.804 -63.49)" fill="#1028ad"/>
        </g>
        <g id="Group_764" data-name="Group 764" transform="translate(3.513 14.521)">
          <path id="Path_1560" data-name="Path 1560" d="M65.388,64.482l.44.258,1.106-.638-.425-.251Z" transform="translate(-65.388 -63.851)" fill="#22c2ff"/>
          <path id="Path_1561" data-name="Path 1561" d="M66.786,64.018v1.094l-1.106.638V64.656Z" transform="translate(-65.24 -63.767)" fill="#08b2f2"/>
          <path id="Path_1562" data-name="Path 1562" d="M65.388,64.271v1.094l.44.258V64.529Z" transform="translate(-65.388 -63.64)" fill="#07a4de"/>
        </g>
        <g id="Group_765" data-name="Group 765" transform="translate(3.513 12.866)">
          <path id="Path_1563" data-name="Path 1563" d="M65.388,63.382l.44.258L66.933,63l-.425-.251Z" transform="translate(-65.388 -62.75)" fill="#f2ab47"/>
          <path id="Path_1564" data-name="Path 1564" d="M66.786,62.917v1.094l-1.106.638V63.556Z" transform="translate(-65.24 -62.666)" fill="#f29e29"/>
          <path id="Path_1565" data-name="Path 1565" d="M65.388,63.17v1.094l.44.258V63.428Z" transform="translate(-65.388 -62.539)" fill="#d68514"/>
        </g>
        <path id="Path_1566" data-name="Path 1566" d="M74.1,62.286V59.468l6.3-3.637v2.788Z" transform="translate(-57.485 -53.371)" fill="#637487"/>
      </g>
      <g id="Group_778" data-name="Group 778" transform="translate(40.529 60.835)">
        <g id="Group_767" data-name="Group 767">
          <path id="Path_1567" data-name="Path 1567" d="M63.425,72.843,87.887,58.708v5.368L63.425,78.206Z" transform="translate(-62.863 -58.43)" fill="#293542"/>
          <path id="Path_1568" data-name="Path 1568" d="M87.365,59.158v4.466L63.685,77.3V72.841Z" transform="translate(-62.732 -58.203)" fill="#10161a"/>
          <path id="Path_1569" data-name="Path 1569" d="M86.814,59.477V63.3L63.685,76.661V77.3L87.365,63.623V59.158Z" transform="translate(-62.732 -58.203)" fill="#3f5166"/>
          <path id="Path_1570" data-name="Path 1570" d="M79.064,59.477V63.3l.552.323V59.158Z" transform="translate(-54.983 -58.203)" fill="#161c24"/>
          <path id="Path_1571" data-name="Path 1571" d="M87.514,58.523l.561.277L63.613,72.936l-.561-.277Z" transform="translate(-63.051 -58.523)" fill="#3f5166"/>
          <path id="Path_1572" data-name="Path 1572" d="M63.613,73.563l-.561-.277V67.922l.561.277Z" transform="translate(-63.051 -53.787)" fill="#161c24"/>
        </g>
        <g id="Group_768" data-name="Group 768" transform="translate(11.202 8.081)">
          <path id="Path_1573" data-name="Path 1573" d="M70.5,64.427v3.824l.552.322V64.108Z" transform="translate(-70.5 -63.79)" fill="#161c24"/>
          <path id="Path_1574" data-name="Path 1574" d="M71.418,63.9v4.462l-.552.322V64.215Z" transform="translate(-70.315 -63.896)" fill="#293542"/>
        </g>
        <g id="Group_769" data-name="Group 769" transform="translate(14.341 6.261)">
          <path id="Path_1575" data-name="Path 1575" d="M72.587,63.217v3.824l.552.322V62.9Z" transform="translate(-72.587 -62.579)" fill="#161c24"/>
          <path id="Path_1576" data-name="Path 1576" d="M73.506,62.686v4.462l-.552.322V63.005Z" transform="translate(-72.402 -62.686)" fill="#293542"/>
        </g>
        <g id="Group_770" data-name="Group 770" transform="translate(7.811 10.033)">
          <path id="Path_1577" data-name="Path 1577" d="M68.245,65.725V69.55l.552.323V65.406Z" transform="translate(-68.245 -65.087)" fill="#161c24"/>
          <path id="Path_1578" data-name="Path 1578" d="M69.164,65.194v4.462l-.552.323V65.513Z" transform="translate(-68.06 -65.194)" fill="#293542"/>
        </g>
        <path id="Path_1579" data-name="Path 1579" d="M71.234,64.293v3.819l2.036-1.177V63.11Z" transform="translate(-58.928 -56.211)" fill="#c92222"/>
        <path id="Path_1580" data-name="Path 1580" d="M71.234,64.293V66.3l2.036-1.177V63.11Z" transform="translate(-58.928 -56.211)" fill="#5fe134"/>
        <g id="Group_771" data-name="Group 771" transform="translate(8.915 10.486)">
          <path id="Path_1581" data-name="Path 1581" d="M71.266,65.5l.53.218-2.817,1.635V66.8Z" transform="translate(-68.979 -65.495)" fill="#364557"/>
          <path id="Path_1582" data-name="Path 1582" d="M71.8,65.64v.348l-2.817,1.635v-.346Z" transform="translate(-68.979 -65.422)" fill="#293542"/>
        </g>
        <g id="Group_772" data-name="Group 772" transform="translate(5.976 13.089)">
          <path id="Path_1583" data-name="Path 1583" d="M67.025,67.858l.44.258,1.106-.638-.425-.251Z" transform="translate(-67.025 -67.227)" fill="#5fe134"/>
          <path id="Path_1584" data-name="Path 1584" d="M68.423,67.393v1.094l-1.106.638V68.032Z" transform="translate(-66.877 -67.142)" fill="#46c91a"/>
          <path id="Path_1585" data-name="Path 1585" d="M67.025,67.646V68.74l.44.258V67.9Z" transform="translate(-67.025 -67.015)" fill="#3aa615"/>
        </g>
        <g id="Group_773" data-name="Group 773" transform="translate(5.976 11.434)">
          <path id="Path_1586" data-name="Path 1586" d="M67.025,66.757l.44.258,1.106-.638-.425-.251Z" transform="translate(-67.025 -66.126)" fill="#c93b3b"/>
          <path id="Path_1587" data-name="Path 1587" d="M68.423,66.293v1.094l-1.106.638V66.931Z" transform="translate(-66.877 -66.042)" fill="#c92222"/>
          <path id="Path_1588" data-name="Path 1588" d="M67.025,66.545v1.094l.44.258V66.8Z" transform="translate(-67.025 -65.914)" fill="#ad1010"/>
        </g>
        <g id="Group_774" data-name="Group 774" transform="translate(1.131 15.952)">
          <path id="Path_1589" data-name="Path 1589" d="M63.8,69.761l.44.258,1.106-.638-.425-.251Z" transform="translate(-63.804 -69.13)" fill="#eef539"/>
          <path id="Path_1590" data-name="Path 1590" d="M65.2,69.3V70.39l-1.106.638V69.935Z" transform="translate(-63.656 -69.046)" fill="#d6dd1d"/>
          <path id="Path_1591" data-name="Path 1591" d="M63.8,69.549v1.094l.44.258V69.808Z" transform="translate(-63.804 -68.918)" fill="#b5ba18"/>
        </g>
        <g id="Group_775" data-name="Group 775" transform="translate(1.131 14.296)">
          <path id="Path_1592" data-name="Path 1592" d="M63.8,68.66l.44.258,1.106-.638-.425-.251Z" transform="translate(-63.804 -68.029)" fill="#3b50c9"/>
          <path id="Path_1593" data-name="Path 1593" d="M65.2,68.2V69.29l-1.106.638V68.834Z" transform="translate(-63.656 -67.945)" fill="#223bc9"/>
          <path id="Path_1594" data-name="Path 1594" d="M63.8,68.449v1.094l.44.258V68.707Z" transform="translate(-63.804 -67.818)" fill="#1028ad"/>
        </g>
        <g id="Group_776" data-name="Group 776" transform="translate(3.513 14.521)">
          <path id="Path_1595" data-name="Path 1595" d="M65.388,68.81l.44.258,1.106-.638-.425-.251Z" transform="translate(-65.388 -68.179)" fill="#22c2ff"/>
          <path id="Path_1596" data-name="Path 1596" d="M66.786,68.346v1.094l-1.106.638V68.984Z" transform="translate(-65.24 -68.095)" fill="#08b2f2"/>
          <path id="Path_1597" data-name="Path 1597" d="M65.388,68.6v1.094l.44.258V68.857Z" transform="translate(-65.388 -67.967)" fill="#07a4de"/>
        </g>
        <g id="Group_777" data-name="Group 777" transform="translate(3.513 12.866)">
          <path id="Path_1598" data-name="Path 1598" d="M65.388,67.709l.44.258,1.106-.638-.425-.251Z" transform="translate(-65.388 -67.078)" fill="#f2ab47"/>
          <path id="Path_1599" data-name="Path 1599" d="M66.786,67.245v1.094l-1.106.638V67.883Z" transform="translate(-65.24 -66.994)" fill="#f29e29"/>
          <path id="Path_1600" data-name="Path 1600" d="M65.388,67.5v1.094l.44.258V67.756Z" transform="translate(-65.388 -66.866)" fill="#d68514"/>
        </g>
        <path id="Path_1601" data-name="Path 1601" d="M74.1,66.613V63.8l6.3-3.637v2.788Z" transform="translate(-57.485 -57.699)" fill="#637487"/>
      </g>
      <g id="Group_790" data-name="Group 790" transform="translate(40.529 47.661)">
        <g id="Group_779" data-name="Group 779">
          <path id="Path_1602" data-name="Path 1602" d="M63.425,64.083,87.887,49.948v5.369L63.425,69.447Z" transform="translate(-62.863 -49.67)" fill="#293542"/>
          <path id="Path_1603" data-name="Path 1603" d="M87.365,50.4v4.466L63.685,68.543V64.082Z" transform="translate(-62.732 -49.444)" fill="#10161a"/>
          <path id="Path_1604" data-name="Path 1604" d="M86.814,50.717v3.824L63.685,67.9v.641L87.365,54.864V50.4Z" transform="translate(-62.732 -49.444)" fill="#3f5166"/>
          <path id="Path_1605" data-name="Path 1605" d="M79.064,50.717v3.824l.552.323V50.4Z" transform="translate(-54.983 -49.444)" fill="#161c24"/>
          <path id="Path_1606" data-name="Path 1606" d="M87.514,49.763l.561.277L63.613,64.176l-.561-.277Z" transform="translate(-63.051 -49.763)" fill="#3f5166"/>
          <path id="Path_1607" data-name="Path 1607" d="M63.613,64.8l-.561-.277V59.162l.561.277Z" transform="translate(-63.051 -45.027)" fill="#161c24"/>
        </g>
        <g id="Group_780" data-name="Group 780" transform="translate(11.202 8.081)">
          <path id="Path_1608" data-name="Path 1608" d="M70.5,55.668v3.824l.552.322V55.349Z" transform="translate(-70.5 -55.03)" fill="#161c24"/>
          <path id="Path_1609" data-name="Path 1609" d="M71.418,55.137V59.6l-.552.322V55.456Z" transform="translate(-70.315 -55.137)" fill="#293542"/>
        </g>
        <g id="Group_781" data-name="Group 781" transform="translate(14.341 6.261)">
          <path id="Path_1610" data-name="Path 1610" d="M72.587,54.457v3.824l.552.323V54.139Z" transform="translate(-72.587 -53.82)" fill="#161c24"/>
          <path id="Path_1611" data-name="Path 1611" d="M73.506,53.926v4.462l-.552.323V54.245Z" transform="translate(-72.402 -53.926)" fill="#293542"/>
        </g>
        <g id="Group_782" data-name="Group 782" transform="translate(7.811 10.033)">
          <path id="Path_1612" data-name="Path 1612" d="M68.245,56.966V60.79l.552.323V56.647Z" transform="translate(-68.245 -56.328)" fill="#161c24"/>
          <path id="Path_1613" data-name="Path 1613" d="M69.164,56.435V60.9l-.552.323V56.753Z" transform="translate(-68.06 -56.435)" fill="#293542"/>
        </g>
        <path id="Path_1614" data-name="Path 1614" d="M71.234,55.533v3.819l2.036-1.177V54.351Z" transform="translate(-58.928 -47.452)" fill="#c92222"/>
        <path id="Path_1615" data-name="Path 1615" d="M71.234,55.533v2.01l2.036-1.177V54.351Z" transform="translate(-58.928 -47.452)" fill="#5fe134"/>
        <g id="Group_783" data-name="Group 783" transform="translate(8.915 10.486)">
          <path id="Path_1616" data-name="Path 1616" d="M71.266,56.736l.53.218-2.817,1.635v-.55Z" transform="translate(-68.979 -56.736)" fill="#364557"/>
          <path id="Path_1617" data-name="Path 1617" d="M71.8,56.881v.348l-2.817,1.636v-.347Z" transform="translate(-68.979 -56.663)" fill="#293542"/>
        </g>
        <g id="Group_784" data-name="Group 784" transform="translate(5.976 13.089)">
          <path id="Path_1618" data-name="Path 1618" d="M67.025,59.1l.44.258,1.106-.638-.425-.251Z" transform="translate(-67.025 -58.467)" fill="#5fe134"/>
          <path id="Path_1619" data-name="Path 1619" d="M68.423,58.634v1.094l-1.106.638V59.272Z" transform="translate(-66.877 -58.383)" fill="#46c91a"/>
          <path id="Path_1620" data-name="Path 1620" d="M67.025,58.886V59.98l.44.258V59.144Z" transform="translate(-67.025 -58.255)" fill="#3aa615"/>
        </g>
        <g id="Group_785" data-name="Group 785" transform="translate(5.976 11.434)">
          <path id="Path_1621" data-name="Path 1621" d="M67.025,58l.44.258,1.106-.638-.425-.251Z" transform="translate(-67.025 -57.366)" fill="#c93b3b"/>
          <path id="Path_1622" data-name="Path 1622" d="M68.423,57.533v1.094l-1.106.638V58.171Z" transform="translate(-66.877 -57.282)" fill="#c92222"/>
          <path id="Path_1623" data-name="Path 1623" d="M67.025,57.786v1.094l.44.258V58.044Z" transform="translate(-67.025 -57.155)" fill="#ad1010"/>
        </g>
        <g id="Group_786" data-name="Group 786" transform="translate(1.131 15.952)">
          <path id="Path_1624" data-name="Path 1624" d="M63.8,61l.44.258,1.106-.638-.425-.251Z" transform="translate(-63.804 -60.37)" fill="#eef539"/>
          <path id="Path_1625" data-name="Path 1625" d="M65.2,60.537v1.094l-1.106.638V61.175Z" transform="translate(-63.656 -60.286)" fill="#d6dd1d"/>
          <path id="Path_1626" data-name="Path 1626" d="M63.8,60.79v1.094l.44.258V61.048Z" transform="translate(-63.804 -60.159)" fill="#b5ba18"/>
        </g>
        <g id="Group_787" data-name="Group 787" transform="translate(1.131 14.296)">
          <path id="Path_1627" data-name="Path 1627" d="M63.8,59.9l.44.258,1.106-.638-.425-.251Z" transform="translate(-63.804 -59.269)" fill="#3b50c9"/>
          <path id="Path_1628" data-name="Path 1628" d="M65.2,59.436V60.53l-1.106.638V60.075Z" transform="translate(-63.656 -59.185)" fill="#223bc9"/>
          <path id="Path_1629" data-name="Path 1629" d="M63.8,59.689v1.094l.44.258V59.947Z" transform="translate(-63.804 -59.058)" fill="#1028ad"/>
        </g>
        <g id="Group_788" data-name="Group 788" transform="translate(3.513 14.521)">
          <path id="Path_1630" data-name="Path 1630" d="M65.388,60.05l.44.258,1.106-.638-.425-.251Z" transform="translate(-65.388 -59.419)" fill="#22c2ff"/>
          <path id="Path_1631" data-name="Path 1631" d="M66.786,59.586V60.68l-1.106.638V60.224Z" transform="translate(-65.24 -59.335)" fill="#08b2f2"/>
          <path id="Path_1632" data-name="Path 1632" d="M65.388,59.839v1.094l.44.258V60.1Z" transform="translate(-65.388 -59.208)" fill="#07a4de"/>
        </g>
        <g id="Group_789" data-name="Group 789" transform="translate(3.513 12.866)">
          <path id="Path_1633" data-name="Path 1633" d="M65.388,58.949l.44.258,1.106-.638-.425-.251Z" transform="translate(-65.388 -58.318)" fill="#f2ab47"/>
          <path id="Path_1634" data-name="Path 1634" d="M66.786,58.485v1.094l-1.106.638V59.123Z" transform="translate(-65.24 -58.234)" fill="#f29e29"/>
          <path id="Path_1635" data-name="Path 1635" d="M65.388,58.738v1.094l.44.258V59Z" transform="translate(-65.388 -58.107)" fill="#d68514"/>
        </g>
        <path id="Path_1636" data-name="Path 1636" d="M74.1,57.854V55.036L80.4,51.4v2.788Z" transform="translate(-57.485 -48.939)" fill="#637487"/>
      </g>
      <g id="Group_802" data-name="Group 802" transform="translate(40.529 40.996)">
        <g id="Group_791" data-name="Group 791">
          <path id="Path_1637" data-name="Path 1637" d="M63.425,59.651,87.887,45.516v5.368L63.425,65.015Z" transform="translate(-62.863 -45.238)" fill="#293542"/>
          <path id="Path_1638" data-name="Path 1638" d="M87.365,45.966v4.466L63.685,64.11V59.649Z" transform="translate(-62.732 -45.011)" fill="#10161a"/>
          <path id="Path_1639" data-name="Path 1639" d="M86.814,46.285v3.824L63.685,63.469v.641L87.365,50.431V45.966Z" transform="translate(-62.732 -45.011)" fill="#3f5166"/>
          <path id="Path_1640" data-name="Path 1640" d="M79.064,46.285v3.824l.552.322V45.966Z" transform="translate(-54.983 -45.011)" fill="#161c24"/>
          <path id="Path_1641" data-name="Path 1641" d="M87.514,45.331l.561.277L63.613,59.744l-.561-.277Z" transform="translate(-63.051 -45.331)" fill="#3f5166"/>
          <path id="Path_1642" data-name="Path 1642" d="M63.613,60.371l-.561-.277V54.73l.561.277Z" transform="translate(-63.051 -40.595)" fill="#161c24"/>
        </g>
        <g id="Group_792" data-name="Group 792" transform="translate(11.202 8.081)">
          <path id="Path_1643" data-name="Path 1643" d="M70.5,51.235V55.06l.552.323V50.917Z" transform="translate(-70.5 -50.597)" fill="#161c24"/>
          <path id="Path_1644" data-name="Path 1644" d="M71.418,50.7v4.462l-.552.323V51.024Z" transform="translate(-70.315 -50.704)" fill="#293542"/>
        </g>
        <g id="Group_793" data-name="Group 793" transform="translate(14.341 6.261)">
          <path id="Path_1645" data-name="Path 1645" d="M72.587,50.025V53.85l.552.323V49.706Z" transform="translate(-72.587 -49.387)" fill="#161c24"/>
          <path id="Path_1646" data-name="Path 1646" d="M73.506,49.494v4.462l-.552.323V49.813Z" transform="translate(-72.402 -49.494)" fill="#293542"/>
        </g>
        <g id="Group_794" data-name="Group 794" transform="translate(7.811 10.033)">
          <path id="Path_1647" data-name="Path 1647" d="M68.245,52.533v3.824l.552.322V52.214Z" transform="translate(-68.245 -51.895)" fill="#161c24"/>
          <path id="Path_1648" data-name="Path 1648" d="M69.164,52v4.462l-.552.322V52.321Z" transform="translate(-68.06 -52.002)" fill="#293542"/>
        </g>
        <path id="Path_1649" data-name="Path 1649" d="M71.234,51.1v3.819l2.036-1.177V49.918Z" transform="translate(-58.928 -43.02)" fill="#c92222"/>
        <path id="Path_1650" data-name="Path 1650" d="M71.234,51.1v2.01l2.036-1.177V49.918Z" transform="translate(-58.928 -43.02)" fill="#5fe134"/>
        <g id="Group_795" data-name="Group 795" transform="translate(8.915 10.486)">
          <path id="Path_1651" data-name="Path 1651" d="M71.266,52.3l.53.218-2.817,1.636v-.55Z" transform="translate(-68.979 -52.303)" fill="#364557"/>
          <path id="Path_1652" data-name="Path 1652" d="M71.8,52.448V52.8l-2.817,1.635v-.347Z" transform="translate(-68.979 -52.23)" fill="#293542"/>
        </g>
        <g id="Group_796" data-name="Group 796" transform="translate(5.976 13.089)">
          <path id="Path_1653" data-name="Path 1653" d="M67.025,54.666l.44.258,1.106-.638-.425-.251Z" transform="translate(-67.025 -54.035)" fill="#5fe134"/>
          <path id="Path_1654" data-name="Path 1654" d="M68.423,54.2V55.3l-1.106.638V54.84Z" transform="translate(-66.877 -53.95)" fill="#46c91a"/>
          <path id="Path_1655" data-name="Path 1655" d="M67.025,54.454v1.094l.44.258V54.712Z" transform="translate(-67.025 -53.823)" fill="#3aa615"/>
        </g>
        <g id="Group_797" data-name="Group 797" transform="translate(5.976 11.434)">
          <path id="Path_1656" data-name="Path 1656" d="M67.025,53.565l.44.258,1.106-.638-.425-.251Z" transform="translate(-67.025 -52.934)" fill="#c93b3b"/>
          <path id="Path_1657" data-name="Path 1657" d="M68.423,53.1v1.094l-1.106.638V53.739Z" transform="translate(-66.877 -52.85)" fill="#c92222"/>
          <path id="Path_1658" data-name="Path 1658" d="M67.025,53.353v1.094l.44.258V53.612Z" transform="translate(-67.025 -52.722)" fill="#ad1010"/>
        </g>
        <g id="Group_798" data-name="Group 798" transform="translate(1.131 15.952)">
          <path id="Path_1659" data-name="Path 1659" d="M63.8,56.569l.44.258,1.106-.638-.425-.251Z" transform="translate(-63.804 -55.938)" fill="#eef539"/>
          <path id="Path_1660" data-name="Path 1660" d="M65.2,56.1V57.2l-1.106.638V56.743Z" transform="translate(-63.656 -55.854)" fill="#d6dd1d"/>
          <path id="Path_1661" data-name="Path 1661" d="M63.8,56.358v1.094l.44.258V56.616Z" transform="translate(-63.804 -55.726)" fill="#b5ba18"/>
        </g>
        <g id="Group_799" data-name="Group 799" transform="translate(1.131 14.296)">
          <path id="Path_1662" data-name="Path 1662" d="M63.8,55.468l.44.258,1.106-.638-.425-.251Z" transform="translate(-63.804 -54.837)" fill="#3b50c9"/>
          <path id="Path_1663" data-name="Path 1663" d="M65.2,55V56.1l-1.106.638V55.642Z" transform="translate(-63.656 -54.753)" fill="#223bc9"/>
          <path id="Path_1664" data-name="Path 1664" d="M63.8,55.257v1.094l.44.258V55.515Z" transform="translate(-63.804 -54.626)" fill="#1028ad"/>
        </g>
        <g id="Group_800" data-name="Group 800" transform="translate(3.513 14.521)">
          <path id="Path_1665" data-name="Path 1665" d="M65.388,55.618l.44.258,1.106-.638-.425-.251Z" transform="translate(-65.388 -54.987)" fill="#22c2ff"/>
          <path id="Path_1666" data-name="Path 1666" d="M66.786,55.154v1.094l-1.106.638V55.792Z" transform="translate(-65.24 -54.903)" fill="#08b2f2"/>
          <path id="Path_1667" data-name="Path 1667" d="M65.388,55.406V56.5l.44.258V55.665Z" transform="translate(-65.388 -54.775)" fill="#07a4de"/>
        </g>
        <g id="Group_801" data-name="Group 801" transform="translate(3.513 12.866)">
          <path id="Path_1668" data-name="Path 1668" d="M65.388,54.517l.44.258,1.106-.638-.425-.251Z" transform="translate(-65.388 -53.886)" fill="#f2ab47"/>
          <path id="Path_1669" data-name="Path 1669" d="M66.786,54.053v1.094l-1.106.638V54.691Z" transform="translate(-65.24 -53.802)" fill="#f29e29"/>
          <path id="Path_1670" data-name="Path 1670" d="M65.388,54.306V55.4l.44.258V54.564Z" transform="translate(-65.388 -53.675)" fill="#d68514"/>
        </g>
        <path id="Path_1671" data-name="Path 1671" d="M74.1,53.421V50.6l6.3-3.637v2.788Z" transform="translate(-57.485 -44.507)" fill="#637487"/>
      </g>
      <g id="Group_814" data-name="Group 814" transform="translate(40.529 34.33)">
        <g id="Group_803" data-name="Group 803" transform="translate(0 0)">
          <path id="Path_1672" data-name="Path 1672" d="M63.425,55.218,87.887,41.083v5.368L63.425,60.582Z" transform="translate(-62.863 -40.806)" fill="#293542"/>
          <path id="Path_1673" data-name="Path 1673" d="M87.365,41.534V46L63.685,59.678V55.217Z" transform="translate(-62.732 -40.579)" fill="#10161a"/>
          <path id="Path_1674" data-name="Path 1674" d="M86.814,41.852v3.824L63.685,59.037v.641L87.365,46V41.534Z" transform="translate(-62.732 -40.579)" fill="#3f5166"/>
          <path id="Path_1675" data-name="Path 1675" d="M79.064,41.852v3.824l.552.322V41.534Z" transform="translate(-54.983 -40.579)" fill="#161c24"/>
          <path id="Path_1676" data-name="Path 1676" d="M87.514,40.9l.561.277L63.613,55.311l-.561-.277Z" transform="translate(-63.051 -40.899)" fill="#3f5166"/>
          <path id="Path_1677" data-name="Path 1677" d="M63.613,55.939l-.561-.277V50.3l.561.277Z" transform="translate(-63.051 -36.163)" fill="#161c24"/>
        </g>
        <g id="Group_804" data-name="Group 804" transform="translate(11.202 8.081)">
          <path id="Path_1678" data-name="Path 1678" d="M70.5,46.8v3.824l.552.323V46.484Z" transform="translate(-70.5 -46.165)" fill="#161c24"/>
          <path id="Path_1679" data-name="Path 1679" d="M71.418,46.272v4.462l-.552.323V46.591Z" transform="translate(-70.315 -46.272)" fill="#293542"/>
        </g>
        <g id="Group_805" data-name="Group 805" transform="translate(14.341 6.261)">
          <path id="Path_1680" data-name="Path 1680" d="M72.587,45.593v3.824l.552.323V45.274Z" transform="translate(-72.587 -44.955)" fill="#161c24"/>
          <path id="Path_1681" data-name="Path 1681" d="M73.506,45.062v4.462l-.552.323V45.381Z" transform="translate(-72.402 -45.062)" fill="#293542"/>
        </g>
        <g id="Group_806" data-name="Group 806" transform="translate(7.811 10.033)">
          <path id="Path_1682" data-name="Path 1682" d="M68.245,48.1v3.824l.552.323V47.782Z" transform="translate(-68.245 -47.463)" fill="#161c24"/>
          <path id="Path_1683" data-name="Path 1683" d="M69.164,47.57v4.462l-.552.323V47.889Z" transform="translate(-68.06 -47.57)" fill="#293542"/>
        </g>
        <path id="Path_1684" data-name="Path 1684" d="M71.234,46.668v3.819l2.036-1.177V45.486Z" transform="translate(-58.928 -38.587)" fill="#c92222"/>
        <path id="Path_1685" data-name="Path 1685" d="M71.234,46.668v2.01L73.269,47.5V45.486Z" transform="translate(-58.928 -38.587)" fill="#5fe134"/>
        <g id="Group_807" data-name="Group 807" transform="translate(8.915 10.486)">
          <path id="Path_1686" data-name="Path 1686" d="M71.266,47.871l.53.218-2.817,1.635v-.55Z" transform="translate(-68.979 -47.871)" fill="#364557"/>
          <path id="Path_1687" data-name="Path 1687" d="M71.8,48.016v.348L68.979,50v-.347Z" transform="translate(-68.979 -47.798)" fill="#293542"/>
        </g>
        <g id="Group_808" data-name="Group 808" transform="translate(5.976 13.089)">
          <path id="Path_1688" data-name="Path 1688" d="M67.025,50.233l.44.258,1.106-.638-.425-.251Z" transform="translate(-67.025 -49.602)" fill="#5fe134"/>
          <path id="Path_1689" data-name="Path 1689" d="M68.423,49.769v1.094l-1.106.638V50.408Z" transform="translate(-66.877 -49.518)" fill="#46c91a"/>
          <path id="Path_1690" data-name="Path 1690" d="M67.025,50.022v1.094l.44.258V50.28Z" transform="translate(-67.025 -49.391)" fill="#3aa615"/>
        </g>
        <g id="Group_809" data-name="Group 809" transform="translate(5.976 11.434)">
          <path id="Path_1691" data-name="Path 1691" d="M67.025,49.133l.44.258,1.106-.638-.425-.251Z" transform="translate(-67.025 -48.501)" fill="#c93b3b"/>
          <path id="Path_1692" data-name="Path 1692" d="M68.423,48.668v1.094l-1.106.638V49.307Z" transform="translate(-66.877 -48.417)" fill="#c92222"/>
          <path id="Path_1693" data-name="Path 1693" d="M67.025,48.921v1.094l.44.258V49.179Z" transform="translate(-67.025 -48.29)" fill="#ad1010"/>
        </g>
        <g id="Group_810" data-name="Group 810" transform="translate(1.131 15.952)">
          <path id="Path_1694" data-name="Path 1694" d="M63.8,52.137l.44.258,1.106-.638-.425-.251Z" transform="translate(-63.804 -51.506)" fill="#eef539"/>
          <path id="Path_1695" data-name="Path 1695" d="M65.2,51.673v1.094L64.1,53.4V52.311Z" transform="translate(-63.656 -51.422)" fill="#d6dd1d"/>
          <path id="Path_1696" data-name="Path 1696" d="M63.8,51.925v1.094l.44.258V52.184Z" transform="translate(-63.804 -51.294)" fill="#b5ba18"/>
        </g>
        <g id="Group_811" data-name="Group 811" transform="translate(1.131 14.296)">
          <path id="Path_1697" data-name="Path 1697" d="M63.8,51.036l.44.258,1.106-.638-.425-.251Z" transform="translate(-63.804 -50.405)" fill="#3b50c9"/>
          <path id="Path_1698" data-name="Path 1698" d="M65.2,50.572v1.094L64.1,52.3V51.21Z" transform="translate(-63.656 -50.321)" fill="#223bc9"/>
          <path id="Path_1699" data-name="Path 1699" d="M63.8,50.825v1.094l.44.258V51.083Z" transform="translate(-63.804 -50.193)" fill="#1028ad"/>
        </g>
        <g id="Group_812" data-name="Group 812" transform="translate(3.513 14.521)">
          <path id="Path_1700" data-name="Path 1700" d="M65.388,51.186l.44.258,1.106-.638-.425-.251Z" transform="translate(-65.388 -50.555)" fill="#22c2ff"/>
          <path id="Path_1701" data-name="Path 1701" d="M66.786,50.721v1.094l-1.106.638V51.36Z" transform="translate(-65.24 -50.471)" fill="#08b2f2"/>
          <path id="Path_1702" data-name="Path 1702" d="M65.388,50.974v1.094l.44.258V51.232Z" transform="translate(-65.388 -50.343)" fill="#07a4de"/>
        </g>
        <g id="Group_813" data-name="Group 813" transform="translate(3.513 12.866)">
          <path id="Path_1703" data-name="Path 1703" d="M65.388,50.085l.44.258,1.106-.638-.425-.251Z" transform="translate(-65.388 -49.454)" fill="#f2ab47"/>
          <path id="Path_1704" data-name="Path 1704" d="M66.786,49.621v1.094l-1.106.638V50.259Z" transform="translate(-65.24 -49.37)" fill="#f29e29"/>
          <path id="Path_1705" data-name="Path 1705" d="M65.388,49.873v1.094l.44.258V50.132Z" transform="translate(-65.388 -49.242)" fill="#d68514"/>
        </g>
        <path id="Path_1706" data-name="Path 1706" d="M74.1,48.989V46.171l6.3-3.637v2.788Z" transform="translate(-57.485 -40.075)" fill="#637487"/>
      </g>
      <g id="Group_826" data-name="Group 826" transform="translate(40.529 27.664)">
        <g id="Group_815" data-name="Group 815">
          <path id="Path_1707" data-name="Path 1707" d="M63.425,50.786,87.887,36.651V42.02L63.425,56.15Z" transform="translate(-62.863 -36.374)" fill="#293542"/>
          <path id="Path_1708" data-name="Path 1708" d="M87.365,37.1v4.466L63.685,55.246V50.785Z" transform="translate(-62.732 -36.147)" fill="#10161a"/>
          <path id="Path_1709" data-name="Path 1709" d="M86.814,37.42v3.824L63.685,54.6v.641L87.365,41.567V37.1Z" transform="translate(-62.732 -36.147)" fill="#3f5166"/>
          <path id="Path_1710" data-name="Path 1710" d="M79.064,37.42v3.824l.552.323V37.1Z" transform="translate(-54.983 -36.147)" fill="#161c24"/>
          <path id="Path_1711" data-name="Path 1711" d="M87.514,36.467l.561.277L63.613,50.879l-.561-.277Z" transform="translate(-63.051 -36.467)" fill="#3f5166"/>
          <path id="Path_1712" data-name="Path 1712" d="M63.613,51.507l-.561-.277V45.866l.561.277Z" transform="translate(-63.051 -31.73)" fill="#161c24"/>
        </g>
        <g id="Group_816" data-name="Group 816" transform="translate(11.202 8.081)">
          <path id="Path_1713" data-name="Path 1713" d="M70.5,42.371V46.2l.552.323V42.052Z" transform="translate(-70.5 -41.733)" fill="#161c24"/>
          <path id="Path_1714" data-name="Path 1714" d="M71.418,41.84V46.3l-.552.323V42.159Z" transform="translate(-70.315 -41.84)" fill="#293542"/>
        </g>
        <g id="Group_817" data-name="Group 817" transform="translate(14.341 6.261)">
          <path id="Path_1715" data-name="Path 1715" d="M72.587,41.161v3.824l.552.323V40.842Z" transform="translate(-72.587 -40.523)" fill="#161c24"/>
          <path id="Path_1716" data-name="Path 1716" d="M73.506,40.63v4.462l-.552.323V40.949Z" transform="translate(-72.402 -40.63)" fill="#293542"/>
        </g>
        <g id="Group_818" data-name="Group 818" transform="translate(7.811 10.033)">
          <path id="Path_1717" data-name="Path 1717" d="M68.245,43.669v3.824l.552.323V43.35Z" transform="translate(-68.245 -43.031)" fill="#161c24"/>
          <path id="Path_1718" data-name="Path 1718" d="M69.164,43.138V47.6l-.552.323V43.457Z" transform="translate(-68.06 -43.138)" fill="#293542"/>
        </g>
        <path id="Path_1719" data-name="Path 1719" d="M71.234,42.236v3.819l2.036-1.177V41.054Z" transform="translate(-58.928 -34.155)" fill="#c92222"/>
        <path id="Path_1720" data-name="Path 1720" d="M71.234,42.236v2.01l2.036-1.177V41.054Z" transform="translate(-58.928 -34.155)" fill="#5fe134"/>
        <g id="Group_819" data-name="Group 819" transform="translate(8.915 10.486)">
          <path id="Path_1721" data-name="Path 1721" d="M71.266,43.439l.53.218-2.817,1.635v-.55Z" transform="translate(-68.979 -43.439)" fill="#364557"/>
          <path id="Path_1722" data-name="Path 1722" d="M71.8,43.584v.348l-2.817,1.636v-.347Z" transform="translate(-68.979 -43.366)" fill="#293542"/>
        </g>
        <g id="Group_820" data-name="Group 820" transform="translate(5.976 13.089)">
          <path id="Path_1723" data-name="Path 1723" d="M67.025,45.8l.44.258,1.106-.638-.425-.251Z" transform="translate(-67.025 -45.17)" fill="#5fe134"/>
          <path id="Path_1724" data-name="Path 1724" d="M68.423,45.337v1.094l-1.106.638V45.975Z" transform="translate(-66.877 -45.086)" fill="#46c91a"/>
          <path id="Path_1725" data-name="Path 1725" d="M67.025,45.59v1.094l.44.258V45.848Z" transform="translate(-67.025 -44.959)" fill="#3aa615"/>
        </g>
        <g id="Group_821" data-name="Group 821" transform="translate(5.976 11.434)">
          <path id="Path_1726" data-name="Path 1726" d="M67.025,44.7l.44.258,1.106-.638-.425-.251Z" transform="translate(-67.025 -44.069)" fill="#c93b3b"/>
          <path id="Path_1727" data-name="Path 1727" d="M68.423,44.236V45.33l-1.106.638V44.875Z" transform="translate(-66.877 -43.985)" fill="#c92222"/>
          <path id="Path_1728" data-name="Path 1728" d="M67.025,44.489v1.094l.44.258V44.747Z" transform="translate(-67.025 -43.858)" fill="#ad1010"/>
        </g>
        <g id="Group_822" data-name="Group 822" transform="translate(1.131 15.952)">
          <path id="Path_1729" data-name="Path 1729" d="M63.8,47.7l.44.258,1.106-.638-.425-.251Z" transform="translate(-63.804 -47.074)" fill="#eef539"/>
          <path id="Path_1730" data-name="Path 1730" d="M65.2,47.24v1.094l-1.106.638V47.879Z" transform="translate(-63.656 -46.989)" fill="#d6dd1d"/>
          <path id="Path_1731" data-name="Path 1731" d="M63.8,47.493v1.094l.44.258V47.751Z" transform="translate(-63.804 -46.862)" fill="#b5ba18"/>
        </g>
        <g id="Group_823" data-name="Group 823" transform="translate(1.131 14.296)">
          <path id="Path_1732" data-name="Path 1732" d="M63.8,46.6l.44.258,1.106-.638-.425-.251Z" transform="translate(-63.804 -45.973)" fill="#3b50c9"/>
          <path id="Path_1733" data-name="Path 1733" d="M65.2,46.139v1.094l-1.106.638V46.778Z" transform="translate(-63.656 -45.889)" fill="#223bc9"/>
          <path id="Path_1734" data-name="Path 1734" d="M63.8,46.392v1.094l.44.258V46.651Z" transform="translate(-63.804 -45.761)" fill="#1028ad"/>
        </g>
        <g id="Group_824" data-name="Group 824" transform="translate(3.513 14.521)">
          <path id="Path_1735" data-name="Path 1735" d="M65.388,46.753l.44.258,1.106-.638-.425-.251Z" transform="translate(-65.388 -46.122)" fill="#22c2ff"/>
          <path id="Path_1736" data-name="Path 1736" d="M66.786,46.289v1.094l-1.106.638V46.927Z" transform="translate(-65.24 -46.038)" fill="#08b2f2"/>
          <path id="Path_1737" data-name="Path 1737" d="M65.388,46.542v1.094l.44.258V46.8Z" transform="translate(-65.388 -45.911)" fill="#07a4de"/>
        </g>
        <g id="Group_825" data-name="Group 825" transform="translate(3.513 12.866)">
          <path id="Path_1738" data-name="Path 1738" d="M65.388,45.653l.44.258,1.106-.638-.425-.251Z" transform="translate(-65.388 -45.022)" fill="#f2ab47"/>
          <path id="Path_1739" data-name="Path 1739" d="M66.786,45.188v1.094l-1.106.638V45.827Z" transform="translate(-65.24 -44.938)" fill="#f29e29"/>
          <path id="Path_1740" data-name="Path 1740" d="M65.388,45.441v1.094l.44.258V45.7Z" transform="translate(-65.388 -44.81)" fill="#d68514"/>
        </g>
        <path id="Path_1741" data-name="Path 1741" d="M74.1,44.557V41.739L80.4,38.1v2.788Z" transform="translate(-57.485 -35.642)" fill="#637487"/>
      </g>
    </g>
  </g>
</svg>
