<svg xmlns="http://www.w3.org/2000/svg" width="198.735" height="155.926" viewBox="0 0 198.735 155.926">
  <g id="Group_1412" data-name="Group 1412" transform="translate(-122.859 -241.592)">
    <path id="Path_3470" data-name="Path 3470" d="M180.679,363.911l-12.408.005-45.412-29.01,99.524-60.026Z" transform="translate(0 33.601)" fill="#ccc" style="mix-blend-mode: multiply;isolation: isolate"/>
    <path id="Path_3471" data-name="Path 3471" d="M225.719,327.963h-11.2l-30.8-17.549L217.352,291Z" transform="translate(61.435 49.872)" fill="#ccc" style="mix-blend-mode: multiply;isolation: isolate"/>
    <g id="Group_1405" data-name="Group 1405" transform="translate(172.035 241.592)">
      <path id="Path_3472" data-name="Path 3472" d="M153.077,328.8l-4.766-2.816L178.526,308.6l.706,3.38Z" transform="translate(-146.344 -173.956)" fill="#4ea4ff"/>
      <g id="Group_1403" data-name="Group 1403">
        <path id="Path_3473" data-name="Path 3473" d="M246.122,243.224l-2.064-1.316-.006.022a2.63,2.63,0,0,0-2.817.155l-33.593,19.395a8.888,8.888,0,0,0-3.392,4.252l-6.607,15.852a8.888,8.888,0,0,1-3.392,4.252L151.536,310.5c-2.323,1.34-4.2,4.937-4.2,8.032V392.5l98.1-56.641v-90.6a5.566,5.566,0,0,0-.267-1.752Z" transform="translate(-147.332 -241.592)" fill="#4ea4ff"/>
        <path id="Path_3474" data-name="Path 3474" d="M205.229,266.359l-6.607,15.85a8.888,8.888,0,0,1-3.392,4.252l-42.716,24.663c-2.321,1.34-4.2,4.935-4.2,8.03v73.841l98.1-56.51v-90.6c0-3.1-1.881-4.517-4.2-3.177l-33.593,19.393A8.9,8.9,0,0,0,205.229,266.359Z" transform="translate(-146.344 -240.97)" fill="#007cff"/>
        <path id="Path_3475" data-name="Path 3475" d="M149.3,281.128l-1.967-1.248v73.971l1.967,1.119Z" transform="translate(-147.332 -202.944)" fill="#025ca0"/>
      </g>
      <g id="Group_1404" data-name="Group 1404" transform="translate(4.665 3.567)">
        <path id="Path_3476" data-name="Path 3476" d="M243.779,333.856,149.654,388.35V297.86l94.126-54.494Z" transform="translate(-149.654 -243.367)" fill="#d5d0ad"/>
        <path id="Path_3477" data-name="Path 3477" d="M244.439,334.075l-94.126,54.494v-90.49l94.126-54.494Z" transform="translate(-148.987 -243.146)" fill="#dfd9b5"/>
        <path id="Path_3478" data-name="Path 3478" d="M245.1,334.294l-94.126,54.494V298.3L245.1,243.8Z" transform="translate(-148.321 -242.925)" fill="#e8e3bc"/>
        <path id="Path_3479" data-name="Path 3479" d="M245.76,244.023v90.5L151.633,389.01v-90.5Z" transform="translate(-147.656 -242.704)" fill="#f2ecc4"/>
        <path id="Path_3480" data-name="Path 3480" d="M236.828,251.308v9.621L155.21,307.842v-9.621Z" transform="translate(-144.045 -235.35)" fill="#f2e279"/>
        <path id="Path_3481" data-name="Path 3481" d="M236.828,259.124v9.621L155.21,315.657v-9.621Z" transform="translate(-144.045 -227.462)" fill="#f2e279"/>
        <path id="Path_3482" data-name="Path 3482" d="M236.828,266.939v9.621L155.21,323.472v-9.621Z" transform="translate(-144.045 -219.573)" fill="#f2e279"/>
        <path id="Path_3483" data-name="Path 3483" d="M236.828,274.754v9.621L155.21,331.287v-9.621Z" transform="translate(-144.045 -211.685)" fill="#f2e279"/>
        <path id="Path_3484" data-name="Path 3484" d="M236.828,282.569v9.621L155.21,339.1v-9.621Z" transform="translate(-144.045 -203.796)" fill="#f2e279"/>
      </g>
      <path id="Path_3485" data-name="Path 3485" d="M246.72,259.959v58.353l-94.126,54.346-1.913,1.1,1.913-45.581.942-22.5c.1-2.337,2.06-5.3,4.384-6.645l42.772-24.7c1.306-.751,2.518-.848,3.267-.267l6.635,5.134c.751.581,1.961.484,3.269-.279Z" transform="translate(-143.952 -223.052)" fill="#d9d9d9" style="mix-blend-mode: multiply;isolation: isolate"/>
      <path id="Path_3486" data-name="Path 3486" d="M272.39,256.546l-.01.028c-.468-.3-1.234-.211-2.259.38l-33.229,19.186c-1.308.756-2.281.75-2.632-.016l-2.656-5.791.989-.36-1.73-.971a.852.852,0,0,0-.2-.114l-.038-.022,0,0a2.678,2.678,0,0,0-2.084.488l-42.774,24.7a16.129,16.129,0,0,0-6,7.376l-29.074,80.05,98.1-56.641,23.739-65.359a6.25,6.25,0,0,0,.305-1.194l1.533-.613Z" transform="translate(-143.95 -226.637)" fill="#4ea4ff"/>
      <path id="Path_3487" data-name="Path 3487" d="M273.472,260.021l-2.385,6.563-14.371,39.575-6.973,19.226-13.063,7.541-26.89,15.521-14.152,8.172-40.568,23.425-3.438,1.985,5.968-16.441,14.369-39.563,8.741-24.056A16.252,16.252,0,0,1,186.7,294.6l15.5-8.946,26.876-15.508.412-.243c1.308-.749,2.277-.749,2.626.012l2.06,4.493,1.041,2.263c.35.764,1.318.776,2.626.012l31.1-17.942,2.132-1.234C273.4,256.159,274.477,257.284,273.472,260.021Z" transform="translate(-142.991 -226.104)" fill="#007cff"/>
      <path id="Path_3488" data-name="Path 3488" d="M152.594,359.941l-1.911-1.078,29.073-80.049,1.911,1.078Z" transform="translate(-143.95 -204.02)" fill="#025ca0"/>
      <path id="Path_3489" data-name="Path 3489" d="M229.024,276.07l-56.976,33.078,3.571-6.867L232.6,269.2Z" transform="translate(-122.383 -213.721)" fill="#80beff"/>
      <path id="Path_3490" data-name="Path 3490" d="M227.576,278.415,170.6,311.493l2.043-3.74,56.976-33.078Z" transform="translate(-123.846 -208.197)" fill="#80beff"/>
      <path id="Path_3491" data-name="Path 3491" d="M223.749,287.794l-56.975,33.078,2.043-3.74,56.976-33.078Z" transform="translate(-127.708 -198.73)" fill="#80beff"/>
      <path id="Path_3492" data-name="Path 3492" d="M225.146,285.528l-56.976,33.078,3.571-6.867,56.976-33.078Z" transform="translate(-126.298 -204.174)" fill="#80beff"/>
      <path id="Path_3493" data-name="Path 3493" d="M226.079,263.508,154.6,358.955l14.37-39.564,30.23-40.375Z" transform="translate(-139.993 -219.47)" fill="#1a1a1a" style="mix-blend-mode: screen;isolation: isolate"/>
      <path id="Path_3494" data-name="Path 3494" d="M241.871,261.737,227.5,301.313,207.465,328.08,180.576,343.6Z" transform="translate(-113.775 -221.258)" fill="#1a1a1a" style="mix-blend-mode: screen;isolation: isolate"/>
      <path id="Path_3495" data-name="Path 3495" d="M267.216,257.832l-73.3,97.881-40.568,23.425,79.1-105.64,1.041,2.263c.35.764,1.318.776,2.626.012Z" transform="translate(-141.264 -225.199)" fill="#1a1a1a" style="mix-blend-mode: screen;isolation: isolate"/>
    </g>
    <path id="Path_3496" data-name="Path 3496" d="M183.723,322.714,201.235,292.8l25-13.983L217.352,303.3Z" transform="translate(61.435 37.571)" fill="#bfbfbf" style="mix-blend-mode: multiply;isolation: isolate"/>
    <g id="Group_1411" data-name="Group 1411" transform="translate(273.514 295.15)">
      <g id="Group_1406" data-name="Group 1406" transform="translate(0 13.158)">
        <path id="Path_3497" data-name="Path 3497" d="M239.062,278.7V320.49l-17.225,9.951-14.549,8.4-2.663,1.541V298.592l10.74-6.2,6.473-3.736,6.227-3.6h.012Z" transform="translate(-190.982 -270.848)" fill="#ffa610"/>
        <path id="Path_3498" data-name="Path 3498" d="M197.835,294.676l13.64,7.86,34.437-19.882-13.64-7.861Z" transform="translate(-197.835 -274.794)" fill="#ffe438"/>
        <path id="Path_3499" data-name="Path 3499" d="M204.689,288.027l-5.638-3.045,3.43-1.98,8.731,5.568Z" transform="translate(-196.608 -266.51)" fill="#ccc" style="mix-blend-mode: multiply;isolation: isolate"/>
        <path id="Path_3500" data-name="Path 3500" d="M217.869,280.4l-5.638-3.045,3.43-1.98,8.731,5.568Z" transform="translate(-183.303 -274.204)" fill="#ccc" style="mix-blend-mode: multiply;isolation: isolate"/>
        <path id="Path_3501" data-name="Path 3501" d="M211.475,334.333l-13.64-7.86V284.689l13.64,7.86Z" transform="translate(-197.835 -264.806)" fill="#ee9500"/>
      </g>
      <path id="Path_3502" data-name="Path 3502" d="M230.415,278.7V320.49L213.19,330.44V288.654Z" transform="translate(-182.335 -257.689)" fill="#ffb901"/>
      <path id="Path_3503" data-name="Path 3503" d="M228.063,281.863l-23.44,31.072v-9.506l10.74-14.229,6.473-3.736Z" transform="translate(-190.982 -254.5)" fill="#333" style="mix-blend-mode: screen;isolation: isolate"/>
      <path id="Path_3504" data-name="Path 3504" d="M237.724,287.681v23.748L220.5,321.379l-14.549,8.4Z" transform="translate(-189.644 -248.628)" fill="#333" style="mix-blend-mode: screen;isolation: isolate"/>
      <g id="Group_1408" data-name="Group 1408" transform="translate(27.379 44.882)">
        <path id="Path_3505" data-name="Path 3505" d="M216.618,297.575l.886,6.679-4.873,2.815.39-4.688.245-2.871c-1.067-.064-1.806-.934-1.806-2.439a7.682,7.682,0,0,1,3.482-6.012c1.927-1.107,3.48-.221,3.48,1.985A7.576,7.576,0,0,1,216.618,297.575Z" transform="translate(-211.46 -290.582)" fill="#202b33"/>
        <path id="Path_3506" data-name="Path 3506" d="M216.916,298.326l-4.873,2.815.391-4.686Z" transform="translate(-210.872 -284.654)" fill="#364557"/>
        <g id="Group_1407" data-name="Group 1407" transform="translate(1.175 0.043)">
          <path id="Path_3507" data-name="Path 3507" d="M217.834,293.024c0-1.37-.6-2.23-1.517-2.421a2.51,2.51,0,0,1,.882,2.142,7.586,7.586,0,0,1-1.808,4.529l.892,6.679-4.182,2.413-.056.679,4.873-2.813-.892-6.679A7.581,7.581,0,0,0,217.834,293.024Z" transform="translate(-212.045 -290.603)" fill="#ee9500"/>
        </g>
        <path id="Path_3508" data-name="Path 3508" d="M216.282,297.247l.636.28-4.873,2.813.057-.679Z" transform="translate(-210.87 -283.854)" fill="#ffe438"/>
      </g>
      <path id="Path_3509" data-name="Path 3509" d="M216.259,269.758h-.024a2.29,2.29,0,0,0-.307-.173Z" transform="translate(-179.573 -266.893)" fill="#202b33"/>
      <g id="Group_1410" data-name="Group 1410" transform="translate(8.08)">
        <path id="Path_3510" data-name="Path 3510" d="M230.118,270.937a6.542,6.542,0,0,0-2.011-.581,10.982,10.982,0,0,0-6.311,1.135,14.077,14.077,0,0,0-1.431.739,29.876,29.876,0,0,0-10.32,10.913,29.384,29.384,0,0,0-4.192,14.118v7.668l-4-2.009v-7.656a31.963,31.963,0,0,1,14.514-25.031c3.748-2.17,7.163-2.5,9.74-1.294Z" transform="translate(-201.856 -268.245)" fill="#161c24"/>
        <path id="Path_3511" data-name="Path 3511" d="M227.987,270.937a6.542,6.542,0,0,0-2.011-.581,10.982,10.982,0,0,0-6.311,1.135,14.08,14.08,0,0,0-1.431.739,29.876,29.876,0,0,0-10.32,10.913l-3.946-2.1a29.737,29.737,0,0,1,10.272-10.815c3.748-2.17,7.163-2.5,9.74-1.294Z" transform="translate(-199.725 -268.245)" fill="#364557"/>
        <path id="Path_3512" data-name="Path 3512" d="M220.053,279.321v7.656l-4.007-2v-7.67a9.59,9.59,0,0,0-2.009-6.436,5.736,5.736,0,0,1,4.34,2.429A9.965,9.965,0,0,1,220.053,279.321Z" transform="translate(-189.561 -265.593)" fill="#161c24"/>
        <g id="Group_1409" data-name="Group 1409" transform="translate(3.997 2.012)">
          <path id="Path_3513" data-name="Path 3513" d="M232.857,279.508v7.656l-2.516,1.455v-7.656a9.966,9.966,0,0,0-1.676-6.018,5.736,5.736,0,0,0-4.34-2.429,6.085,6.085,0,0,0-1.147,0,10.959,10.959,0,0,0-4.821,1.6c-6.609,3.822-11.986,13.1-11.986,20.679v7.656l-2.526,1.467v-7.668c0-9.187,6.508-20.407,14.512-25.031a14.1,14.1,0,0,1,1.431-.74,10.982,10.982,0,0,1,6.311-1.135,6.542,6.542,0,0,1,2.011.581h.012a2.293,2.293,0,0,1,.307.173C231.167,271.542,232.857,274.81,232.857,279.508Z" transform="translate(-203.845 -269.246)" fill="#202b33"/>
        </g>
      </g>
    </g>
  </g>
</svg>
