<svg xmlns="http://www.w3.org/2000/svg" xmlns:xlink="http://www.w3.org/1999/xlink" width="103.689" height="124.17" viewBox="0 0 103.689 124.17">
  <defs>
    <linearGradient id="linear-gradient" x1="4.514" y1="0.5" x2="5.514" y2="0.5" gradientUnits="objectBoundingBox">
      <stop offset="0.13" stop-color="#13161a"/>
      <stop offset="0.137" stop-color="#232d39"/>
      <stop offset="0.469" stop-color="#232d39"/>
      <stop offset="0.476" stop-color="#2d3c48"/>
      <stop offset="0.876" stop-color="#2d3c48"/>
      <stop offset="0.879" stop-color="#232d39"/>
    </linearGradient>
    <linearGradient id="linear-gradient-2" x1="4.748" y1="0.5" x2="5.748" y2="0.5" gradientUnits="objectBoundingBox">
      <stop offset="0.178" stop-color="#025ca0"/>
      <stop offset="0.184" stop-color="#007cff"/>
      <stop offset="0.474" stop-color="#007cff"/>
      <stop offset="0.476" stop-color="#4ea4ff"/>
      <stop offset="0.809" stop-color="#4ea4ff"/>
      <stop offset="0.817" stop-color="#007cff"/>
    </linearGradient>
    <linearGradient id="linear-gradient-4" x1="4.748" y1="0.5" x2="5.748" y2="0.5" gradientUnits="objectBoundingBox">
      <stop offset="0.135" stop-color="#ee9b0f"/>
      <stop offset="0.142" stop-color="#ffb901"/>
      <stop offset="0.474" stop-color="#ffb901"/>
      <stop offset="0.48" stop-color="#fad020"/>
      <stop offset="0.876" stop-color="#fad020"/>
      <stop offset="0.884" stop-color="#ffb901"/>
    </linearGradient>
    <linearGradient id="linear-gradient-8" x1="30.509" y1="0.078" x2="31.12" y2="0.913" gradientUnits="objectBoundingBox">
      <stop offset="0.121" stop-color="#161c24"/>
      <stop offset="0.124" stop-color="#202b33"/>
      <stop offset="0.524" stop-color="#202b33"/>
      <stop offset="0.531" stop-color="#161c24"/>
      <stop offset="0.863" stop-color="#161c24"/>
      <stop offset="0.87" stop-color="#13161a"/>
    </linearGradient>
    <radialGradient id="radial-gradient" cx="0.571" cy="0.228" r="0.492" gradientTransform="matrix(-1.379, 0, 0, 1, -3.206, 0)" gradientUnits="objectBoundingBox">
      <stop offset="0" stop-color="#b3ff0e"/>
      <stop offset="1" stop-color="#7fb50a"/>
    </radialGradient>
    <linearGradient id="linear-gradient-9" x1="30.509" y1="0.078" x2="31.12" y2="0.913" xlink:href="#linear-gradient-8"/>
    <radialGradient id="radial-gradient-2" cx="0.72" cy="0.294" r="0.437" gradientTransform="matrix(-1.379, 0, 0, 1, -3.56, 0)" xlink:href="#radial-gradient"/>
    <linearGradient id="linear-gradient-10" x1="30.655" y1="0.078" x2="31.267" y2="0.913" xlink:href="#linear-gradient-8"/>
    <radialGradient id="radial-gradient-3" cx="0.72" cy="0.266" r="0.437" gradientTransform="matrix(-1.379, 0, 0, 1, -3.103, 0)" xlink:href="#radial-gradient"/>
    <linearGradient id="linear-gradient-11" x1="30.509" y1="0.078" x2="31.12" y2="0.913" xlink:href="#linear-gradient-8"/>
    <radialGradient id="radial-gradient-4" cx="0.772" cy="0.219" r="0.437" gradientTransform="matrix(-1.379, 0, 0, 1, -3.683, 0)" xlink:href="#radial-gradient"/>
  </defs>
  <g id="Group_684" data-name="Group 684" transform="translate(-129.326 -27.058)">
    <path id="Path_1287" data-name="Path 1287" d="M154.468,68.785a62.138,62.138,0,0,1,11.3-1.018h.261a57.514,57.514,0,0,1,28.352,7.822L222.1,91.7,171,120.823l-33.011-19.086.061-.035a20.314,20.314,0,0,1-7.451-8.029,11.884,11.884,0,0,1-1.273-5.242C129.326,79.268,139.861,71.534,154.468,68.785Z" transform="translate(0 24.546)" fill="#ccc" style="mix-blend-mode: multiply;isolation: isolate"/>
    <g id="Group_683" data-name="Group 683" transform="translate(160.085 27.058)">
      <g id="Group_666" data-name="Group 666" transform="translate(0 69.258)">
        <g id="Group_665" data-name="Group 665" transform="translate(0 20.56)">
          <path id="Path_1288" data-name="Path 1288" d="M221.445,83.09V96.832a8.776,8.776,0,0,1-.255,2.289c-1.933,10.333-17.456,18.322-36.185,18.322a62.315,62.315,0,0,1-11.349-1.018c-13.284-2.441-23.208-9.058-24.836-17.2a11.8,11.8,0,0,1-.255-2.342l-.05-7.226V83.193h8.956l16.185-.051,38.78-.051Z" transform="translate(-148.515 -83.09)" fill="url(#linear-gradient)"/>
        </g>
        <path id="Path_1289" data-name="Path 1289" d="M221.445,90.824a11.42,11.42,0,0,1-1.273,5.293c-2.239,4.988-7.736,9.212-15.166,11.961a57.985,57.985,0,0,1-20,3.41,62.315,62.315,0,0,1-11.349-1.018A47.737,47.737,0,0,1,165,108.078c-7.43-2.749-12.926-6.973-15.217-11.91a11.872,11.872,0,0,1-1.271-5.242c0-9.161,10.535-16.9,25.141-19.644a62.166,62.166,0,0,1,11.3-1.018C205.108,70.264,221.445,79.475,221.445,90.824Z" transform="translate(-148.515 -70.264)" fill="#43566c"/>
      </g>
      <g id="Group_668" data-name="Group 668" transform="translate(1.797 51.155)">
        <g id="Group_667" data-name="Group 667" transform="translate(0 19.547)">
          <path id="Path_1290" data-name="Path 1290" d="M218.972,71.165V87.106a8.325,8.325,0,0,1-.242,2.177c-1.839,9.823-16.6,17.419-34.4,17.419a59.186,59.186,0,0,1-10.79-.968c-12.628-2.321-22.063-8.611-23.612-16.353a11.156,11.156,0,0,1-.242-2.227l-.048-9.748V71.263h8.515l15.387-.048,36.87-.05Z" transform="translate(-149.636 -71.165)" fill="url(#linear-gradient-2)"/>
        </g>
        <path id="Path_1291" data-name="Path 1291" d="M218.972,78.518a10.876,10.876,0,0,1-1.21,5.033c-2.129,4.742-7.354,8.757-14.419,11.37a55.1,55.1,0,0,1-19.016,3.241,59.332,59.332,0,0,1-10.79-.967,45.319,45.319,0,0,1-8.225-2.275c-7.064-2.613-12.29-6.628-14.468-11.322a11.293,11.293,0,0,1-1.209-4.984c0-8.71,10.015-16.065,23.9-18.678a59.189,59.189,0,0,1,10.741-.967C203.439,58.971,218.972,67.728,218.972,78.518Z" transform="translate(-149.636 -58.971)" fill="#36477b"/>
      </g>
      <g id="Group_670" data-name="Group 670" transform="translate(0 46.196)">
        <g id="Group_669" data-name="Group 669" transform="translate(0 20.561)">
          <path id="Path_1292" data-name="Path 1292" d="M221.445,68.7V82.445a8.788,8.788,0,0,1-.255,2.291c-1.933,10.331-17.456,18.322-36.185,18.322a62.314,62.314,0,0,1-11.349-1.018c-13.284-2.443-23.208-9.058-24.836-17.2a11.828,11.828,0,0,1-.255-2.342l-.05-7.226V68.807h8.956l16.185-.051,38.78-.051Z" transform="translate(-148.515 -68.704)" fill="url(#linear-gradient)"/>
        </g>
        <path id="Path_1293" data-name="Path 1293" d="M221.445,76.438a11.425,11.425,0,0,1-1.273,5.293c-2.239,4.988-7.736,9.212-15.166,11.961a57.985,57.985,0,0,1-20,3.41,62.314,62.314,0,0,1-11.349-1.018A47.868,47.868,0,0,1,165,93.692c-7.43-2.749-12.926-6.973-15.217-11.91a11.877,11.877,0,0,1-1.271-5.242c0-9.161,10.535-16.9,25.141-19.646a62.307,62.307,0,0,1,11.3-1.018C205.108,55.877,221.445,65.089,221.445,76.438Z" transform="translate(-148.515 -55.877)" fill="#43566c"/>
      </g>
      <g id="Group_672" data-name="Group 672" transform="translate(1.797 27.94)">
        <g id="Group_671" data-name="Group 671" transform="translate(0 19.547)">
          <path id="Path_1294" data-name="Path 1294" d="M218.972,56.682V72.623a8.325,8.325,0,0,1-.242,2.177c-1.839,9.823-16.6,17.419-34.4,17.419a59.186,59.186,0,0,1-10.79-.968C160.91,88.93,151.475,82.64,149.926,74.9a11.143,11.143,0,0,1-.242-2.227l-.048-9.748V56.78h8.515l15.387-.048,36.87-.05Z" transform="translate(-149.636 -56.682)" fill="url(#linear-gradient-4)"/>
        </g>
        <path id="Path_1295" data-name="Path 1295" d="M218.972,64.035a10.876,10.876,0,0,1-1.21,5.033c-2.129,4.742-7.354,8.757-14.419,11.37a55.1,55.1,0,0,1-19.016,3.241,59.331,59.331,0,0,1-10.79-.967,45.319,45.319,0,0,1-8.225-2.275c-7.064-2.613-12.29-6.628-14.468-11.322a11.293,11.293,0,0,1-1.209-4.984c0-8.71,10.015-16.065,23.9-18.678a59.19,59.19,0,0,1,10.741-.967C203.439,44.488,218.972,53.245,218.972,64.035Z" transform="translate(-149.636 -44.488)" fill="#36477b"/>
      </g>
      <g id="Group_674" data-name="Group 674" transform="translate(0 22.982)">
        <g id="Group_673" data-name="Group 673" transform="translate(0 20.56)">
          <path id="Path_1296" data-name="Path 1296" d="M221.445,54.221V67.962a8.78,8.78,0,0,1-.255,2.291C219.257,80.583,203.734,88.574,185,88.574a62.314,62.314,0,0,1-11.349-1.018c-13.284-2.443-23.208-9.058-24.836-17.2a11.815,11.815,0,0,1-.255-2.342l-.05-7.226V54.324h8.956l16.185-.051,38.78-.051Z" transform="translate(-148.515 -54.221)" fill="url(#linear-gradient)"/>
        </g>
        <path id="Path_1297" data-name="Path 1297" d="M221.445,61.955a11.425,11.425,0,0,1-1.273,5.293c-2.239,4.988-7.736,9.212-15.166,11.961a57.985,57.985,0,0,1-20,3.41A62.315,62.315,0,0,1,173.656,81.6,47.867,47.867,0,0,1,165,79.209c-7.43-2.749-12.926-6.973-15.217-11.91a11.877,11.877,0,0,1-1.271-5.242c0-9.161,10.535-16.9,25.141-19.646a62.31,62.31,0,0,1,11.3-1.016C205.108,41.4,221.445,50.606,221.445,61.955Z" transform="translate(-148.515 -41.395)" fill="#43566c"/>
      </g>
      <g id="Group_676" data-name="Group 676" transform="translate(1.797 4.96)">
        <g id="Group_675" data-name="Group 675" transform="translate(0 19.547)">
          <path id="Path_1298" data-name="Path 1298" d="M218.972,42.346V58.287a8.325,8.325,0,0,1-.242,2.177c-1.839,9.823-16.6,17.419-34.4,17.419a59.185,59.185,0,0,1-10.79-.968c-12.628-2.323-22.063-8.613-23.612-16.353a11.156,11.156,0,0,1-.242-2.227l-.048-9.748V42.444h8.515l15.387-.05,36.87-.048Z" transform="translate(-149.636 -42.346)" fill="url(#linear-gradient-2)"/>
        </g>
        <path id="Path_1299" data-name="Path 1299" d="M218.972,49.7a10.865,10.865,0,0,1-1.21,5.032c-2.129,4.743-7.354,8.759-14.419,11.371a55.1,55.1,0,0,1-19.016,3.241,59.332,59.332,0,0,1-10.79-.967,45.449,45.449,0,0,1-8.225-2.275c-7.064-2.613-12.29-6.628-14.468-11.322a11.293,11.293,0,0,1-1.209-4.984c0-8.71,10.015-16.065,23.9-18.678a59.19,59.19,0,0,1,10.741-.967C203.439,30.152,218.972,38.909,218.972,49.7Z" transform="translate(-149.636 -30.152)" fill="#36477b"/>
      </g>
      <g id="Group_678" data-name="Group 678">
        <g id="Group_677" data-name="Group 677" transform="translate(0 20.561)">
          <path id="Path_1300" data-name="Path 1300" d="M221.445,39.885V53.626a8.788,8.788,0,0,1-.255,2.291C219.257,66.247,203.734,74.238,185,74.238a62.315,62.315,0,0,1-11.349-1.018c-13.284-2.443-23.208-9.058-24.836-17.2a11.828,11.828,0,0,1-.255-2.342l-.05-7.226V39.988h8.956l16.185-.051,38.78-.051Z" transform="translate(-148.515 -39.885)" fill="url(#linear-gradient)"/>
        </g>
        <path id="Path_1301" data-name="Path 1301" d="M221.445,47.619a11.425,11.425,0,0,1-1.273,5.293c-2.239,4.987-7.736,9.212-15.166,11.961a57.986,57.986,0,0,1-20,3.408,62.46,62.46,0,0,1-11.349-1.016A47.868,47.868,0,0,1,165,64.873c-7.43-2.749-12.926-6.974-15.217-11.91a11.877,11.877,0,0,1-1.271-5.242c0-9.161,10.535-16.9,25.141-19.646a62.165,62.165,0,0,1,11.3-1.018C205.108,27.058,221.445,36.27,221.445,47.619Z" transform="translate(-148.515 -27.058)" fill="#43566c"/>
        <path id="Path_1302" data-name="Path 1302" d="M183.007,59.006a52.7,52.7,0,0,0,18.154-3.076c6.144-2.273,10.578-5.609,12.17-9.158l.125-.256a6.11,6.11,0,0,0,.681-2.861c0-7.213-12.8-15.251-31.179-15.251a56.75,56.75,0,0,0-10.329.928c-12.048,2.268-20.8,8.335-20.8,14.423a6.648,6.648,0,0,0,.739,2.925c1.69,3.64,6.152,6.981,12.282,9.246a42.589,42.589,0,0,0,7.75,2.146A56.965,56.965,0,0,0,183.007,59.006Z" transform="translate(-146.517 -26.246)" fill="#2d3c48"/>
        <path id="Path_1303" data-name="Path 1303" d="M182.508,57.18a51.341,51.341,0,0,0,17.69-2.993c5.812-2.15,9.975-5.234,11.423-8.457l.141-.293a4.844,4.844,0,0,0,.548-2.281c0-5.814-11.357-13.923-29.852-13.923a55.274,55.274,0,0,0-10.087.907c-11.237,2.114-19.715,7.755-19.715,13.117a5.378,5.378,0,0,0,.606,2.347c1.539,3.315,5.745,6.434,11.548,8.581a41.5,41.5,0,0,0,7.526,2.084A55.819,55.819,0,0,0,182.508,57.18Z" transform="translate(-146.018 -25.747)" fill="#43566c"/>
        <path id="Path_1304" data-name="Path 1304" d="M220.172,42.735c-2.238,4.987-7.736,9.212-15.166,11.961a57.985,57.985,0,0,1-20,3.409,62.313,62.313,0,0,1-11.349-1.019A47.738,47.738,0,0,1,165,54.7c-7.43-2.749-12.926-6.974-15.217-11.91a12.477,12.477,0,0,1-1.066-3.579,11.694,11.694,0,0,0-.205,1.436,11.877,11.877,0,0,0,1.271,5.242c2.291,4.936,7.787,9.161,15.217,11.91a47.868,47.868,0,0,0,8.653,2.392A62.461,62.461,0,0,0,185,61.2a57.986,57.986,0,0,0,20-3.408c7.43-2.749,12.928-6.974,15.166-11.961a11.425,11.425,0,0,0,1.273-5.293,11.949,11.949,0,0,0-.155-1.744A11.249,11.249,0,0,1,220.172,42.735Z" transform="translate(-148.515 -19.98)" fill="#383838" style="mix-blend-mode: screen;isolation: isolate"/>
      </g>
      <g id="Group_679" data-name="Group 679" transform="translate(52.582 42.275)">
        <path id="Path_1305" data-name="Path 1305" d="M181.89,58.52l1.016.662.123-.192a3.358,3.358,0,0,0,2.185-1.794,4.2,4.2,0,0,0,.6-1.989,1.806,1.806,0,0,0-.218-.944l.014-.114s-.935-.628-.975-.644l-.013-.008v0c-.779-.3-1.954.433-2.7,1.731a4.414,4.414,0,0,0-.585,1.714A1.548,1.548,0,0,0,181.89,58.52Z" transform="translate(-181.318 -53.431)" fill="url(#linear-gradient-8)"/>
        <path id="Path_1306" data-name="Path 1306" d="M182.439,58.9c.774.446,2.042-.3,2.831-1.673s.8-2.842.029-3.288-2.041.3-2.831,1.673S181.666,58.45,182.439,58.9Z" transform="translate(-180.987 -53.206)" fill="#13161a"/>
        <path id="Path_1307" data-name="Path 1307" d="M182.794,58.475a2.79,2.79,0,0,0,1.981-1.6c.725-1.258.675-2.456.175-2.744a.615.615,0,0,0-.306-.075,2.8,2.8,0,0,0-1.98,1.6c-.725,1.258-.675,2.457-.176,2.744A.6.6,0,0,0,182.794,58.475Z" transform="translate(-180.837 -53.056)" fill="url(#radial-gradient)"/>
      </g>
      <g id="Group_680" data-name="Group 680" transform="translate(52.582 65.256)">
        <path id="Path_1308" data-name="Path 1308" d="M181.89,72.856l1.016.662.123-.192a3.36,3.36,0,0,0,2.185-1.792,4.213,4.213,0,0,0,.6-1.989,1.808,1.808,0,0,0-.218-.946l.014-.114s-.935-.628-.975-.644l-.013-.006v0c-.779-.3-1.954.433-2.7,1.731a4.414,4.414,0,0,0-.585,1.714A1.548,1.548,0,0,0,181.89,72.856Z" transform="translate(-181.318 -67.767)" fill="url(#linear-gradient-9)"/>
        <path id="Path_1309" data-name="Path 1309" d="M182.439,73.232c.774.446,2.042-.3,2.831-1.673s.8-2.842.029-3.288-2.041.3-2.831,1.673S181.666,72.786,182.439,73.232Z" transform="translate(-180.987 -67.542)" fill="#13161a"/>
        <path id="Path_1310" data-name="Path 1310" d="M182.794,72.811a2.791,2.791,0,0,0,1.981-1.6c.725-1.26.675-2.457.175-2.746a.615.615,0,0,0-.306-.075,2.8,2.8,0,0,0-1.98,1.6c-.725,1.26-.675,2.457-.176,2.744A.6.6,0,0,0,182.794,72.811Z" transform="translate(-180.837 -67.392)" fill="url(#radial-gradient-2)"/>
      </g>
      <g id="Group_681" data-name="Group 681" transform="translate(52.274 88.591)">
        <path id="Path_1311" data-name="Path 1311" d="M181.7,87.414l1.016.662.123-.192a3.357,3.357,0,0,0,2.183-1.792,4.2,4.2,0,0,0,.6-1.989,1.793,1.793,0,0,0-.216-.946l.014-.114s-.936-.628-.975-.644l-.013-.006v0c-.779-.3-1.956.433-2.7,1.731a4.415,4.415,0,0,0-.585,1.714A1.546,1.546,0,0,0,181.7,87.414Z" transform="translate(-181.126 -82.325)" fill="url(#linear-gradient-10)"/>
        <path id="Path_1312" data-name="Path 1312" d="M182.247,87.79c.774.446,2.041-.3,2.831-1.673s.8-2.842.029-3.288-2.042.3-2.831,1.673S181.473,87.344,182.247,87.79Z" transform="translate(-180.795 -82.1)" fill="#13161a"/>
        <path id="Path_1313" data-name="Path 1313" d="M182.6,87.369a2.792,2.792,0,0,0,1.983-1.6c.725-1.26.673-2.457.175-2.746a.615.615,0,0,0-.306-.075,2.8,2.8,0,0,0-1.981,1.6c-.725,1.26-.673,2.457-.175,2.744A.588.588,0,0,0,182.6,87.369Z" transform="translate(-180.645 -81.95)" fill="url(#radial-gradient-3)"/>
      </g>
      <g id="Group_682" data-name="Group 682" transform="translate(52.582 112.144)">
        <path id="Path_1314" data-name="Path 1314" d="M181.89,102.109l1.016.662.123-.192a3.363,3.363,0,0,0,2.185-1.794,4.208,4.208,0,0,0,.6-1.989,1.806,1.806,0,0,0-.218-.944l.014-.114s-.935-.628-.975-.644l-.013-.008v0c-.779-.3-1.954.434-2.7,1.733a4.405,4.405,0,0,0-.585,1.714A1.549,1.549,0,0,0,181.89,102.109Z" transform="translate(-181.318 -97.019)" fill="url(#linear-gradient-11)"/>
        <path id="Path_1315" data-name="Path 1315" d="M182.439,102.484c.774.446,2.042-.3,2.831-1.673s.8-2.842.029-3.288-2.041.3-2.831,1.672S181.666,102.037,182.439,102.484Z" transform="translate(-180.987 -96.793)" fill="#13161a"/>
        <path id="Path_1316" data-name="Path 1316" d="M182.794,102.063a2.79,2.79,0,0,0,1.981-1.6c.725-1.258.675-2.457.175-2.744a.6.6,0,0,0-.306-.075,2.791,2.791,0,0,0-1.98,1.6c-.725,1.258-.675,2.457-.176,2.744A.6.6,0,0,0,182.794,102.063Z" transform="translate(-180.837 -96.643)" fill="url(#radial-gradient-4)"/>
      </g>
    </g>
  </g>
</svg>
